/* XPM */
static char * stone_wall_torch_xpm[] = {
"64 64 670 2",
"  	c #696969",
". 	c #8F7C69",
"+ 	c #8F7D68",
"@ 	c #8C7A66",
"# 	c #ADA091",
"$ 	c #A59279",
"% 	c #A49178",
"& 	c #A18D76",
"* 	c #A39887",
"= 	c #806D5A",
"- 	c #9B8668",
"; 	c #9F866A",
"> 	c #9F8468",
", 	c #9A8367",
"' 	c #968067",
") 	c #6D5946",
"! 	c #68513D",
"~ 	c #664E37",
"{ 	c #6D4F33",
"] 	c #705132",
"^ 	c #705133",
"/ 	c #6B4F34",
"( 	c #684D34",
"_ 	c #5E4832",
": 	c #5C4634",
"< 	c #876A4C",
"[ 	c #76532F",
"} 	c #D28A39",
"| 	c #D38B3A",
"1 	c #CB7F35",
"2 	c #725335",
"3 	c #775E44",
"4 	c #8C6E4C",
"5 	c #7A542D",
"6 	c #DA953C",
"7 	c #DC983D",
"8 	c #D18837",
"9 	c #755434",
"0 	c #82684C",
"a 	c #90714E",
"b 	c #7E552B",
"c 	c #E4A241",
"d 	c #E5A441",
"e 	c #DD983C",
"f 	c #765331",
"g 	c #83684C",
"h 	c #8B6D4C",
"i 	c #7C542C",
"j 	c #E8A943",
"k 	c #EBAB46",
"l 	c #E19D3E",
"m 	c #745231",
"n 	c #7E654B",
"o 	c #7C6043",
"p 	c #795634",
"q 	c #EFB049",
"r 	c #EFB14A",
"s 	c #E3A03F",
"t 	c #6C4F32",
"u 	c #705A41",
"v 	c #6A5037",
"w 	c #765637",
"x 	c #795735",
"y 	c #775635",
"z 	c #715235",
"A 	c #6B5036",
"B 	c #634D38",
"C 	c #6D5741",
"D 	c #816951",
"E 	c #91785B",
"F 	c #9C8161",
"G 	c #9B8062",
"H 	c #8F785D",
"I 	c #89755D",
"J 	c #74624E",
"K 	c #523C29",
"L 	c #9B886B",
"M 	c #8C7352",
"N 	c #8C7252",
"O 	c #9C896A",
"P 	c #8E7553",
"Q 	c #917959",
"R 	c #9D896A",
"S 	c #907754",
"T 	c #967F5F",
"U 	c #9B8667",
"V 	c #978161",
"W 	c #9C886A",
"X 	c #907756",
"Y 	c #988061",
"Z 	c #9E8B6E",
"` 	c #907654",
" .	c #978162",
"..	c #9D8A6C",
"+.	c #9E8B6C",
"@.	c #8F7757",
"#.	c #8D7453",
"$.	c #998465",
"%.	c #8E7657",
"&.	c #988365",
"*.	c #8A7051",
"=.	c #988466",
"-.	c #876E4F",
";.	c #8D7455",
">.	c #856B4E",
",.	c #8D7557",
"'.	c #968163",
").	c #8F785A",
"!.	c #846A4D",
"~.	c #927C5E",
"{.	c #8F785B",
"].	c #90795C",
"^.	c #8E7759",
"/.	c #836A4D",
"(.	c #917B5D",
"_.	c #83694D",
":.	c #8C7658",
"<.	c #8E785B",
"[.	c #7D6347",
"}.	c #8C7559",
"|.	c #8B7458",
"1.	c #7B6246",
"2.	c #8C7458",
"3.	c #8A7357",
"4.	c #7A6246",
"5.	c #8C755A",
"6.	c #836B50",
"7.	c #775F44",
"8.	c #8B7559",
"9.	c #7E7B28",
"0.	c #8D8A39",
"a.	c #807D29",
"b.	c #80694E",
"c.	c #755D43",
"d.	c #867054",
"e.	c #5A4025",
"f.	c #867E71",
"g.	c #897F73",
"h.	c #898174",
"i.	c #877E71",
"j.	c #867E70",
"k.	c #837A6F",
"l.	c #82796D",
"m.	c #938D81",
"n.	c #726B60",
"o.	c #716B5F",
"p.	c #605849",
"q.	c #62594B",
"r.	c #615B4E",
"s.	c #655F52",
"t.	c #5B452D",
"u.	c #675A42",
"v.	c #70695E",
"w.	c #746D60",
"x.	c #746C60",
"y.	c #736C60",
"z.	c #7B6349",
"A.	c #725A40",
"B.	c #826A50",
"C.	c #82796C",
"D.	c #8A8174",
"E.	c #726C60",
"F.	c #726B5F",
"G.	c #60584A",
"H.	c #615A4E",
"I.	c #746D62",
"J.	c #755C44",
"K.	c #70583F",
"L.	c #7E674C",
"M.	c #5D4429",
"N.	c #827A6D",
"O.	c #7F7669",
"P.	c #81796C",
"Q.	c #877D6F",
"R.	c #8A8074",
"S.	c #675F52",
"T.	c #614B35",
"U.	c #6D553C",
"V.	c #7A644A",
"W.	c #928C81",
"X.	c #969085",
"Y.	c #969186",
"Z.	c #908A7F",
"`.	c #8B857A",
" +	c #8A8378",
".+	c #67661F",
"++	c #787063",
"@+	c #706456",
"#+	c #706556",
"$+	c #64594B",
"%+	c #5B4328",
"&+	c #7D7828",
"*+	c #6E6B22",
"=+	c #676420",
"-+	c #5B4329",
";+	c #696356",
">+	c #857D73",
",+	c #857E74",
"'+	c #827A6F",
")+	c #80786C",
"!+	c #7E786B",
"~+	c #7C756A",
"{+	c #776F63",
"]+	c #71695E",
"^+	c #71675D",
"/+	c #725A41",
"(+	c #5F4833",
"_+	c #755E44",
":+	c #706A5F",
"<+	c #6C6459",
"[+	c #6C645A",
"}+	c #8E877C",
"|+	c #7E776B",
"1+	c #7E786C",
"2+	c #746D61",
"3+	c #5C4429",
"4+	c #797063",
"5+	c #7D7568",
"6+	c #70695C",
"7+	c #70695B",
"8+	c #6E685B",
"9+	c #8E8B3B",
"0+	c #757125",
"a+	c #665A49",
"b+	c #797367",
"c+	c #81786E",
"d+	c #81796E",
"e+	c #776E63",
"f+	c #70685E",
"g+	c #6F685D",
"h+	c #705840",
"i+	c #6B5239",
"j+	c #715941",
"k+	c #62562D",
"l+	c #60552C",
"m+	c #6F6C24",
"n+	c #7D776B",
"o+	c #716453",
"p+	c #71695C",
"q+	c #817E2A",
"r+	c #6B5E4F",
"s+	c #7E766B",
"t+	c #7D766B",
"u+	c #6B604F",
"v+	c #6F685E",
"w+	c #684F37",
"x+	c #6D553E",
"y+	c #98913B",
"z+	c #7A7629",
"A+	c #61562D",
"B+	c #817D2A",
"C+	c #6F6C25",
"D+	c #5E522A",
"E+	c #847E72",
"F+	c #787166",
"G+	c #766F63",
"H+	c #756F63",
"I+	c #736D61",
"J+	c #716A5F",
"K+	c #766E63",
"L+	c #766F64",
"M+	c #777065",
"N+	c #7A7368",
"O+	c #5A4228",
"P+	c #68651F",
"Q+	c #604D38",
"R+	c #675B4E",
"S+	c #665B4E",
"T+	c #665B4D",
"U+	c #5F4C39",
"V+	c #7A654C",
"W+	c #6E563E",
"X+	c #624D35",
"Y+	c #847B6F",
"Z+	c #867F73",
"`+	c #878074",
" @	c #8F887E",
".@	c #948D84",
"+@	c #968F86",
"@@	c #83802B",
"#@	c #656222",
"$@	c #6F6D25",
"%@	c #6E6C25",
"&@	c #958E38",
"*@	c #797528",
"=@	c #867F74",
"-@	c #6D675B",
";@	c #655847",
">@	c #5E4933",
",@	c #6C665A",
"'@	c #6B6459",
")@	c #706A5E",
"!@	c #583F24",
"~@	c #70685D",
"{@	c #7B664C",
"]@	c #694F38",
"^@	c #6F573E",
"/@	c #81796D",
"(@	c #797166",
"_@	c #7A7267",
":@	c #7A7266",
"<@	c #8B8478",
"[@	c #52371A",
"}@	c #8E8A35",
"|@	c #8B8733",
"1@	c #8A8532",
"2@	c #7F7B29",
"3@	c #686522",
"4@	c #868074",
"5@	c #736A5E",
"6@	c #736B5F",
"7@	c #6F685C",
"8@	c #6D665A",
"9@	c #6D675A",
"0@	c #5D4833",
"a@	c #655A4A",
"b@	c #563C1F",
"c@	c #5B462E",
"d@	c #70675D",
"e@	c #6F675D",
"f@	c #7C674D",
"g@	c #6A5038",
"h@	c #71583F",
"i@	c #787165",
"j@	c #736B61",
"k@	c #736B60",
"l@	c #6F6D24",
"m@	c #8D8733",
"n@	c #787427",
"o@	c #767126",
"p@	c #6A6822",
"q@	c #59561B",
"r@	c #84802E",
"s@	c #7A7628",
"t@	c #797626",
"u@	c #6F6C21",
"v@	c #573E25",
"w@	c #584934",
"x@	c #584A36",
"y@	c #594A37",
"z@	c #594B38",
"A@	c #594C3B",
"B@	c #584C3B",
"C@	c #6B6558",
"D@	c #6B6559",
"E@	c #6E675C",
"F@	c #6C5C49",
"G@	c #6E5F4D",
"H@	c #817A6D",
"I@	c #6E685C",
"J@	c #6E6558",
"K@	c #7C664B",
"L@	c #7E694E",
"M@	c #7E684E",
"N@	c #7C7A29",
"O@	c #797526",
"P@	c #7A7525",
"Q@	c #767222",
"R@	c #7E7567",
"S@	c #7F7567",
"T@	c #82796B",
"U@	c #787426",
"V@	c #605D1E",
"W@	c #5E5B1D",
"X@	c #7E7B25",
"Y@	c #625F1F",
"Z@	c #746F25",
"`@	c #847F2E",
" #	c #726E24",
".#	c #584D28",
"+#	c #5A4423",
"@#	c #524124",
"##	c #5D5241",
"$#	c #5F5545",
"%#	c #695E51",
"&#	c #696153",
"*#	c #5E5445",
"=#	c #6E675B",
"-#	c #6B6557",
";#	c #696257",
">#	c #726A5D",
",#	c #746C5F",
"'#	c #6C6356",
")#	c #6F675B",
"!#	c #70685B",
"~#	c #665E52",
"{#	c #70685C",
"]#	c #91887D",
"^#	c #938B7E",
"/#	c #928B7D",
"(#	c #92897D",
"_#	c #91887C",
":#	c #787425",
"<#	c #757122",
"[#	c #67641D",
"}#	c #6D6659",
"|#	c #6A6256",
"1#	c #6C6458",
"2#	c #5C4832",
"3#	c #5C502B",
"4#	c #7B7727",
"5#	c #938C37",
"6#	c #8B8532",
"7#	c #605E1F",
"8#	c #736F24",
"9#	c #67651F",
"0#	c #7D7A29",
"a#	c #63611F",
"b#	c #6D6921",
"c#	c #757124",
"d#	c #837F2E",
"e#	c #5A4422",
"f#	c #594D28",
"g#	c #837F2F",
"h#	c #86822F",
"i#	c #85812F",
"j#	c #858230",
"k#	c #5B4E29",
"l#	c #5E5444",
"m#	c #6A6457",
"n#	c #70695D",
"o#	c #574432",
"p#	c #756B61",
"q#	c #786F65",
"r#	c #766E64",
"s#	c #4F3D2B",
"t#	c #66641C",
"u#	c #63611A",
"v#	c #8A8377",
"w#	c #4D301D",
"x#	c #5C4F2A",
"y#	c #5B591C",
"z#	c #5F5D1E",
"A#	c #85812E",
"B#	c #605D1D",
"C#	c #5E5C1B",
"D#	c #514F17",
"E#	c #615E1D",
"F#	c #66631F",
"G#	c #56531B",
"H#	c #646121",
"I#	c #6E6B23",
"J#	c #837F2D",
"K#	c #787327",
"L#	c #84812F",
"M#	c #563E28",
"N#	c #563D25",
"O#	c #53391E",
"P#	c #543A21",
"Q#	c #533A20",
"R#	c #4F3519",
"S#	c #503519",
"T#	c #563D24",
"U#	c #563D23",
"V#	c #51361D",
"W#	c #51371D",
"X#	c #51361C",
"Y#	c #4F3419",
"Z#	c #594736",
"`#	c #71665B",
" $	c #73695D",
".$	c #72685C",
"+$	c #71685D",
"@$	c #554332",
"#$	c #4B2F18",
"$$	c #4B2F1A",
"%$	c #4B2E1A",
"&$	c #4A2E1A",
"*$	c #4B2D1A",
"=$	c #929039",
"-$	c #847F1F",
";$	c #544727",
">$	c #8D8734",
",$	c #8C8733",
"'$	c #5B581C",
")$	c #5E5C1D",
"!$	c #7D7A28",
"~$	c #525019",
"{$	c #5B581B",
"]$	c #504E17",
"^$	c #4F4D16",
"/$	c #5C5A1B",
"($	c #504D17",
"_$	c #7F7B2A",
":$	c #535119",
"<$	c #78742A",
"[$	c #777329",
"}$	c #615F1D",
"|$	c #5E5B1C",
"1$	c #6F6A21",
"2$	c #746F23",
"3$	c #7B7729",
"4$	c #58561B",
"5$	c #938E3A",
"6$	c #908C37",
"7$	c #918E37",
"8$	c #918B37",
"9$	c #757720",
"0$	c #868221",
"a$	c #848120",
"b$	c #827D20",
"c$	c #786D61",
"d$	c #6A6053",
"e$	c #6B6053",
"f$	c #6A5F52",
"g$	c #756B5F",
"h$	c #999234",
"i$	c #8D8931",
"j$	c #524326",
"k$	c #625F1D",
"l$	c #716E24",
"m$	c #65621F",
"n$	c #545219",
"o$	c #58561A",
"p$	c #6C6A21",
"q$	c #67641F",
"r$	c #737024",
"s$	c #55521A",
"t$	c #7D792A",
"u$	c #5C5A1C",
"v$	c #525018",
"w$	c #555219",
"x$	c #696620",
"y$	c #514E17",
"z$	c #66621F",
"A$	c #87831F",
"B$	c #908D37",
"C$	c #858023",
"D$	c #908F36",
"E$	c #827F21",
"F$	c #493624",
"G$	c #4A3624",
"H$	c #4B3624",
"I$	c #999333",
"J$	c #807E1E",
"K$	c #6D6F1F",
"L$	c #7E7A1E",
"M$	c #6D6C1E",
"N$	c #8C882F",
"O$	c #817E21",
"P$	c #828021",
"Q$	c #828020",
"R$	c #827F20",
"S$	c #89842C",
"T$	c #807D1F",
"U$	c #7D781E",
"V$	c #72711E",
"W$	c #78761E",
"X$	c #544E11",
"Y$	c #73721E",
"Z$	c #73721D",
"`$	c #61631D",
" %	c #74731D",
".%	c #66691D",
"+%	c #77731D",
"@%	c #78751D",
"#%	c #64651D",
"$%	c #75741E",
"%%	c #75731D",
"&%	c #76731D",
"*%	c #67691E",
"=%	c #555012",
"-%	c #64651A",
";%	c #75721D",
">%	c #72711D",
",%	c #72701D",
"'%	c #60621D",
")%	c #71701D",
"!%	c #71701A",
"~%	c #75731A",
"{%	c #61621A",
"]%	c #66681D",
"^%	c #555112",
"/%	c #72721D",
"(%	c #72701A",
"_%	c #5F611A",
":%	c #60611D",
"<%	c #534D11",
"[%	c #6F6D1A",
"}%	c #534E11",
"|%	c #5E601A",
"1%	c #5F6118",
"2%	c #3B2B0B",
"3%	c #3B2F0B",
"4%	c #544F12",
"5%	c #555111",
"6%	c #544F11",
"7%	c #6F6D18",
"8%	c #4A351B",
"9%	c #3B2A0B",
"0%	c #422C16",
"a%	c #39240F",
"b%	c #4A341C",
"c%	c #4D391E",
"d%	c #422D16",
"e%	c #555011",
"f%	c #412B16",
"g%	c #402A15",
"h%	c #5E6018",
"i%	c #3B2E0B",
"j%	c #4C381E",
"k%	c #412C16",
"l%	c #49341B",
"m%	c #412B15",
"n%	c #4B351D",
"o%	c #3F2912",
"p%	c #46301A",
"q%	c #4B361C",
"r%	c #4C371D",
"s%	c #46311A",
"t%	c #3A250F",
"u%	c #432F18",
"v%	c #47311B",
"w%	c #462F1A",
"x%	c #48331B",
"y%	c #432E18",
"z%	c #3D2712",
"A%	c #3D2912",
"B%	c #4B371D",
"C%	c #432F17",
"D%	c #462F19",
"E%	c #39240E",
"F%	c #463119",
"G%	c #4B351C",
"H%	c #4B361D",
"I%	c #463019",
"J%	c #4C381D",
"K%	c #3E2812",
"L%	c #432D17",
"M%	c #48331A",
"N%	c #412C15",
"O%	c #4D391F",
"P%	c #47321A",
"Q%	c #3A240F",
"R%	c #4A351C",
"S%	c #3D2812",
"T%	c #3A230F",
"U%	c #452F19",
"V%	c #452F18",
"W%	c #4A361D",
"X%	c #463018",
"Y%	c #402B15",
"Z%	c #402C14",
"`%	c #4C381F",
" &	c #6A5737",
".&	c #6B5837",
"+&	c #6F5C3D",
"@&	c #6F5D3C",
"#&	c #5E4A2D",
"$&	c #5A432A",
"%&	c #402A14",
"&&	c #412B14",
"*&	c #4A331D",
"=&	c #4A321C",
"-&	c #654E31",
";&	c #6B5836",
">&	c #6E5B3C",
",&	c #6E5C3B",
"'&	c #5E492D",
")&	c #594229",
"!&	c #3F2914",
"~&	c #483018",
"{&	c #634C2F",
"]&	c #4A341B",
"^&	c #3F2B14",
"/&	c #4B371F",
"(&	c #685535",
"_&	c #695635",
":&	c #6C5A39",
"<&	c #5C482C",
"                                                                                                                                ",
"                                                                                                                                ",
"                                                                                                                                ",
"                                                                                                                                ",
"                                                                                                                                ",
"                                                                                                                                ",
"                                                                                                                                ",
"                                                                                            . + @                               ",
"                                                                                          # $ % & *                             ",
"                                                                                        = - ; > , ' )                           ",
"                                                                                      ! ~ { ] ^ / ( _ :                         ",
"                                                                                        < [ } | 1 2 3                           ",
"                                                                                        4 5 6 7 8 9 0                           ",
"                                                                                        a b c d e f g                           ",
"                                                                                        h i j k l m n                           ",
"                                                                                        o p q r s t u                           ",
"                                                                                        v w x y z A B                           ",
"                                                                                      C D E F G H I J K                         ",
"                                                                                            L M N                               ",
"                                                                                            O P Q                               ",
"                                                                                            R S T                               ",
"                                                                                            U S V                               ",
"                                                                                            W X Y                               ",
"                                                                                            Z `  .                              ",
"                                                                                            ..+. .                              ",
"                                                                                            @.#.$.                              ",
"                                                                                            %.#.&.                              ",
"                                                                                            %.*.=.                              ",
"                                                                                            %.-.=.                              ",
"                                                                                            ;.>.&.                              ",
"                                                                                            ,.>.'.                              ",
"                                                                                            ).!.~.                              ",
"                                                                                            {.!.].                              ",
"                                                                                            ^./.).                              ",
"                                                                                            (._.:.                              ",
"                                                                                            <.[.}.                              ",
"                                                                                            |.1.2.                              ",
"                                                                                            3.4.5.                              ",
"                                                                                            6.7.8.                              ",
"                                                                            9.0.a.          b.c.d.                              ",
"                                            e.f.g.h.i.i.j.k.l.m.n.n.o.p.q.r.s.t.u.v.w.x.y.y.z.A.B.                              ",
"                                            e.i.i.C.g.g.D.D.l.m.E.F.o.G.H.r.s.t.I.v.v.w.y.y.J.K.L.                              ",
"                                            M.N.O.P.Q.g.R.R.l.m.o.F.o.r.r.S.S.t.v.v.v.v.y.y.T.U.V.                              ",
"                      W.X.Y.Z.`. +.+++++++++++@+@+#+$+$+$+%+&+*+=+-+;+>+,+'+)+!+)+!+~+{+]+^+/+(+_+:+<+[+<+                      ",
"                      }+|+1+x.2+2+3+++++4+4+++++++5+6+7+8+9+0+-+a+;+;+b+b+)+c+d+c+e+e+e+f+g+h+i+j+<+<+<+[+                      ",
"                k+  l+m+n+|+w.v.v.3+o+4+4+4+4+++++5+p+6+8+q+T.r+;+;+;+b+b+b+s+t+s+e+e+u+v+v+j+w+x+<+<+<+<+                      ",
"              y+z+A+B+C+D+E+s+t+t+F+G+H+I+J+]+K+L+M+N+-+O+P+  Q+[+[+[+R+S+S+T+U+T+T+T+T+g+g+V+w+W+X+Y+Z+`+ @.@+@                ",
"            k+@@#@$@%@&@*@=@]+]+]+-@]+o.o.o.]+]+]+v.-@-@-@;@>@,@'@'@'@)@)@)@)@!@)@~@~@g+g+g+{@]@^@/@(@F+F+_@:@_@<@[@            ",
"              }@y+|@1@2@3@4@5@6@6@7@o.o.o.o.o.]+]+]+8@9@8@,@0@a@'@'@'@)@)@)@)@b@c@~@~@d@e@e@f@g@h@/@F+F+i@j@k@:@<@[@            ",
"          k+k+l@m@n@o@p@q@r@*@s@t@u@v@w@x@y@z@A@B@A@C@D@E@n.n.F.E.E.~@F@G@'+'+H@H@'+'+'+I@J@K@L@M@N@O@P@Q@R@S@R@T@l.l.          ",
"          U@U@V@W@X@Y@q@Z@`@ #.#+#@###$#%#&#&#*#*#*#=#C@C@-#-#-#;#;#;#p+>#,#'#)#!#!#~#~#{#]#^#/#(#_#:#<#[#}#9@9@|#1#1#2#        ",
"      3#4#5#6#7#8#9#0#a#b#c#d#.#e#f#g#=+h#i#j#k#*#l#=#-#m#m#n#n#n#;#;#,#,#,#'#!#!#!#~#~#o#p#q#q#q#r#s#t#u#I@I@I@1#1#1#v#w#      ",
"        x#|@y#z#A#B#C#D#E#F#G#H#f#I#J#K#i#L# #r@M#N#O#P#Q#R#R#S#T#v@U#V#V#V#V#W#X#R#R#Y#Z#`# $ $.$+$@$#$#$$$$$%$&$&$*$          ",
"=$-$;$>$,$'$)$!$~${$]$^$/$E#($_$I#:$<$[$}$|$1$2$3$4$5$6$7$8$8$8$8$9$5$5$5$0$5$5$5$a$b$b$c$d$e$e$f$%#g$5$0$0$5$5$8$9$5$0$0$h$i$i$",
"-$-$j$k$l$U@m$n$o$p$q$r$^$s$t$I#u$v$w$x$W@y$($1$z$8#A$B$C$C$D$E$E$0$0$0$0$0$5$a$a$a$b$b$F$G$H$H$G$G$F$5$0$0$5$5$E$0$0$0$0$I$a$a$",
"J$K$K$L$C$M$M$N$E$E$0$O$P$Q$Q$R$R$S$S$b$b$T$J$J$K$K$U$U$M$M$N$E$E$0$O$P$Q$Q$R$R$a$a$S$b$T$J$J$J$K$U$U$L$M$M$5$5$E$0$P$Q$Q$Q$R$a$",
"V$V$V$W$X$Y$Y$Z$`$ %Z$Z$.%+%+%@%@%#%$%$%%%&%*%*%V$V$W$W$=%Y$Z$`$ %Z$Z$.%+%+%@%@%-%-%$%$%;%*%*%V$V$W$W$W$Y$Y$Z$Z$ %Z$.%+%+%+%@%-%",
">%>%>%X$X$,%,%,%'%'%Z$Z$`$`$>%)%!%$%$%$%~%{%=%]%>%>%'%'%^%,%,%'%'%Z$Z$`$`$>%)%!%-%-%%%$%{%X$]%>%>%'%'%X$,%,%,%,%'%Z$`$`$>%>%!%-%",
")%)%/%X$X$>%>%(%{%{%Z$,%^%^%_%!%!%$%$%X$_%{%=%=%)%/%:%:%^%>%(%{%{%Z$,%<%<%_%!%!%[%[%}%}%{%X$X$)%/%:%:%X$|%|%(%(%{%Z$X$X$_%_%!%[%",
")%)%)%X$X$X$|%|%X$X$|%|%^%^%X$!%[%1%X$2%X$X$3%X$)%)%4%4%5%6%|%6%6%|%|%<%<%3%!%[%[%7%}%}%X$2%X$)%)%X$X$X$|%|%|%|%2%|%X$X$2%X$[%[%",
"X$X$2%8%9%2%X$X$2%0%0%2%2%a%b%2%X$X$2%c%3%d%d%3%e%3%8%8%3%3%6%3%f%f%3%3%a%g%3%<%h%h%i%j%2%k%2%X$2%l%l%l%2%X$X$X$f%f%2%a%m%n%X$h%",
"o%p%q%r%r%s%s%t%u%c%c%v%w%0%b%b%b%s%s%x%x%y%z%A%p%q%B%B%r%s%m%C%c%c%v%D%f%E%b%b%2%2%F%x%x%z%A%o%G%H%H%H%I%I%g%t%J%J%D%m%E%n%n%2%",
"o%K%L%J%M%s%s%N%O%c%c%c%M%P%Q%R%R%p%p%P%x%y%S%A%K%L%B%B%M%s%I%O%c%c%c%M%P%T%R%R%U%V%I%P%x%S%A%o%d%W%W%B%F%F%X%Y%J%J%P%s%T%Q%H%p%",
"q%r%Z%`%`%`%m%c%c% &.&+&@&#&#&$&%&&&*&=&=&u%-&-&q%Z%K%`%`%`%J%c% &;&>&,&'&'&)&!&!&!&*&=&~&{&{&]&^&K%/&/&/&g%B%j%(&_&:&<&<&<&!&%&"};
