/* XPM */
static char * torch_rock_xpm[] = {
"64 64 596 2",
"  	c #696969",
". 	c #8F7C69",
"+ 	c #8F7D68",
"@ 	c #8C7A66",
"# 	c #ADA091",
"$ 	c #A59279",
"% 	c #A49178",
"& 	c #A18D76",
"* 	c #A39887",
"= 	c #806D5A",
"- 	c #9B8668",
"; 	c #9F866A",
"> 	c #9F8468",
", 	c #9A8367",
"' 	c #968067",
") 	c #6D5946",
"! 	c #68513D",
"~ 	c #664E37",
"{ 	c #6D4F33",
"] 	c #705132",
"^ 	c #705133",
"/ 	c #6B4F34",
"( 	c #684D34",
"_ 	c #5E4832",
": 	c #5C4634",
"< 	c #876A4C",
"[ 	c #76532F",
"} 	c #D28A39",
"| 	c #D38B3A",
"1 	c #CB7F35",
"2 	c #725335",
"3 	c #775E44",
"4 	c #8C6E4C",
"5 	c #7A542D",
"6 	c #DA953C",
"7 	c #DC983D",
"8 	c #D18837",
"9 	c #755434",
"0 	c #82684C",
"a 	c #90714E",
"b 	c #7E552B",
"c 	c #E4A241",
"d 	c #E5A441",
"e 	c #DD983C",
"f 	c #765331",
"g 	c #83684C",
"h 	c #8B6D4C",
"i 	c #7C542C",
"j 	c #E8A943",
"k 	c #EBAB46",
"l 	c #E19D3E",
"m 	c #745231",
"n 	c #7E654B",
"o 	c #7C6043",
"p 	c #795634",
"q 	c #EFB049",
"r 	c #EFB14A",
"s 	c #E3A03F",
"t 	c #6C4F32",
"u 	c #705A41",
"v 	c #6A5037",
"w 	c #765637",
"x 	c #795735",
"y 	c #775635",
"z 	c #715235",
"A 	c #6B5036",
"B 	c #634D38",
"C 	c #6D5741",
"D 	c #816951",
"E 	c #91785B",
"F 	c #9C8161",
"G 	c #9B8062",
"H 	c #8F785D",
"I 	c #89755D",
"J 	c #74624E",
"K 	c #523C29",
"L 	c #9B886B",
"M 	c #8C7352",
"N 	c #8C7252",
"O 	c #9C896A",
"P 	c #8E7553",
"Q 	c #917959",
"R 	c #9D896A",
"S 	c #907754",
"T 	c #967F5F",
"U 	c #9B8667",
"V 	c #978161",
"W 	c #9C886A",
"X 	c #907756",
"Y 	c #988061",
"Z 	c #9E8B6E",
"` 	c #907654",
" .	c #978162",
"..	c #9D8A6C",
"+.	c #9E8B6C",
"@.	c #8F7757",
"#.	c #8D7453",
"$.	c #998465",
"%.	c #8E7657",
"&.	c #988365",
"*.	c #8A7051",
"=.	c #988466",
"-.	c #876E4F",
";.	c #8D7455",
">.	c #856B4E",
",.	c #8D7557",
"'.	c #968163",
").	c #8F785A",
"!.	c #846A4D",
"~.	c #927C5E",
"{.	c #8F785B",
"].	c #90795C",
"^.	c #8E7759",
"/.	c #836A4D",
"(.	c #917B5D",
"_.	c #83694D",
":.	c #8C7658",
"<.	c #8E785B",
"[.	c #7D6347",
"}.	c #8C7559",
"|.	c #8B7458",
"1.	c #7B6246",
"2.	c #8C7458",
"3.	c #8A7357",
"4.	c #7A6246",
"5.	c #8C755A",
"6.	c #836B50",
"7.	c #775F44",
"8.	c #8B7559",
"9.	c #80694E",
"0.	c #755D43",
"a.	c #867054",
"b.	c #60552C",
"c.	c #716D25",
"d.	c #6F6C24",
"e.	c #7B6349",
"f.	c #725A40",
"g.	c #826A50",
"h.	c #61562D",
"i.	c #817D2A",
"j.	c #706C25",
"k.	c #6F6C25",
"l.	c #5E522A",
"m.	c #83802B",
"n.	c #755C44",
"o.	c #70583F",
"p.	c #7E674C",
"q.	c #8D8834",
"r.	c #8B8633",
"s.	c #8A8533",
"t.	c #898432",
"u.	c #948D37",
"v.	c #6F6A23",
"w.	c #62562D",
"x.	c #614B35",
"y.	c #6D553C",
"z.	c #7A644A",
"A.	c #6F6D25",
"B.	c #6E6C25",
"C.	c #8A8432",
"D.	c #958E38",
"E.	c #797528",
"F.	c #5D522A",
"G.	c #736F27",
"H.	c #725A41",
"I.	c #5F4833",
"J.	c #755E44",
"K.	c #8B8733",
"L.	c #8A8532",
"M.	c #807C29",
"N.	c #7F7B29",
"O.	c #686522",
"P.	c #5D5129",
"Q.	c #5B4F29",
"R.	c #7F7A2B",
"S.	c #705840",
"T.	c #6B5239",
"U.	c #715941",
"V.	c #636021",
"W.	c #625F20",
"X.	c #6C6A24",
"Y.	c #878330",
"Z.	c #5F5C1D",
"`.	c #777326",
" +	c #5B5029",
".+	c #797626",
"++	c #684F37",
"@+	c #6D553E",
"#+	c #787427",
"$+	c #767126",
"%+	c #757226",
"&+	c #6A6822",
"*+	c #59561B",
"=+	c #767226",
"-+	c #84802E",
";+	c #8D8733",
">+	c #7A7628",
",+	c #61542D",
"'+	c #787426",
")+	c #6D6A24",
"!+	c #7A654C",
"~+	c #6E563E",
"{+	c #7E7B25",
"]+	c #625F1F",
"^+	c #736F24",
"/+	c #746F25",
"(+	c #837F2D",
"_+	c #847F2E",
":+	c #726E24",
"<+	c #584D28",
"[+	c #5D502B",
"}+	c #7C7728",
"|+	c #7C7727",
"1+	c #8E8835",
"2+	c #8D8833",
"3+	c #8E8833",
"4+	c #7B664C",
"5+	c #694F38",
"6+	c #6F573E",
"7+	c #807D25",
"8+	c #7E7C29",
"9+	c #535118",
"0+	c #8D8632",
"a+	c #6D6922",
"b+	c #5B591C",
"c+	c #767125",
"d+	c #777325",
"e+	c #837F2E",
"f+	c #6E6B21",
"g+	c #5A4E28",
"h+	c #85802F",
"i+	c #86822F",
"j+	c #86812F",
"k+	c #6C6924",
"l+	c #8E8578",
"m+	c #8C8375",
"n+	c #8B8274",
"o+	c #857B6D",
"p+	c #847A6D",
"q+	c #5F4A39",
"r+	c #5C502B",
"s+	c #7B7727",
"t+	c #8D8832",
"u+	c #938C37",
"v+	c #8B8532",
"w+	c #8A8531",
"x+	c #7C674D",
"y+	c #6A5038",
"z+	c #71583F",
"A+	c #67651F",
"B+	c #7D7A29",
"C+	c #64621F",
"D+	c #63611F",
"E+	c #6D6921",
"F+	c #6C6821",
"G+	c #757124",
"H+	c #757225",
"I+	c #594D28",
"J+	c #85802E",
"K+	c #837F2F",
"L+	c #676420",
"M+	c #85812F",
"N+	c #858230",
"O+	c #5B4E29",
"P+	c #8B8275",
"Q+	c #8C8376",
"R+	c #8D8576",
"S+	c #897F71",
"T+	c #857A6C",
"U+	c #83786B",
"V+	c #5C4F2A",
"W+	c #8B8632",
"X+	c #6D6B23",
"Y+	c #7C664B",
"Z+	c #7E694E",
"`+	c #7E684E",
" @	c #605D1D",
".@	c #5E5C1B",
"+@	c #605E1D",
"@@	c #514F17",
"#@	c #615E1D",
"$@	c #5A581B",
"%@	c #66631F",
"&@	c #696620",
"*@	c #56531B",
"=@	c #646121",
"-@	c #6E6B23",
";@	c #837E2D",
">@	c #787327",
",@	c #84812F",
"'@	c #615F20",
")@	c #574A28",
"!@	c #888072",
"~@	c #898173",
"{@	c #8A8275",
"]@	c #8A8171",
"^@	c #887F70",
"/@	c #867D6E",
"(@	c #877C6E",
"_@	c #84796B",
":@	c #807668",
"<@	c #553C2B",
"[@	c #564928",
"}@	c #584A28",
"|@	c #666421",
"1@	c #777226",
"2@	c #898532",
"3@	c #706D24",
"4@	c #91887D",
"5@	c #938B7E",
"6@	c #928B7D",
"7@	c #92897D",
"8@	c #91887C",
"9@	c #514E17",
"0@	c #565419",
"a@	c #5E5C1D",
"b@	c #605E1C",
"c@	c #5C591B",
"d@	c #504B18",
"e@	c #7D792A",
"f@	c #7E7A2A",
"g@	c #5C591C",
"h@	c #6F6B24",
"i@	c #5D5B1C",
"j@	c #5C5A1C",
"k@	c #78742A",
"l@	c #615D1E",
"m@	c #666420",
"n@	c #5E5C1E",
"o@	c #7F7B2B",
"p@	c #706D23",
"q@	c #7B7729",
"r@	c #514325",
"s@	c #594434",
"t@	c #877E70",
"u@	c #877E71",
"v@	c #887F71",
"w@	c #898072",
"x@	c #887F6F",
"y@	c #847B6B",
"z@	c #82776A",
"A@	c #7C7163",
"B@	c #544727",
"C@	c #8D8734",
"D@	c #8C8733",
"E@	c #5B581C",
"F@	c #574432",
"G@	c #756B61",
"H@	c #786F65",
"I@	c #766E64",
"J@	c #4F3D2B",
"K@	c #585519",
"L@	c #4F4D16",
"M@	c #5C5A1B",
"N@	c #504D17",
"O@	c #7F7B2A",
"P@	c #535119",
"Q@	c #777329",
"R@	c #64611F",
"S@	c #615F1D",
"T@	c #5E5B1C",
"U@	c #63601E",
"V@	c #6F6A21",
"W@	c #746F23",
"X@	c #524526",
"Y@	c #58561B",
"Z@	c #584433",
"`@	c #786F63",
" #	c #877F70",
".#	c #877E6E",
"+#	c #847A6B",
"@#	c #82786A",
"##	c #7F7668",
"$#	c #7F7466",
"%#	c #7D7364",
"&#	c #524326",
"*#	c #65621F",
"=#	c #625F1D",
"-#	c #716E24",
";#	c #5B591B",
">#	c #594736",
",#	c #71665B",
"'#	c #73695D",
")#	c #72685C",
"!#	c #71685D",
"~#	c #554332",
"{#	c #726F24",
"]#	c #737024",
"^#	c #4F4B17",
"/#	c #55521A",
"(#	c #525018",
"_#	c #58551A",
":#	c #555219",
"<#	c #514E18",
"[#	c #5E5B1D",
"}#	c #66621F",
"|#	c #747124",
"1#	c #554030",
"2#	c #746B5F",
"3#	c #736A5E",
"4#	c #877F71",
"5#	c #857D6F",
"6#	c #827868",
"7#	c #5E5349",
"8#	c #61554A",
"9#	c #61564A",
"0#	c #929039",
"a#	c #847F1F",
"b#	c #787326",
"c#	c #786D61",
"d#	c #6A6053",
"e#	c #6B6053",
"f#	c #6A5F52",
"g#	c #695E51",
"h#	c #756B5F",
"i#	c #4F4D17",
"j#	c #65621E",
"k#	c #514C18",
"l#	c #5F5D1D",
"m#	c #605E1E",
"n#	c #686520",
"o#	c #5D5A1C",
"p#	c #4F4C17",
"q#	c #64611E",
"r#	c #4E4124",
"s#	c #938E3A",
"t#	c #848120",
"u#	c #827D20",
"v#	c #72751F",
"w#	c #6D6458",
"x#	c #6C6256",
"y#	c #54493F",
"z#	c #544A41",
"A#	c #574D43",
"B#	c #584E44",
"C#	c #5A5045",
"D#	c #5C5247",
"E#	c #868221",
"F#	c #999234",
"G#	c #8D8931",
"H#	c #908D37",
"I#	c #858023",
"J#	c #908F36",
"K#	c #493624",
"L#	c #4A3624",
"M#	c #4B3624",
"N#	c #999333",
"O#	c #807D1F",
"P#	c #908D36",
"Q#	c #87831F",
"R#	c #827F21",
"S#	c #817E1F",
"T#	c #4F3928",
"U#	c #53493F",
"V#	c #534940",
"W#	c #52483F",
"X#	c #53483F",
"Y#	c #584E43",
"Z#	c #594E45",
"`#	c #594F45",
" $	c #5D5248",
".$	c #807E1E",
"+$	c #6D6F1F",
"@$	c #7E7A1E",
"#$	c #6D6C1E",
"$$	c #8C882F",
"%$	c #817E21",
"&$	c #828021",
"*$	c #828020",
"=$	c #827F20",
"-$	c #89842C",
";$	c #7D781E",
">$	c #72711E",
",$	c #78761E",
"'$	c #544E11",
")$	c #73721E",
"!$	c #73721D",
"~$	c #61631D",
"{$	c #74731D",
"]$	c #66691D",
"^$	c #77731D",
"/$	c #78751D",
"($	c #64651D",
"_$	c #75741E",
":$	c #75731D",
"<$	c #76731D",
"[$	c #67691E",
"}$	c #555012",
"|$	c #64651A",
"1$	c #75721D",
"2$	c #72711D",
"3$	c #72701D",
"4$	c #60621D",
"5$	c #71701D",
"6$	c #71701A",
"7$	c #75731A",
"8$	c #61621A",
"9$	c #66681D",
"0$	c #555112",
"a$	c #72721D",
"b$	c #72701A",
"c$	c #5F611A",
"d$	c #60611D",
"e$	c #534D11",
"f$	c #6F6D1A",
"g$	c #534E11",
"h$	c #5E601A",
"i$	c #5F6118",
"j$	c #3B2B0B",
"k$	c #3B2F0B",
"l$	c #544F12",
"m$	c #555111",
"n$	c #544F11",
"o$	c #6F6D18",
"p$	c #4A351B",
"q$	c #3B2A0B",
"r$	c #422C16",
"s$	c #39240F",
"t$	c #4A341C",
"u$	c #4D391E",
"v$	c #422D16",
"w$	c #555011",
"x$	c #412B16",
"y$	c #402A15",
"z$	c #5E6018",
"A$	c #3B2E0B",
"B$	c #4C381E",
"C$	c #412C16",
"D$	c #49341B",
"E$	c #412B15",
"F$	c #4B351D",
"G$	c #3F2912",
"H$	c #46301A",
"I$	c #4B361C",
"J$	c #4C371D",
"K$	c #46311A",
"L$	c #3A250F",
"M$	c #432F18",
"N$	c #47311B",
"O$	c #462F1A",
"P$	c #48331B",
"Q$	c #432E18",
"R$	c #3D2712",
"S$	c #3D2912",
"T$	c #4B371D",
"U$	c #432F17",
"V$	c #462F19",
"W$	c #39240E",
"X$	c #463119",
"Y$	c #4B351C",
"Z$	c #4B361D",
"`$	c #463019",
" %	c #4C381D",
".%	c #3E2812",
"+%	c #432D17",
"@%	c #48331A",
"#%	c #412C15",
"$%	c #4D391F",
"%%	c #47321A",
"&%	c #3A240F",
"*%	c #4A351C",
"=%	c #3D2812",
"-%	c #3A230F",
";%	c #452F19",
">%	c #452F18",
",%	c #4A361D",
"'%	c #463018",
")%	c #402B15",
"!%	c #402C14",
"~%	c #4C381F",
"{%	c #6A5737",
"]%	c #6B5837",
"^%	c #6F5C3D",
"/%	c #6F5D3C",
"(%	c #5E4A2D",
"_%	c #5A432A",
":%	c #402A14",
"<%	c #412B14",
"[%	c #4A331D",
"}%	c #4A321C",
"|%	c #654E31",
"1%	c #6B5836",
"2%	c #6E5B3C",
"3%	c #6E5C3B",
"4%	c #5E492D",
"5%	c #594229",
"6%	c #3F2914",
"7%	c #483018",
"8%	c #634C2F",
"9%	c #4A341B",
"0%	c #3F2B14",
"a%	c #4B371F",
"b%	c #685535",
"c%	c #695635",
"d%	c #6C5A39",
"e%	c #5C482C",
"                                                                                                                                ",
"                                                                                                                                ",
"                                                                                                                                ",
"                                                                                                                                ",
"                                                                                                                                ",
"                                                                                                                                ",
"                                                                                                                                ",
"                    . + @                                                                                                       ",
"                  # $ % & *                                                                                                     ",
"                = - ; > , ' )                                                                                                   ",
"              ! ~ { ] ^ / ( _ :                                                                                                 ",
"                < [ } | 1 2 3                                                                                                   ",
"                4 5 6 7 8 9 0                                                                                                   ",
"                a b c d e f g                                                                                                   ",
"                h i j k l m n                                                                                                   ",
"                o p q r s t u                                                                                                   ",
"                v w x y z A B                                                                                                   ",
"              C D E F G H I J K                                                                                                 ",
"                    L M N                                                                                                       ",
"                    O P Q                                                                                                       ",
"                    R S T                                                                                                       ",
"                    U S V                                                                                                       ",
"                    W X Y                                                                                                       ",
"                    Z `  .                                                                                                      ",
"                    ..+. .                                                                                                      ",
"                    @.#.$.                                                                                                      ",
"                    %.#.&.                                                                                                      ",
"                    %.*.=.                                                                                                      ",
"                    %.-.=.                                                                                                      ",
"                    ;.>.&.                                                                                                      ",
"                    ,.>.'.                                                                                                      ",
"                    ).!.~.                                                                                                      ",
"                    {.!.].                                                                                                      ",
"                    ^./.).                                                                                                      ",
"                    (._.:.                                                                                                      ",
"                    <.[.}.                                                                                                      ",
"                    |.1.2.                                                                                                      ",
"                    3.4.5.                                                                                                      ",
"                    6.7.8.                                                                                                      ",
"                    9.0.a.  b.c.d.                                                                                              ",
"                    e.f.g.h.i.j.k.l.                                                                                            ",
"                  m.n.o.p.q.r.s.t.u.v.                                                                                          ",
"                w.m.x.y.z.A.B.C.D.E.F.                                                                                          ",
"                  G.H.I.J.K.L.M.N.O.P.  Q.                                                                                      ",
"                R.R.S.T.U.V.W.X.Y.Z.`. +.+                                                                                      ",
"              w.w.d.U.++@+#+$+%+&+*+=+-+;+E.>+                                                                                  ",
"            ,+'+'+)+!+++~+{+]+^+*+/+(+_+;+:+<+                  [+                                                              ",
"          }+|+1+2+3+4+5+6+7+8+9+0+a+b+c+d+e+f+      g+h+Q.i+j+F.e+k+                                l+l+m+n+o+p+q+              ",
"        r+s+t+u+v+w+x+y+z+A+B+C+D+E+F+G+H+e+<+    I+J+K+L+L+i+M+N+N+O+                              P+Q+R+n+S+T+U+              ",
"          V+W+K.b+X+Y+Z+`+ @.@+@@@#@$@%@&@*@=@<+I+-@;@(+>@#+M+,@'@:+-+)@                          !@~@{@]@^@/@(@_@:@<@          ",
"      [@}@|@1@2@3@4@5@6@7@8@9@0@a@b@c@d@e@f@f@g@h@i@j@k@l@_+m@n@o@-@p@  q@r@                    s@t@u@v@w@x@o+y@z@A@A@          ",
"    B@:+C@D@r.E@F@G@H@H@H@I@J@K@L@M@d@#@#@N@O@-@-@P@L+k@Q@R@S@T@U@V@W@X@q@Y@                    Z@`@t@ #v@.#+#@###$#%#          ",
"    &#*#=#-#;#'+>#,#'#'#)#!#~#{#]#L@^#/#/#e@-@b+j@(#_#:#&@<#[#9@T@N@V@g@}#^+|#                  1#2#3#4#4#5#6#:@7#8#9#          ",
"0#a#R@D+p@p@p@b#c#d#e#e#f#g#h#i#i#j#i#k#l#m#9+(#M@T@9+9+n#o#T@i@p#o#p#j#q#]#]#r#s#t#u#u#u#s#s#s#v#3#w#x#y#z#A#B#C#C#D#E#E#F#G#G#",
"a#a#a#H#I#I#I#J#K#L#M#M#L#L#K#N#t#u#u#u#O#P#P#a#a#a#Q#H#I#I#J#R#R#E#E#E#E#E#s#t#t#t#u#u#S#s#a#a#v#T#x#U#V#W#X#Y#Z#`# $E#E#N#t#t#",
".$+$+$@$I##$#$$$R#R#E#%$&$*$*$=$=$-$-$u#u#O#.$.$+$+$;$;$#$#$$$R#R#E#%$&$*$*$=$=$t#t#-$u#O#.$.$.$+$;$;$@$#$#$s#s#R#E#&$*$*$*$=$t#",
">$>$>$,$'$)$)$!$~${$!$!$]$^$^$/$/$($_$_$:$<$[$[$>$>$,$,$}$)$!$~${$!$!$]$^$^$/$/$|$|$_$_$1$[$[$>$>$,$,$,$)$)$!$!${$!$]$^$^$^$/$|$",
"2$2$2$'$'$3$3$3$4$4$!$!$~$~$2$5$6$_$_$_$7$8$}$9$2$2$4$4$0$3$3$4$4$!$!$~$~$2$5$6$|$|$:$_$8$'$9$2$2$4$4$'$3$3$3$3$4$!$~$~$2$2$6$|$",
"5$5$a$'$'$2$2$b$8$8$!$3$0$0$c$6$6$_$_$'$c$8$}$}$5$a$d$d$0$2$b$8$8$!$3$e$e$c$6$6$f$f$g$g$8$'$'$5$a$d$d$'$h$h$b$b$8$!$'$'$c$c$6$f$",
"5$5$5$'$'$'$h$h$'$'$h$h$0$0$'$6$f$i$'$j$'$'$k$'$5$5$l$l$m$n$h$n$n$h$h$e$e$k$6$f$f$o$g$g$'$j$'$5$5$'$'$'$h$h$h$h$j$h$'$'$j$'$f$f$",
"'$'$j$p$q$j$'$'$j$r$r$j$j$s$t$j$'$'$j$u$k$v$v$k$w$k$p$p$k$k$n$k$x$x$k$k$s$y$k$e$z$z$A$B$j$C$j$'$j$D$D$D$j$'$'$'$x$x$j$s$E$F$'$z$",
"G$H$I$J$J$K$K$L$M$u$u$N$O$r$t$t$t$K$K$P$P$Q$R$S$H$I$T$T$J$K$E$U$u$u$N$V$x$W$t$t$j$j$X$P$P$R$S$G$Y$Z$Z$Z$`$`$y$L$ % %V$E$W$F$F$j$",
"G$.%+% %@%K$K$#%$%u$u$u$@%%%&%*%*%H$H$%%P$Q$=%S$.%+%T$T$@%K$`$$%u$u$u$@%%%-%*%*%;%>%`$%%P$=%S$G$v$,%,%T$X$X$'%)% % %%%K$-%&%Z$H$",
"I$J$!%~%~%~%E$u$u${%]%^%/%(%(%_%:%<%[%}%}%M$|%|%I$!%.%~%~%~% %u${%1%2%3%4%4%5%6%6%6%[%}%7%8%8%9%0%.%a%a%a%y$T$B$b%c%d%e%e%e%6%:%"};
