/* XPM */
static char *tile0001720724270[] = {
/* columns rows colors chars-per-pixel */
"64 64 10 1 ",
"  c #0000FF",
". c black",
"X c #0C0C0C",
"o c #0E0E0E",
"O c #161616",
"+ c #1E1E1E",
"@ c #351F1F",
"# c gray23",
"$ c #421919",
"% c #FF4747",
/* pixels */
"                                                                ",
"                                                                ",
"                                                                ",
"                                                                ",
"                                                                ",
"                                                                ",
"                                                                ",
"                                                                ",
"                                                                ",
"                                                                ",
"                                                                ",
"                                                                ",
"                                                                ",
"                                                                ",
"                                                                ",
"                                                                ",
"                                                                ",
"                                                                ",
"                                                                ",
"                                                                ",
"                             OOOOOOO                            ",
"                             OOOOOOOo                           ",
"                             OOOOOOOo                           ",
"                            OOOOOOOOo                           ",
"                           OOOOOOOOOo                           ",
"                            OOOOOOOOOo                          ",
"                             oXo$%$%                            ",
"                          %  ooo@####                           ",
"                          % Oooooo####                          ",
"                          %Ooooooooo  #                         ",
"                        %%Ooooooooooo                           ",
"                        %%OoooooooooX                           ",
"                        %%OooooooooooX                          ",
"                        %%OooooooooooX                          ",
"                        %OoooooooooooX                          ",
"                        %Oooooooo+oooo                          ",
"                        %Oooooooo++ooX                          ",
"                        ooooooooo++ooX                          ",
"                        ooooooooo++ooX                          ",
"                        ooooooooo+++oo                          ",
"                        ooooooooo+++ooo                         ",
"                       oooooooooo+++ooo                         ",
"                       ooooooooo++++oooo                        ",
"                     oooooooooo++++++oOoo                       ",
"                    oooooooooo++++++++Oo                        ",
"                    o ooooooo  +++++++oOo                       ",
"                     oo oo .o   ++  .+oo                        ",
"                            .   +    ..                         ",
"                                                                ",
"                                                                ",
"                                                                ",
"                                                                ",
"                                                                ",
"                                                                ",
"                                                                ",
"                                                                ",
"                                                                ",
"                                                                ",
"                                                                ",
"                                                                ",
"                                                                ",
"                                                                ",
"                                                                ",
"                                                                "
};
