/* XPM */
static char *G[] = {
/* columns rows colors chars-per-pixel */
"22 34 2 1 ",
"  c white",
". c None",
/* pixels */
"......................",
"......................",
"......................",
"......................",
"......................",
"......................",
"......................",
"......................",
".......          .....",
"......             ...",
".....              ...",
"....               ...",
"...      .......   ...",
"...     .........  ...",
"..     ...............",
"..     ...............",
"..     ...............",
"..    ................",
".     ................",
".     ................",
".     ......        ..",
".     ......        ..",
".     ......        ..",
".     ..........    ..",
"..    ..........    ..",
"..     .........    ..",
"..     .........    ..",
"..     .........    ..",
"...     ........    ..",
"...      ......     ..",
"....                ..",
".....               ..",
"......             ...",
".......          ....."
};
