/* XPM */
static char *Q[] = {
/* columns rows colors chars-per-pixel */
"22 39 2 1 ",
"  c white",
". c None",
/* pixels */
"......................",
"......................",
"......................",
"......................",
"......................",
"......................",
"......................",
"......................",
"......         .......",
".....            .....",
"....              ....",
"...               ....",
"...     .....      ...",
"...     ......     ...",
"..     ........    ...",
"..     ........     ..",
"..     ........     ..",
"..    .........     ..",
"..    .........     ..",
"..    .........     ..",
"..    .........     ..",
"..    .........     ..",
"..    .........     ..",
"..    .........     ..",
"..    .........     ..",
"..     ........     ..",
"..     ........     ..",
"..     ........    ...",
"...     ......     ...",
"...     .....      ...",
"...               ....",
"....              ....",
".....            .....",
"......          ......",
"...........      .....",
"............      ....",
".............      ...",
"..............     ...",
"..............   ....."
};
