/* XPM */
static char *tile0081720539040[] = {
/* columns rows colors chars-per-pixel */
"64 64 7 1 ",
"  c #0000FF",
". c #0D051B",
"X c #13042B",
"o c #2C1A49",
"O c #B14E4E",
"+ c #CEE9ED",
"@ c white",
/* pixels */
"                                                                ",
"                                                                ",
"                                                                ",
"                                                                ",
"                                                                ",
"                                                                ",
"                                                                ",
"                                                                ",
"                                                                ",
"                                                                ",
"                                                                ",
"                                                                ",
"                                                                ",
"                                                                ",
"                                                                ",
"                                                                ",
"                                                                ",
"                                                                ",
"                                                                ",
"                                                                ",
"                                                                ",
"                                                                ",
"                                                                ",
"                                                                ",
"                                                                ",
"                                                                ",
"                                                                ",
"                                                                ",
"                                                                ",
"                                                                ",
"                                                                ",
"              ...                                               ",
"             .+++  ....                                         ",
"            .+++...@@@                                          ",
"           .@@@..@@@@.                                          ",
"          .@@@@.@@@@@@.                                         ",
"         .O@++@@@@OO@@.                                         ",
"       ..O@@+@@@OOOOOOOOO.                                      ",
"     .+++@@@@@@OOOOOOOOOOO                                      ",
"     .++oo@@@@OOOOOO@@@....   ....                              ",
"     .++@@@@@@OOOOO@@@@..@@...@@@+.                             ",
"      ..@@@@@@@OOOO@@@@ooooooo@ooo@.                            ",
"       ...@@.@@@@@@@@@@ooooooo@oo....                           ",
"        .+@@.o@@@@@@@@@@ooooo@oooooo@.                          ",
"         +.@..o@oo@@@oo@@ooo@oooooooo... .                      ",
"         o....o@ooo@@@oooooooooooooo.@@@.@.                     ",
"         o.ooooooooooooooooooooooooooo@.@@..                    ",
"        ..+.ooooo.@@.@ooo..oooooooooo@ooo.@@..                  ",
"        .@.+oo.o.@@@@@oo.@@...ooooooo@ooo.oooo                  ",
"        .@@@@...@@@@@o..@@+.@@.ooooo@oooooooo...                ",
"         .@@@@@@@@@..  .@+.@@+..oooo@ooooooo..oo...             ",
"          .@@@@....    .@+.@+.@@.ooooooooooo.ooooooo.           ",
"          .....         ...@@@@+...oo.oooooo.oooooooo.          ",
"                           ..@+.@@.ooo.oooooo.oooooooo.         ",
"                            .@+@@+. .o..oooooo.oooooooo..       ",
"                             .@@+.    ...oooooo.ooooooooo.      ",
"                             .@+.      X .ooooo@..oooooooo..  . ",
"                              ..        X ....@@@@.ooooooooo... ",
"                                              ..@@@.ooooooooo.  ",
"                                                .@@@...o.oooo.  ",
"                                                 ..@@. . ....   ",
"                                                  ...           ",
"                                                                ",
"                                                                "
};
