/* XPM */
static char *tile0151720539085[] = {
/* columns rows colors chars-per-pixel */
"64 64 8 1 ",
"  c #0000FF",
". c #8F8C96",
"X c #928B9D",
"o c #9E95AB",
"O c #DBADAD",
"+ c #B0DFE6",
"@ c #E8F4F6",
"# c white",
/* pixels */
"                                                                ",
"                                                                ",
"                                                                ",
"                                                                ",
"                                                                ",
"                                                                ",
"                                                                ",
"                                                                ",
"                                                                ",
"                                                                ",
"                                                                ",
"                                                                ",
"                                                                ",
"                                                                ",
"                                                                ",
"                                                                ",
"                                                                ",
"                                                                ",
"                                                                ",
"                                                                ",
"                                                                ",
"                                                                ",
"                                                                ",
"                                                                ",
"                                                                ",
"                                                                ",
"                                                                ",
"                                                                ",
"                                                                ",
"                                                                ",
"                                                                ",
"                                                                ",
"                                                                ",
"                                                                ",
"                                                                ",
"                                                                ",
"                                                                ",
"                                                                ",
"                                                                ",
"                                                                ",
"                                                                ",
"                                                                ",
"                                                                ",
"                               .  .                             ",
"                 ..    .... ...@####.                           ",
"                .@@. ..#.##.##########.                         ",
"               .@@@..###.o#.###########.. .    ....             ",
"              .@@#.#####.oo##############.#.. .oooo..           ",
"             .####.######.o.############o####..oooooo.          ",
"             .##@########..##############ooooo..oooooo.         ",
"            .##@##########X##############oooooo....oooo.        ",
"          ..OO#@####OOO###o##############oooo.ooo..oooo.        ",
"         .@@######OOOO###oo##############oooooooooooooo.        ",
"        .@.oo###########oooo############ooooooooooooooo.        ",
"        .@@############ooooo############ooo.ooooooooooo.        ",
"         .@############.ooooo##########oooo.ooooo.oooo.         ",
"          ...##. #######.ooooo########.oooo.ooooo.oo..          ",
"           .@.#.. ##X####.oooo.o####o.XXXXX .oooo....           ",
"            .@.#.. #XXX##.ooooo..    .XXXXX  .oooo.             ",
"             ..... .XXX.  .oooo.      .XXX.  .oooo.             ",
"                   .XXX.  .oooo.      .XX.    .ooo.             ",
"                  ..@@.. .#@#oo.     .X@X.     .###.            ",
"                 .@+@@@..#@#@#.      .@+@@.    .#@#.            ",
"                .@+@@@@..#@###.     .@+@@@.   .#@###.           "
};
