/* XPM */
static char *tile0171720539086[] = {
/* columns rows colors chars-per-pixel */
"64 64 8 1 ",
"  c #0000FF",
". c #140C22",
"X c #1A0B31",
"o c #32214E",
"O c #B35353",
"+ c #58BCCB",
"@ c #CFE9ED",
"# c white",
/* pixels */
"                                                                ",
"                                                                ",
"                                                                ",
"                                                                ",
"                                                                ",
"                                                                ",
"                                                                ",
"                                                                ",
"                                                                ",
"                                                                ",
"                                                                ",
"                                                                ",
"                                                                ",
"                                                                ",
"                                                                ",
"                                                                ",
"                                                                ",
"                                                                ",
"                                                                ",
"                                                                ",
"                                                                ",
"                                                                ",
"                                                                ",
"                                                                ",
"                                                                ",
"                                                                ",
"                                                                ",
"                                                                ",
"                                                                ",
"                                                                ",
"                                                                ",
"                                                                ",
"                                                                ",
"                                                                ",
"                                                                ",
"                                                                ",
"                                                                ",
"                        #                                       ",
"                       ###                                      ",
"                        #                                       ",
"           ..    ..                                             ",
"          .@@. ..#.                       ##                    ",
"         .@@@..###.                      ##                     ",
"        .@@#.#####.       .                                     ",
"       .####.######. ..  .#.   .  .                             ",
"       .##@########..#...##....@..@.. .                         ",
"      .O#@###########..oooo###...#..#.#.. .                     ",
"    ..O##@##########.. ooooo#o######o####.#..                   ",
"   .@@#####OOOO######..oooooo#oo#oo##oooo####..                 ",
"  .@.oo###OOOOO######oooooooo#ooo#oo#oooooooooo..         ...   ",
"  .@@###############ooooXooooo#oo#oo#oooooooooooo.      ..oo.   ",
"   .@################ooooXoooo#oo#oo#oooooooo.oooo..   ..oooo.  ",
"    ...##.o########o###ooXoooo#oo#oo#ooooooooo.ooooo...ooooo.   ",
"     .@.#..o##o####oooooooXooo#o#oo#oooooooooo.oooooooooooo.    ",
"      .@.#..o#ooo###ooooooo.o#o#oo#ooooo.ooooo.oooooooooo..     ",
"       ........XXXX...ooooo.#oooooooooo..ooooo...ooooooo.       ",
"                 .XXX..ooooo.oooooooo..X.ooooo. ...ooo...       ",
"                 .XXX. .oooo.oooo....XXXX.oooo.    ...          ",
"                  .XXX..ooooo....  .XXXXX .oooo.                ",
"                  .XXX. .oooo.      .XXX. .oooo.                ",
"                  .XXX. ##ooo.      .XX.   .ooo.                ",
"                 ..@@.###@#oo.     .X@X.    .###.               ",
"                .@+@@@.#@#@#.      .@+@@.   .###.               ",
"               .@+@@@@.#@###.     .@+@@@.  .#@###.              "
};
