/* XPM */
static char *tile0141720539085[] = {
/* columns rows colors chars-per-pixel */
"64 64 8 1 ",
"  c #0000FF",
". c #D2D0D4",
"X c #D3D0D7",
"o c #D8D4DD",
"O c #F0DEDE",
"+ c #DFF2F5",
"@ c #F5FAFB",
"# c white",
/* pixels */
"                                                                ",
"                                                                ",
"                                                                ",
"                                                                ",
"                                                                ",
"                                                                ",
"                                                                ",
"                                                                ",
"                                                                ",
"                                                                ",
"                                                                ",
"                                                                ",
"                                                                ",
"                                                                ",
"                                                                ",
"                                                                ",
"                                                                ",
"                                                                ",
"                                                                ",
"                                                                ",
"                                                                ",
"                                                                ",
"                                                                ",
"                                                                ",
"                                                                ",
"                                                                ",
"                                                                ",
"                                                                ",
"                                                                ",
"                                                                ",
"                                                                ",
"                                                                ",
"                                                                ",
"                                                                ",
"                                                                ",
"                                                                ",
"                                                                ",
"                                                                ",
"                                                                ",
"                                                                ",
"                                                                ",
"                                                                ",
"               ..    ..                                         ",
"              .@@. ..#.                                         ",
"             .@@@..###.  ..                     ..              ",
"            .@@#.#####...##.   .  .   .         .oo.            ",
"           .####.######.o......@..@.. #.. .     .ooo.           ",
"           .##@########..#.###...#..#.###.#..   .oooo.          ",
"          .O#@###########.oo#o######o#ooo####..  .ooo.          ",
"        ..O##@####OOO###..ooo#oo#oo##oooooooooo.  .ooo.         ",
"       .@@######OOOO#####X.oo#ooo#oo#ooooooooooo. .oooo.        ",
"      .@.oo####OOOOO#####o.ooo#oo#oo#oooooooo.ooo..oooo.        ",
"      .@@###############ooXooo#oo#oo#oooooooooooooooooo.        ",
"       .@##############oooo.oo#oo#oo#oooooooooooooooooo.        ",
"        ...##.o#######oooooo.o#o#oo#oooooo.oooooooooooo.        ",
"         .@.#...##.###.ooooo.#o#oo#ooooooo.ooooo.ooooo.         ",
"          .@.#.. #XXX##.ooooo.oooooooo.ooo.ooooo..oo..          ",
"           ..... .XX..  .oooo.ooooooo.X.XX .oooo. ...           ",
"                  .XXX. .ooooo...   .XXXXX  .oooo.              ",
"                  .XXX.  .oooo.      .XX..  .oooo.              ",
"                  .XX..  .oooo.      .XX.    .ooo.              ",
"                 ..@@.. .#@#oo.     .X@X.     .###.             ",
"                .@+@@@..#@#@#.      .@+@@.    .#@#.             ",
"               .@+@@@@..#@###.     .@+@@@.   .#@###.            "
};
