/* XPM */
static char *tile0161720539085[] = {
/* columns rows colors chars-per-pixel */
"64 64 8 1 ",
"  c #0000FF",
". c #3B3546",
"X c #403453",
"o c #54466B",
"O c #BF7070",
"+ c #74C7D4",
"@ c #D7EDF0",
"# c white",
/* pixels */
"                                                                ",
"                                                                ",
"                                                                ",
"                                                                ",
"                                                                ",
"                                                                ",
"                                                                ",
"                                                                ",
"                                                                ",
"                                                                ",
"                                                                ",
"                                                                ",
"                                                                ",
"                                                                ",
"                                                                ",
"                                                                ",
"                                                                ",
"                                                                ",
"                                                                ",
"                                                                ",
"                                                                ",
"                                                                ",
"                                                                ",
"                                                                ",
"                                                                ",
"                                                                ",
"                                                                ",
"                                                                ",
"                                                                ",
"                                                                ",
"                                                                ",
"                                                                ",
"                                                                ",
"                                                                ",
"                                                                ",
"                                                                ",
"                                                                ",
"                                                                ",
"                                                                ",
"                                                                ",
"                                                                ",
"                                                                ",
"               ..    ..                                         ",
"              .@@. ..#.                                         ",
"             .@@@..###.  ..     ####            ..              ",
"            .@@#.#####...##.  ##  . ##.         .oo.            ",
"           .####.######.o....#.@..@.. #.. .     .ooo.           ",
"           .##@########..#.###...#..#.###.#..   .oooo.          ",
"          .O#@###########.oo#o######o#o#o####..  .ooo.          ",
"        ..O##@####OOO###..o#o#oo#oo##ooo#oooooo.  .ooo.         ",
"       .@@######OOOO#####X.#o#ooo#oo#ooo#ooooooo. .oooo.        ",
"      .@.oo####OOOOO#####oX#oo#oo#oo#ooo#oooo.ooo..oooo.        ",
"      .@@###############ooX#oo#oo#oo#ooo#oooooooooooooo.        ",
"       .@##############ooooX#o#oo#oo#oo#ooooooooooooooo.        ",
"        ...##.o#######oooooo#o#o#oo#ooo#oo.oooooooooooo.        ",
"         .@.#..X##X###.ooooo.#o#oo#ooo#ooo.ooooo.ooooo.         ",
"          .@.#.. #XXX##.ooooo.##oooo##.ooo.ooooo..oo..          ",
"           ..... .XXX.  .oooo.oo####o.XXXX .oooo. ...           ",
"                  .XXX. .ooooo...   .XXXXX  .oooo.              ",
"                  .XXX.  .oooo.      .XXX.  .oooo.              ",
"                  .XXX.  .oooo.      .XX.    .ooo.              ",
"                 ..@@.. .#@#oo.     .X@X.     .###.             ",
"                .@+@@@..#@#@#.      .@+@@.    .#@#.             ",
"               .@+@@@@..#@###.     .@+@@@.   .#@###.            "
};
