/* XPM */
static char *alt6[] = {
/* columns rows colors chars-per-pixel */
"32 16 2 1 ",
"  c #0000FF",
". c white",
/* pixels */
"   .........................    ",
"  .                         .   ",
" .                           .  ",
" .                           .  ",
" .         .. .   ...        .  ",
"..        . . .    .         .. ",
"..        ... .    .         .. ",
"..        . .  ..  .         .. ",
"..                           .. ",
"..                           .. ",
"...                         ... ",
"............................... ",
"............................... ",
" .............................  ",
" .............................  ",
"   .........................    "
};
