/* XPM */
static char *tile0011720725739[] = {
/* columns rows colors chars-per-pixel */
"80 64 9 1 ",
"  c #0000FF",
". c gray7",
"X c #181818",
"o c #1E1E1E",
"O c #2A2A2A",
"+ c #2F2F2F",
"@ c #474646",
"# c #ACACAC",
"$ c #F1FBFF",
/* pixels */
"                                                                                ",
"                                                                                ",
"                                                                                ",
"                                                                                ",
"                                                                                ",
"                                                                                ",
"                                                                                ",
"                                                                                ",
"                                                                                ",
"                                                                                ",
"                                                                                ",
"                                                                                ",
"                                                                                ",
"                                                                                ",
"                                                                                ",
"                                                                                ",
"                                                                                ",
"                                                                                ",
"                                                                                ",
"                 OOO                                                            ",
"                  OOOO                                                          ",
"                   OOO                                                          ",
"                   OO++++++ +                                                   ",
"                   ++++++++++                                                   ",
"             +++  ++++++##++++                                                  ",
"             ++++++++++###++++                                                  ",
"             +@@+++++#+++++++                                                   ",
"             +@@@++####++++++                                                   ",
"              +@+++++#+++++oo   ooo                                             ",
"              ++++++++++++Ooooooooo                                             ",
"              +++++++++++OOooooooooo                                            ",
"              ++++++++++OOOoooooooo                                             ",
"              ++++++++++O+ooooooooooo                                           ",
"                ++++++ooo+.....ooooo                                            ",
"                 +$++oooooo++..ooooo                                            ",
"                   $ooooooo+$...oooo                                            ",
"                    oooooXoo$....ooo                                            ",
"                    oooooXooo.....oo+                                           ",
"                     oooooXoo.....ooo                                           ",
"                     ooooooXoo.....oo                                           ",
"                     ooooooXooo.....ooo                                         ",
"                      oooo+++ooo.....ooo                                        ",
"                        oo++++oo......oooo                                      ",
"                         X++++ooo......oooo                                     ",
"                         Xoooooooo......oooo                                    ",
"                           ooooooo......oooo                                    ",
"                            $oooooo.....ooooo                                   ",
"                             $ooooooo....oooo                                   ",
"                              oooooooo....o o                                   ",
"                               oooooo  ...                                      ",
"                               ooooo                                            ",
"                               ooo                                              ",
"                                                                                ",
"                                                                                ",
"                                                                                ",
"                                                                                ",
"                                                                                ",
"                                                                                ",
"                                                                                ",
"                                                                                ",
"                                                                                ",
"                                                                                ",
"                                                                                ",
"                                                                                "
};
