/* XPM */
static char *tile0021720725739[] = {
/* columns rows colors chars-per-pixel */
"80 64 9 1 ",
"  c #0000FF",
". c gray7",
"X c #181818",
"o c #1E1E1E",
"O c #2A2A2A",
"+ c #2F2F2F",
"@ c #474646",
"# c #8E8E8E",
"$ c #F1FBFF",
/* pixels */
"                                                                                ",
"                                                                                ",
"                                                                                ",
"                                                                                ",
"                                                                                ",
"                                                                                ",
"                                                                                ",
"                                                                                ",
"                                                                                ",
"                                                                                ",
"                                                                                ",
"                                                                                ",
"                                                                                ",
"                                                                                ",
"                                                                                ",
"                                                                                ",
"                                                                                ",
"                                                                                ",
"                                                                                ",
"                                                                                ",
"                                                                                ",
"                                                                                ",
"                                                                                ",
"                                                                                ",
"                                                                                ",
"                                                                                ",
"                                                                                ",
"                                                                                ",
"                                                                                ",
"               ++                                                               ",
"      OOO   ++++++                                                              ",
"    OOOOOO++++++++     o                                                        ",
"       OO++++####+    oooo                                                      ",
"        O+++####+++  ooooo                                                      ",
"        ++++++++++oooooooooo                                                    ",
"        +++#+++++Ooooooooooo                                                    ",
"      +++++##++++Ooooooooooo                                                    ",
"    ++++++###++++Oooo....oooo o                                                 ",
"   +++@@++++++++OOoo......ooooooo                                               ",
"    +@@@++++++++OO+..+.......ooooo                                              ",
"     +@@+++++++++ooooo........ooooo o                                           ",
"      ++++++++++oooooooooo.......oooooo                                         ",
"       ++++++++ooooXoooooooo.......oooooo                                       ",
"       ++++++++oooooXXooooooo........ooooo                                      ",
"        ++++$$$ooooooXXXoooooo........oooo                                      ",
"               ooooooooXooooooooo......o                                        ",
"                ooooooo++++oooooooo.....                                        ",
"                 oooooo++++ooooooooo....                                        ",
"                  ooooo++ooooooooooo                                            ",
"                       Xoooooooooooo                                            ",
"                           $$oooooo                                             ",
"                              ooooo                                             ",
"                                                                                ",
"                                                                                ",
"                                                                                ",
"                                                                                ",
"                                                                                ",
"                                                                                ",
"                                                                                ",
"                                                                                ",
"                                                                                ",
"                                                                                ",
"                                                                                ",
"                                                                                "
};
