/* XPM */
static char *tile0041720725740[] = {
/* columns rows colors chars-per-pixel */
"80 64 9 1 ",
"  c #0000FF",
". c gray7",
"X c #181818",
"o c #1E1E1E",
"O c #2A2A2A",
"+ c #2F2F2F",
"@ c #414141",
"# c #474646",
"$ c #F1FBFF",
/* pixels */
"                                                                                ",
"                                                                                ",
"                                                                                ",
"                                                                                ",
"                                                                                ",
"                                                                                ",
"                                                                                ",
"                                                                                ",
"                                                                                ",
"                                                                                ",
"                                                                                ",
"                                                                                ",
"                                                                                ",
"                                                                                ",
"                                                                                ",
"                                                                                ",
"                                                                                ",
"                                                                                ",
"                                                                                ",
"                                                                                ",
"                                                                                ",
"                                                                                ",
"                                                                                ",
"                                                                                ",
"                                                                                ",
"                                                                                ",
"                                                                                ",
"                                                                                ",
"                                                                                ",
"                                                                                ",
"                                                                                ",
"                                                                                ",
"                                                                                ",
"                                                                                ",
"                                                                                ",
"                                                                                ",
"                                                                                ",
"         oo                                                                     ",
"         +o+                                                                    ",
"         +o+   oooooooooooooo                                                   ",
"      ++@+o+oOooo........oooooooo                                               ",
"   +o++@+++++Ooo...............ooo                                              ",
"   +++++@++++Ooo.+................o                                             ",
" O+++O+@+++++O+.ooo.oooo...........o                                            ",
" +++OO++++++++oooooooooooo.........                                             ",
"   ++++++++++ooooooooooooooooooo....                                            ",
"  +++++++++++oooXXXXXoooooooooooo...                                            ",
"  +++++++++++oooooXXXoo+ooooooooooo.                                            ",
" ++##++++++++ooooooo++++oooooooooooo                                            ",
" ++##++++++$$oooooooo++oooooooooooooo                                           ",
"   +++++++    ooooooo+ooooooooooooooo                                           ",
"                                                                                ",
"                                                                                ",
"                                                                                ",
"                                                                                ",
"                                                                                ",
"                                                                                ",
"                                                                                ",
"                                                                                ",
"                                                                                ",
"                                                                                ",
"                                                                                ",
"                                                                                ",
"                                                                                "
};
