/* XPM */
static char * Door0_xpm[] = {
"64 64 12 1",
" 	c #140E0E",
".	c #312220",
"+	c #3F3628",
"@	c #231F19",
"#	c #1A1512",
"$	c #BB7A35",
"%	c #9A5D1D",
"&	c #C5894A",
"*	c #C3884A",
"=	c #332421",
"-	c #C28749",
";	c #C08649",
"                                                                ",
"  ..+++++  ++.....@@.......++++++ +++....@@@.......++++ ++++..  ",
"  .......  ........#............. ........##........... ......  ",
"  .......  ........#............. ........##........... ......  ",
"  .......  ........#@@........... ........##@.......... ......  ",
"  @@@@@@@@@@###   ####@@@@@@@@@@@@@###+++++++@@@@@@@@@@@@@@##   ",
"  + ...+++++.##....+++++++ ..++++++..#.......++++  .+++++++.#.  ",
"  + ...+++++.##....+++++++ ..++++++..#.......++++  .+++++++.#.  ",
"  . .........##........... ..........#...........  .........#.  ",
"  .@.........  @..........@.......... @@.........@@......... @  ",
"  .@.........  @..........@.......... @@.........@@......... @  ",
"  .@.........  @..........@.......... @@.........@@......... @  ",
"  @@@@@@@@@@   @@@####@@@@@@@@@@@@@   @@@####@@@@@@@@@@@@@@  @  ",
"  +....@@......+++@...++++...@@@@.....+++@...++++...@@@......+  ",
"  ......@.........@...........@@@........@...........@@.......  ",
"  ......@.........@...........@@@........@...........@@.......  ",
"  ...... ......... ...........   ........ ...........  .......  ",
"  @@#####             @@@@@######            @@@@@@####         ",
"  @......++++  ++++......@.......++++ ++++......@......+++++ +  ",
"  @......++++  ++++......@.......++++ ++++......@......+++++ +  ",
"  @..........  ..........@........... ..........@........... .  ",
"  @@.........@@..........@@..........@..........@@@.........@.  ",
"  @@.........@@..........@@..........@..........@@@.........@.  ",
"  #####     @@@ @@@@@@@+++++++     @@@  @@@@@@@@####       @@   ",
"  ..+++++  ++.....@@..........+++ +++....@@@.......++++ ++++..  ",
"  .......  ........#............. ........##........... ......  ",
"  .......  ........#............. ........##........... ......  ",
"  .......  ........#@@........... ........##@.......... ......  ",
"  @@@@@@@@ @###   ####@@@@@@@@@@@@@###   ####@@@@@@@@@@@@@@##   ",
"  @@@@@@$$ @###   ####@@@@@@@@@@@@@###   ####@@@@@@@@@@@@@@##   ",
"  + ... %  +.##....+++++++ ..++++++..#....+++++++  .+++++++.#.  ",
"  . ... %% ..##........... ..........#...........  .........#.  ",
"  .@...$$% ..  @..........@.......... @@.........@@......... @  ",
"  .@...$%  ..  @..........@.......... @@.........@@......... @  ",
"  @@@@&%@@@@   @@@####@@@@@@@@@@@@@   @@@####@@@@@@@@@@@@@@  @  ",
"  +...*%=......+++@...++++...@@@@.....+++@...++++...@@@......+  ",
"  +...-$.......+++@...++++...@@@@.....+++@...++++...@@@......+  ",
"  +...;$%......+++@...++++...@@@@.....+++@...++++...@@@......+  ",
"  .....$$.........@...........@@@........@...........@@.......  ",
"  ......$$ ....... ...........   ........ ...........  .......  ",
"  @@####$%            @@@@@######            @@@@@@####         ",
"  @@###  %            @@@@@######            @@@@@@####         ",
"  @.....   ++  ++++......@.......++++ ++++......@......+++++ +  ",
"  @..........  ..........@........... ..........@........... .  ",
"  @..........  ..........@........... ..........@........... .  ",
"  @@.........@@..........@@..........@..........@@@.........@.  ",
"  #####     @@@ @@@@+++++++##      @@@  @@@@@@@@####       @@   ",
"  ..+++++  ++.....@@.......++++++ +++....@@@.......++++ ++++..  ",
"  ..+++++  ++.....@@.......++++++ +++....@@@.......++++ ++++..  ",
"  .......  ........#............. ........##........... ......  ",
"  .......  ........#@@........... ........##@.......... ......  ",
"  .......  ........#@@........... ........##@.......... ......  ",
"  @@@@@@@@@@###   ####@@@@@@@@@@@@@###   ####@@@@@@@@@@@@@@##   ",
"  + ...+++++.##....+++++++ ..++++++..#....+++++++  .+++++++.#.  ",
"  . .........##........... ..........#...........  .........#.  ",
"  . .........##........... ..........#...........  .........#.  ",
"  .@.........  @..........@.......... @@.........@@......... @  ",
"  @@@@@@@@@@   @@@####@@@@@@@@@@@@@   @@@####@@@@@@@@@@@@@@  @  ",
"  +++++@@......+++@...++++...@@@@.....+++@...++++...@@@......+  ",
"  +++++@@......+++@...++++...@@@@.....+++@...++++...@@@......+  ",
"  .....+@.........@...........@@@........@...........@@.......  ",
"  ...... ......... ...........   ........ ...........  .......  ",
"  ...... ......... ...........   ........ ...........  .......  ",
"                                                                "};
