/* XPM */
static char *tile0031720725916[] = {
/* columns rows colors chars-per-pixel */
"80 64 9 1 ",
"  c #0000FF",
". c #060606",
"X c gray7",
"o c #181818",
"O c #1E1E1E",
"+ c #2A2A2A",
"@ c #2F2F2F",
"# c #474646",
"$ c #F1FBFF",
/* pixels */
"                                                                                ",
"                                                                                ",
"                                                                                ",
"                                                                                ",
"                                                                                ",
"                                                                                ",
"                                                                                ",
"                                                                                ",
"                                                                                ",
"                                                                                ",
"                                                                                ",
"                                                                                ",
"                                                                                ",
"                                                                                ",
"                                                                                ",
"                                      @     +                                   ",
"                                     @@@    ++                                  ",
"                                    @#@    ++                                   ",
"                                   @##@   +++                                   ",
"                                   @##@@@@+++                                   ",
"                                  @###@@@@@@@                                   ",
"                                 @@@#@@@@@@@@@                                  ",
"                                 @@@@@@@@@@@@@                                  ",
"                                 @@@@@@@@$@@$@                                  ",
"                                 @@@@@@@@@$@@$                                  ",
"                                  @@@@@@@@$@@$                                  ",
"                                  @@@@@@@@@@@@@@                                ",
"                                  $@@@@@@@@@@@@OO                               ",
"                                  $$@@@@@@@@@OOOO                               ",
"                                  $OOOO+++@@@@@@                                ",
"                                  OOOO+++++++                                   ",
"                                  OOOOo@@+++OO                                  ",
"                                 OOOOOo@XXXOOO                                  ",
"                                 OOOOOoO@XOOOO                                  ",
"                                 OOOOOoOX@XOOO                                  ",
"                                 OOOOOoOX$XOOO                                  ",
"                                 OOOOOoO$XXOOO                                  ",
"                                 OOOOOoOX$XOOO                                  ",
"                                  OOOOoOXXXOOO                                  ",
"                                  o@@@OOXXXOOO                                  ",
"                                  O@@@@OXXXOO@                                  ",
"                                 OOO@@@OXXXOO@                                  ",
"                                 OOO@@@OXXXOO@                                  ",
"                                 OOOOOOXXXXXO                                   ",
"                                 OOOOOXXXXXXO                                   ",
"                                 OOOOXXXXXXXO                                   ",
"                                 OOOOOXXXXXXOO                                  ",
"                                 OOOOOXXXXX.OO                                  ",
"                                 OOOOOXXXXX.OO                                  ",
"                                OOOOOOXXXXXXOO                                  ",
"                               OOOOOOO.XXXXXOO                                  ",
"                               OOOOOOO.XXX XOOO                                 ",
"                                                                                ",
"                                                                                ",
"                                                                                ",
"                                                                                ",
"                                                                                ",
"                                                                                ",
"                                                                                ",
"                                                                                ",
"                                                                                ",
"                                                                                ",
"                                                                                ",
"                                                                                "
};
