/* XPM */
static char * forest2_xpm[] = {
"64 64 395 2",
"  	c #16303C",
". 	c #1B303C",
"+ 	c #1E303C",
"@ 	c #20303C",
"# 	c #23303C",
"$ 	c #22303C",
"% 	c #6A3A4C",
"& 	c #252F3C",
"* 	c #282F3C",
"= 	c #2A2F3C",
"- 	c #6B3A4C",
"; 	c #483045",
"> 	c #2B2F3D",
", 	c #2B2F3C",
"' 	c #292F3C",
") 	c #2C2F3D",
"! 	c #6C3A4C",
"~ 	c #2F2F3D",
"{ 	c #2D2F3D",
"] 	c #4A3045",
"^ 	c #2D2F3C",
"/ 	c #2E2F3D",
"( 	c #302F3D",
"_ 	c #6D394C",
": 	c #322F3D",
"< 	c #4C3045",
"[ 	c #312F3D",
"} 	c #332F3D",
"| 	c #6D394B",
"1 	c #6E394B",
"2 	c #362E3D",
"3 	c #342E3D",
"4 	c #352E3D",
"5 	c #4E2F45",
"6 	c #4D2F45",
"7 	c #372E3D",
"8 	c #382E3D",
"9 	c #392E3D",
"0 	c #6F394B",
"a 	c #4F2F45",
"b 	c #502F45",
"c 	c #6F384B",
"d 	c #512F45",
"e 	c #3B2E3D",
"f 	c #3A2E3D",
"g 	c #522E45",
"h 	c #70384B",
"i 	c #3C2E3D",
"j 	c #3D2D3D",
"k 	c #522E44",
"l 	c #98444A",
"m 	c #3E2D3D",
"n 	c #532E44",
"o 	c #70374A",
"p 	c #3F2D3D",
"q 	c #3F2D3C",
"r 	c #98434A",
"s 	c #984349",
"t 	c #402D3D",
"u 	c #402D3C",
"v 	c #542E44",
"w 	c #412D3C",
"x 	c #974349",
"y 	c #552E44",
"z 	c #552D44",
"A 	c #422D3C",
"B 	c #71374A",
"C 	c #974249",
"D 	c #D05650",
"E 	c #422C3C",
"F 	c #71364A",
"G 	c #432C3C",
"H 	c #442C3C",
"I 	c #70364A",
"J 	c #713649",
"K 	c #CF5650",
"L 	c #964249",
"M 	c #CF564F",
"N 	c #964148",
"O 	c #CE554F",
"P 	c #452C3C",
"Q 	c #562D43",
"R 	c #572D43",
"S 	c #CD554F",
"T 	c #462C3C",
"U 	c #462B3C",
"V 	c #713549",
"W 	c #703549",
"X 	c #954148",
"Y 	c #CD544E",
"Z 	c #CD544F",
"` 	c #572C43",
" .	c #954048",
"..	c #CB544E",
"+.	c #CC544E",
"@.	c #472B3C",
"#.	c #472B3B",
"$.	c #462B3B",
"%.	c #713548",
"&.	c #703548",
"*.	c #954047",
"=.	c #CB534E",
"-.	c #944047",
";.	c #CA534E",
">.	c #482B3B",
",.	c #703448",
"'.	c #713448",
").	c #582C42",
"!.	c #582B42",
"~.	c #C9524D",
"{.	c #943F47",
"].	c #C9534D",
"^.	c #482A3B",
"/.	c #703447",
"(.	c #492A3B",
"_.	c #933F47",
":.	c #C8524D",
"<.	c #492A3A",
"[.	c #703347",
"}.	c #933F46",
"|.	c #482A3A",
"1.	c #933E46",
"2.	c #C7514C",
"3.	c #C7524D",
"4.	c #923E46",
"5.	c #C6514C",
"6.	c #49293A",
"7.	c #582A41",
"8.	c #6F3347",
"9.	c #703346",
"0.	c #4A2A3A",
"a.	c #6F3346",
"b.	c #592A41",
"c.	c #C5504C",
"d.	c #6F3246",
"e.	c #C4504C",
"f.	c #913D45",
"g.	c #4A293A",
"h.	c #C5504B",
"i.	c #C4504B",
"j.	c #C44F4B",
"k.	c #C34F4B",
"l.	c #582A40",
"m.	c #903D45",
"n.	c #4A2939",
"o.	c #6F3245",
"p.	c #582940",
"q.	c #492939",
"r.	c #8F3C44",
"s.	c #C24F4A",
"t.	c #C24F4B",
"u.	c #4A2839",
"v.	c #492839",
"w.	c #6E3145",
"x.	c #C14E4A",
"y.	c #C04E4A",
"z.	c #8E3C44",
"A.	c #6E3144",
"B.	c #58293F",
"C.	c #6D3144",
"D.	c #6D3145",
"E.	c #8E3B44",
"F.	c #57293F",
"G.	c #BF4D49",
"H.	c #8D3B43",
"I.	c #492738",
"J.	c #4A2838",
"K.	c #492838",
"L.	c #6D3044",
"M.	c #57283F",
"N.	c #BE4D49",
"O.	c #4A2738",
"P.	c #BD4C49",
"Q.	c #8C3A43",
"R.	c #6C3043",
"S.	c #6D3043",
"T.	c #BD4C48",
"U.	c #57283E",
"V.	c #8C3A42",
"W.	c #BC4C48",
"X.	c #8B3A42",
"Y.	c #BB4B48",
"Z.	c #BC4B48",
"`.	c #492737",
" +	c #6B2F43",
".+	c #6C2F43",
"++	c #57273D",
"@+	c #57273E",
"#+	c #4A2737",
"$+	c #4A2637",
"%+	c #6C2F42",
"&+	c #8B3942",
"*+	c #492637",
"=+	c #8A3942",
"-+	c #BA4B47",
";+	c #8A3941",
">+	c #6B2F42",
",+	c #B94A47",
"'+	c #B94B47",
")+	c #6B2E42",
"!+	c #56273D",
"~+	c #6A2F42",
"{+	c #6A2E42",
"]+	c #893941",
"^+	c #893841",
"/+	c #B84A47",
"(+	c #B84A46",
"_+	c #492636",
":+	c #6A2E41",
"<+	c #B74A46",
"[+	c #55263C",
"}+	c #55263D",
"|+	c #56263C",
"1+	c #893840",
"2+	c #883840",
"3+	c #883841",
"4+	c #B74946",
"5+	c #492536",
"6+	c #873840",
"7+	c #B64946",
"8+	c #482536",
"9+	c #692D41",
"0+	c #692D40",
"a+	c #692E41",
"b+	c #873740",
"c+	c #B64945",
"d+	c #B54845",
"e+	c #492535",
"f+	c #B54945",
"g+	c #B44845",
"h+	c #86373F",
"i+	c #482535",
"j+	c #682D40",
"k+	c #54253B",
"l+	c #B34845",
"m+	c #482435",
"n+	c #B24744",
"o+	c #85363E",
"p+	c #54253A",
"q+	c #472434",
"r+	c #672C3F",
"s+	c #84363E",
"t+	c #84363F",
"u+	c #482434",
"v+	c #B14744",
"w+	c #472435",
"x+	c #B04643",
"y+	c #662C3E",
"z+	c #53243A",
"A+	c #472334",
"B+	c #462434",
"C+	c #52243A",
"D+	c #662C3F",
"E+	c #83353E",
"F+	c #83363E",
"G+	c #82353D",
"H+	c #652B3E",
"I+	c #522439",
"J+	c #462334",
"K+	c #462333",
"L+	c #652B3D",
"M+	c #AE4542",
"N+	c #81353D",
"O+	c #81343D",
"P+	c #AD4542",
"Q+	c #642B3D",
"R+	c #642A3D",
"S+	c #452333",
"T+	c #462332",
"U+	c #512338",
"V+	c #AC4441",
"W+	c #AC4442",
"X+	c #80343C",
"Y+	c #462233",
"Z+	c #452232",
"`+	c #AB4441",
" @	c #462232",
".@	c #502337",
"+@	c #632A3C",
"@@	c #442232",
"#@	c #7F333B",
"$@	c #502338",
"%@	c #AA4341",
"&@	c #7E333B",
"*@	c #A94340",
"=@	c #AA4340",
"-@	c #61293B",
";@	c #4F2237",
">@	c #442131",
",@	c #7D323A",
"'@	c #A84240",
")@	c #7D323B",
"!@	c #A74240",
"~@	c #7C323A",
"{@	c #4F2236",
"]@	c #A7423F",
"^@	c #452131",
"/@	c #4E2236",
"(@	c #60293B",
"_@	c #432131",
":@	c #442130",
"<@	c #432130",
"[@	c #7B323A",
"}@	c #60293A",
"|@	c #60283A",
"1@	c #7B3139",
"2@	c #7B313A",
"3@	c #A6423F",
"4@	c #A6413F",
"5@	c #A5413F",
"6@	c #7B3239",
"7@	c #4E2136",
"8@	c #4D2135",
"9@	c #5F2839",
"0@	c #4E2135",
"a@	c #422030",
"b@	c #432030",
"c@	c #7A3139",
"d@	c #5F283A",
"e@	c #793139",
"f@	c #A3403E",
"g@	c #4C2135",
"h@	c #5D2738",
"i@	c #4C2134",
"j@	c #4C2034",
"k@	c #4D2034",
"l@	c #41202F",
"m@	c #411F2F",
"n@	c #783038",
"o@	c #5E2739",
"p@	c #5D2739",
"q@	c #5E2738",
"r@	c #773038",
"s@	c #4B2034",
"t@	c #421F2F",
"u@	c #42202F",
"v@	c #5C2638",
"w@	c #401F2E",
"x@	c #401F2F",
"y@	c #4B2033",
"z@	c #5C2738",
"A@	c #762F37",
"B@	c #752F37",
"C@	c #4A2033",
"D@	c #411F2E",
"E@	c #5C2637",
"F@	c #5B2637",
"G@	c #4A1F32",
"H@	c #401E2D",
"I@	c #3F1E2D",
"J@	c #401E2E",
"K@	c #4A1F33",
"L@	c #491F32",
"M@	c #5A2637",
"N@	c #491F33",
"O@	c #5A2536",
"P@	c #742E36",
"Q@	c #5B2536",
"R@	c #491E31",
"S@	c #592535",
"T@	c #592536",
"U@	c #3E1E2C",
"V@	c #3E1E2D",
"W@	c #481E32",
"X@	c #481F32",
"Y@	c #3F1E2C",
"Z@	c #491E32",
"`@	c #481E31",
" #	c #582435",
".#	c #3D1D2C",
"+#	c #3E1D2C",
"@#	c #572435",
"##	c #471E31",
"$#	c #471E30",
"%#	c #572434",
"&#	c #461E30",
"*#	c #461D30",
"=#	c #562434",
"-#	c #562334",
";#	c #3C1C2B",
">#	c #3C1D2B",
",#	c #3D1D2B",
"'#	c #552333",
")#	c #461D2F",
"!#	c #451D30",
"~#	c #552334",
"{#	c #6E2B33",
"]#	c #3B1C2B",
"^#	c #562333",
"/#	c #451C2F",
"(#	c #3C1C2A",
"_#	c #3B1C2A",
":#	c #451D2F",
"<#	c #6D2B33",
"[#	c #6D2B32",
"                                                                                                                                ",
"                                                                                                                                ",
"                                                                                                                                ",
"                                                                                                                                ",
". . . . . . . . + + + + + + . . + . . . + + . . + + + + + . + + . + + . + + . + + + + . + + + + . + + + @ @ + @ + @ @ @ @ @ @ + ",
"# $ # $ $ # # # # # # # # # # # # # # # % # # # & # # # # # # # # & & # # # # # & # & # # # # # # # # & & & & & & & & & & & & & ",
"* * * * = = = = = = = = = = = = - = - ; = - - = = = = = = = = = = = = = = = = = = = = = = = = = = > > , > , > > > , , > > > ' > ",
") ! ) ! ~ { ~ ~ { ~ { { { { ~ { ] { ! ] ] ] ! { { { { { { ~ { ~ ^ ~ { ~ { ~ ~ { { { ~ { { { ~ ~ / / / ~ ~ ~ ( / ~ ( / ~ ( ( / ~ ",
"_ _ _ _ : : : : : : : : : : _ _ _ < _ _ _ < _ _ : [ : : : : : _ : : _ _ : _ : : : : : : : [ } } < < < } | } } } } } } } _ } < } ",
"1 1 1 1 2 2 3 4 2 3 3 3 1 4 1 1 1 5 5 1 1 6 5 6 1 3 4 2 4 4 2 1 1 1 1 1 1 1 1 3 3 2 3 2 2 4 2 2 1 5 5 5 1 2 2 2 2 2 4 2 5 1 1 7 ",
"1 1 1 1 8 8 8 8 9 8 8 9 0 0 0 1 1 1 0 a 1 0 0 b 1 8 8 8 8 8 1 0 c 0 1 0 0 1 1 0 8 8 9 9 9 9 9 b b c b b b b c 9 8 9 b a b b 9 9 ",
"d c c c e e e e e e e e c c c c c c c d d c c d d e e e e e c c c c c c c c c c e e e f e e e d c d c d d d c c e e d d d e e e ",
"c g h c i i j j i j i c c c c c h h h h c k h c h j i i i i g c h c c h c h h c l j j j j j m g g g k h g g g k j j m k j j j g ",
"n o n o m p p p p p p o o o o o o o o o o n n o o p q q p p o n o o o o o r o r s t q q p p u v n v o n o n n n p u t n t p p n ",
"v v o v w w u w w w w o o o o o o o o o o x o v s u w u u w o o v o o o o x x x x w w w w w w v v x x s v x y x x w w w w w v v ",
"z z z o A A A A A A A B C B o o B o B o B C C C C A A A A A C C B z o C C C C D C E E E E E E E z C C C C C C C C E E E E E z z ",
"F F C C G H G G G G G I C F C C J F F J F C C F F G G G G G C C K I z C L L L M L H G H H H G H F L C L L C C C L C G H H H C C ",
"N N O O H H H H H H H J J J J N O J J J J O O J J H H P H P N N N N O N N O N O O Q P P P P P P R N N N N N N N N N P P P N N N ",
"N N S S T P P U T T T V V S V N S V V V W V V V V U T T T T X N Y Z Y N X Y X Z Z ` U U U U U U ` X X X X N N X X N U U U N X X ",
" . ...+.@.#.@.U $.$.#.%.%.+.&.%.+.%.%.&.&.+...%.%.U #.#.$.@. .*. .%.&.*... . ... .@.#.@.#.#.#.#.%. . .*. . . . . .*.#.@.@...*...",
"=.-.;.=.>.>.>.#.#.#.>.,.'.=.,.,.,.,.,.'.,.;.=.'.-.#.>.#.>.>.-.-.;.).,.-.;.;.-.;.-.>.!.>.>.>.>.>.,.-.-.-.-.-.-.-.-.-.>.>.>.-.-.-.",
"~.{.~.].^.^.^.^.^.^.^.!.,.~.~.].,.,.,.,.,.].~./.{.^.^.^.^.(.{.{.~./.!.~.~.~.~._.{.!.^.^.(.^.(.(.,._._._._.~._._._._.^.(.(._._.~.",
":.:.:.:.<.^.^.^.^.^.^.!.[.:.:.:.[.[.[.[.[.:.:.}.}.|.|.(.<.|.1.1.:.[.[.1.:.2.3.3.1.!.^.|.(.|.^.^.[.1.}.1.1.1.:.1.1.4.(.|.|.3.1.1.",
"5.5.5.5.<.6.<.<.<.<.7.7.7.7.5.5.[.[.8.9.8.5.5.4.4.<.6.0.<.6.4.4.4.8.a.5.4.5.5.5.5.b.<.6.<.<.6.<.9.4.4.4.5.5.4.5.4.4.<.<.<.4.5.4.",
"c.c.c.c.6.6.6.6.6.6.7.7.d.7.c.c.d.a.d.d.d.c.e.f.f.6.6.g.g.g.f.h.h.7.d.d.e.f.c.e.i.b.g.6.g.6.6.6.f.f.f.f.c.h.f.f.c.f.6.6.6.f.f.e.",
"j.k.k.k.g.6.g.g.g.6.d.d.l.l.m.m.d.d.d.d.d.k.k.m.m.n.g.n.g.g.m.k.k.o.l.d.k.k.m.k.k.p.g.g.n.n.n.n.m.m.m.m.k.k.k.k.m.k.g.q.n.m.m.m.",
"r.s.t.t.u.u.u.u.u.v.w.w.p.p.t.r.w.w.w.w.w.x.x.r.r.u.u.v.v.u.r.x.x.w.w.p.s.s.w.r.x.p.v.u.u.u.u.u.r.r.r.r.x.x.x.x.r.r.u.u.u.r.r.r.",
"y.z.y.y.u.u.u.u.u.u.A.A.w.w.z.z.B.A.C.w.D.y.y.E.E.v.u.v.v.v.E.y.y.y.w.A.E.A.C.y.E.u.F.v.v.u.v.v.E.E.E.E.y.y.y.y.y.y.u.u.v.E.E.E.",
"G.G.H.G.I.J.K.K.K.J.L.L.L.L.H.H.L.M.L.L.L.G.N.H.H.O.O.O.O.K.H.N.N.N.L.L.N.M.L.N.N.M.M.O.O.O.O.O.H.H.H.H.N.G.N.N.N.N.O.K.O.H.H.H.",
"P.P.P.Q.O.O.O.O.O.O.R.R.S.S.T.P.U.R.U.R.R.P.T.Q.Q.O.O.O.O.O.V.P.T.T.R.R.R.R.U.T.T.U.O.O.O.O.O.O.V.V.V.Q.W.T.T.T.T.P.O.O.I.W.V.Q.",
"X.Y.Z.Y.`.I.I.I.O.I. + +.+.+Y.Y.++@+.+@+.+Y.Y.X.X.#+$+#+#+#+X.Y.Y.Y.%+.+%+.+%+&+Y.@+#+#+#+#+#+$+X.X.X.X.Y.Y.Y.Y.Y.Y.`.*+*+=+-+=+",
"-+;+-+-+*+*+*+*+*+*+>+>+>+>+,+'+)+!+!+>+!+,+'+;+;+*+$+*+*+*+;+-+,+,+>+~+~+~+{+'+;+!+*+*+$+*+$+$+;+;+;+;+'+,+'+,+,+,+*+*+*+,+]+,+",
"^+/+^+(+_+_+_+_+_+_+:+:+:+:+<+<+:+[+}+|+:+^+<+1+2+_+_+_+_+_+2+(+(+<+:+:+:+:+:+(+(+_+_+_+_+_+_+_+1+3+^+^+(+(+(+<+4+4+5+5+5+4+3+2+",
"6+6+7+6+5+5+5+5+5+8+9+9+0+0+9+7+a+a+9+[+[+7+b+6+6+8+8+8+8+5+8+c+c+7+0+0+a+9+0+7+7+[+8+8+8+5+8+8+c+b+6+6+7+c+d+d+d+d+e+5+5+d+f+d+",
"g+h+h+g+i+i+i+i+i+i+j+j+j+j+j+g+j+j+j+k+k+h+g+h+h+i+i+i+i+i+i+g+g+g+j+j+j+j+g+g+g+k+i+i+i+i+i+i+h+h+h+h+h+l+l+l+g+g+m+m+m+g+l+g+",
"n+o+p+p+q+q+m+m+q+m+r+r+r+r+r+n+r+r+r+r+r+s+s+t+t+u+u+m+m+m+q+n+n+n+r+r+r+r+n+n+n+k+u+q+u+m+u+u+s+s+s+s+n+s+v+n+n+v+u+q+w+v+v+v+",
"r+x+y+z+q+A+A+A+A+B+C+D+D+y+y+x+y+D+D+y+y+E+E+F+E+A+A+q+q+A+B+x+x+x+y+y+D+y+x+x+x+z+q+A+B+B+q+q+E+F+E+G+x+x+E+x+x+A+A+q+A+x+x+x+",
"H+H+H+I+J+K+J+J+J+K+H+I+L+L+L+M+H+L+H+H+L+M+M+N+N+J+J+K+J+J+K+M+M+M+L+L+H+L+M+M+M+I+J+K+J+J+A+K+N+O+N+N+P+M+M+N+M+K+K+K+K+P+P+M+",
"Q+Q+R+R+K+S+K+S+T+K+R+Q+U+R+Q+V+R+R+R+R+R+W+V+X+X+Y+T+T+S+S+K+V+V+W+R+R+Q+R+V+V+W+U+T+K+S+T+S+Z+X+X+X+X+X+V+`+`+X+Z+Z+ @Y+W+`+V+",
".@+@+@+@Z+@@Z+Z+Z+Z+#@+@+@$@+@+@+@+@+@+@+@%@%@#@#@Z+Z+Z+Z+Z+Z+#@%@%@+@+@+@%@%@%@%@Z+.@Z+Z+Z+@@@@&@&@&@&@&@*@%@*@%@Z+@@Z+@@=@*@*@",
"-@;@-@-@>@>@>@>@>@>@,@-@-@-@;@-@-@-@-@-@-@'@'@)@)@>@>@>@>@>@>@,@,@'@-@-@-@'@'@!@'@>@;@>@>@>@>@>@~@~@)@~@~@,@{@)@]@>@>@>@^@!@]@~@",
"{@{@/@(@_@:@<@:@:@>@[@{@(@}@}@{@|@(@}@|@(@1@[@[@2@:@<@<@>@>@:@[@2@[@(@}@|@3@4@3@5@{@<@<@<@<@<@<@2@1@1@1@6@|@7@|@|@<@<@<@<@5@5@1@",
"8@8@9@0@a@b@a@a@b@a@c@d@0@9@d@9@8@9@9@d@d@9@9@e@e@a@a@a@a@b@a@e@e@f@d@d@d@f@f@f@f@a@a@a@a@a@a@a@e@e@e@e@9@9@8@8@g@a@a@a@a@a@e@e@",
"h@i@j@k@l@l@m@l@l@l@n@i@o@j@p@h@h@i@p@p@o@q@h@o@n@m@l@m@l@l@l@n@n@n@h@p@p@n@n@r@s@t@u@m@l@l@l@l@r@r@n@r@j@h@h@h@j@m@m@l@m@u@n@h@",
"v@v@s@s@w@w@w@x@x@x@v@y@y@v@y@z@v@v@y@v@v@v@v@v@v@w@x@w@w@w@w@s@A@y@v@z@v@A@B@B@y@C@w@D@w@D@D@w@B@B@B@A@C@C@E@E@C@w@D@w@w@w@A@E@",
"F@F@F@G@H@I@H@J@J@H@F@G@K@L@M@N@F@M@F@G@F@F@F@F@M@H@H@H@I@H@J@G@K@F@K@M@O@O@O@O@L@L@I@H@I@I@I@I@O@O@P@Q@O@M@L@O@O@I@I@I@H@I@O@L@",
"R@S@T@S@I@I@U@V@V@I@T@T@T@R@W@T@X@T@T@T@R@T@T@T@T@I@V@Y@Y@I@I@L@Z@W@T@`@S@S@S@S@`@U@U@U@U@U@V@U@S@S@S@T@S@S@`@`@S@V@U@U@U@U@S@S@",
" # # # #.#.#+#.#+#.# #@#@#`@##`@ ###@# # #`@ #@# #.#.#.#+#+#.#@#@#$#$#%###%#%#%#@#.#&#.#.#.#.#.#%#%#%#%#%#%#%#%#$#.#.#.#.#.#%#%#",
"*#=#-#-#;#>#;#,#;#;#;#-#%#-#*#*#*#-#*#=#-#-#*#-#-#;#;#>#>#>#;#-#'#-#-#)#!#*#~#-#{#!#;#*#*#;#;#;#;#]#'#~#-#~#-#-#^#;#]#]#;#;#'#~#",
"/#/#'#'#(#(#_#_#(#_#_#'#'#'#'#/#:#/#'#:#'#'#'#/#'#_#(#_#(#(#_#'#'#'#'#/#/#<#'#[#[#/#_#/#/#_#(#(#/#_#(#'#'#'#'#'#'#_#_#_#_#_#/#'#",
"_#/#_#(#_#_#_#(#(#(#_#'#'#'#'#'#/#/#/#'#/#'#'#'#/#_#(#(#_#_#(#'#'#'#'#'#'#'#'#'#/#/#_#(#/#_#:#(#(#_#_#(#'#'#(#_#_#(#/#/#_#(#'#:#",
"/#(#_#_#(#(#(#_#_#(#(#/#:#'#'#'#'#'#/#/#'#/#'#'#'#(#(#(#(#(#(#'#'#'#'#'#/#/#'#'#/#(#(#_#(#_#_#/#/#_#(#/#'#'#_#/#/#(#(#/#/#:#_#'#",
"_#(#(#/#_#_#_#/#(#(#_#_#/#'#'#'#'#'#/#:#/#'#/#'#(#(#_#(#_#_#_#'#/#'#'#'#'#'#/#/#_#/#_#(#(#_#_#(#_#_#(#_#_#_#'#(#_#/#/#_#/#/#/#/#",
"(#_#(#_#_#(#_#(#_#(#/#_#_#:#_#'#'#'#'#'#/#:#/#/#_#(#(#(#(#(#_#(#:#(#:#/#/#(#/#(#_#(#(#_#/#(#_#(#(#:#(#(#:#(#_#(#(#_#(#_#(#:#(#'#",
":#(#_#_#(#_#_#_#_#(#(#(#/#_#_#_#_#:#/#/#/#/#'#'#/#/#_#:#(#(#_#(#/#(#/#(#(#(#/#(#(#/#_#_#_#(#_#/#/#(#:#_#_#_#_#(#(#(#_#(#(#_#_#_#",
"/#_#(#_#(#/#(#(#(#(#(#(#(#_#_#/#:#/#'#/#'#'#'#/#_#_#(#(#_#_#(#(#_#_#_#(#_#(#(#(#(#_#(#(#(#_#_#(#(#_#(#_#(#_#:#/#_#(#:#_#_#(#_#(#",
"(#_#(#_#_#(#(#_#(#_#:#_#/#_#_#_#_#_#/#:#'#'#/#/#(#_#_#(#:#_#_#_#(#/#(#(#(#_#_#_#_#(#_#_#_#:#(#(#(#_#_#(#(#(#(#(#/#(#_#_#(#(#/#_#",
"(#_#(#_#_#(#_#_#_#(#_#_#_#(#(#(#_#/#(#/#/#/#_#_#(#_#(#/#(#_#_#_#(#(#(#_#(#(#(#(#(#_#_#_#_#_#(#(#_#_#_#(#:#(#(#_#_#_#(#_#(#(#(#(#",
"_#(#_#_#(#(#(#(#(#(#_#(#_#_#(#_#_#_#_#/#_#_#(#_#(#_#_#(#:#_#(#(#_#_#_#:#/#/#(#_#(#_#(#(#(#_#(#(#_#_#(#_#_#(#/#(#_#(#_#_#(#_#_#_#",
"_#_#(#_#_#_#_#(#_#_#_#(#(#(#_#_#_#/#(#(#_#(#(#(#_#_#_#(#_#_#_#(#_#(#(#(#_#(#_#(#(#(#(#(#(#_#(#(#(#_#(#(#(#(#_#_#_#_#(#(#_#_#_#(#",
"(#(#_#(#_#(#(#_#_#(#(#_#_#(#_#(#_#(#_#/#:#(#_#_#(#_#_#_#_#_#(#(#(#(#(#(#(#_#_#(#(#_#_#_#(#_#_#_#_#(#(#(#(#(#(#_#_#(#_#_#_#_#_#(#",
"_#(#_#_#_#(#_#_#(#(#_#(#(#_#(#(#(#_#(#_#(#_#(#_#_#(#(#(#_#_#(#(#(#(#(#(#_#(#_#_#_#(#(#(#(#(#_#_#(#_#_#(#(#(#(#_#(#_#(#(#(#_#_#_#",
"(#_#(#(#_#(#_#(#(#_#(#_#(#(#_#(#_#_#_#(#(#_#(#(#(#(#(#(#_#(#(#_#_#(#_#(#(#(#(#_#(#_#(#(#_#(#_#_#(#_#(#_#_#(#(#(#(#_#(#_#(#(#(#(#",
"_#_#_#(#_#(#(#(#_#(#(#(#_#_#_#(#_#(#(#(#(#_#_#_#(#(#(#_#(#(#(#_#(#_#_#(#_#(#_#_#(#(#(#_#_#(#_#(#(#_#_#_#(#_#_#(#(#(#(#(#(#(#_#_#"};
