/* XPM */
static char * forest3_xpm[] = {
"64 64 392 2",
"  	c #16303C",
". 	c #1B303C",
"+ 	c #1E303C",
"@ 	c #20303C",
"# 	c #23303C",
"$ 	c #22303C",
"% 	c #252F3C",
"& 	c #282F3C",
"* 	c #2A2F3C",
"= 	c #483045",
"- 	c #6B3A4C",
"; 	c #2B2F3D",
"> 	c #2B2F3C",
", 	c #292F3C",
"' 	c #2C2F3D",
") 	c #2D2F3D",
"! 	c #2F2F3D",
"~ 	c #4A3045",
"{ 	c #6C3A4C",
"] 	c #2D2F3C",
"^ 	c #2E2F3D",
"/ 	c #302F3D",
"( 	c #312F3D",
"_ 	c #6D394C",
": 	c #4C3045",
"< 	c #6D394B",
"[ 	c #322F3D",
"} 	c #332F3D",
"| 	c #4E2F45",
"1 	c #6E394B",
"2 	c #4D2F45",
"3 	c #362E3D",
"4 	c #342E3D",
"5 	c #352E3D",
"6 	c #372E3D",
"7 	c #4F2F45",
"8 	c #502F45",
"9 	c #6F394B",
"0 	c #382E3D",
"a 	c #6F384B",
"b 	c #392E3D",
"c 	c #512F45",
"d 	c #3B2E3D",
"e 	c #3A2E3D",
"f 	c #70384B",
"g 	c #522E45",
"h 	c #522F45",
"i 	c #3E2E3D",
"j 	c #3D2D3D",
"k 	c #3D2E3D",
"l 	c #3C2E3D",
"m 	c #522F44",
"n 	c #3E2D3D",
"o 	c #70374A",
"p 	c #532E44",
"q 	c #3F2D3D",
"r 	c #402D3C",
"s 	c #402D3D",
"t 	c #542E44",
"u 	c #412D3C",
"v 	c #71374A",
"w 	c #552D44",
"x 	c #422D3C",
"y 	c #70364A",
"z 	c #422C3C",
"A 	c #974249",
"B 	c #71364A",
"C 	c #562D44",
"D 	c #562D43",
"E 	c #432C3C",
"F 	c #442C3C",
"G 	c #703649",
"H 	c #964249",
"I 	c #713649",
"J 	c #964148",
"K 	c #572D43",
"L 	c #452C3C",
"M 	c #CE554F",
"N 	c #713549",
"O 	c #CD554F",
"P 	c #954148",
"Q 	c #572C43",
"R 	c #462C3C",
"S 	c #462B3C",
"T 	c #CD544F",
"U 	c #CD544E",
"V 	c #954048",
"W 	c #CB544E",
"X 	c #954047",
"Y 	c #CC544E",
"Z 	c #472B3C",
"` 	c #472B3B",
" .	c #713548",
"..	c #703548",
"+.	c #944047",
"@.	c #CB534E",
"#.	c #CA534E",
"$.	c #572C42",
"%.	c #482B3B",
"&.	c #703448",
"*.	c #713448",
"=.	c #C9524D",
"-.	c #943F47",
";.	c #C9534D",
">.	c #582B42",
",.	c #482A3B",
"'.	c #492A3B",
").	c #703447",
"!.	c #933F47",
"~.	c #C8524D",
"{.	c #933F46",
"].	c #933E46",
"^.	c #703347",
"/.	c #482A3A",
"(.	c #492A3A",
"_.	c #582B41",
":.	c #C7514C",
"<.	c #C7524D",
"[.	c #923E46",
"}.	c #C6514C",
"|.	c #49293A",
"1.	c #582A41",
"2.	c #6F3346",
"3.	c #4A2A3A",
"4.	c #6F3347",
"5.	c #913D45",
"6.	c #C5504C",
"7.	c #913E45",
"8.	c #6F3246",
"9.	c #4A293A",
"0.	c #C4504C",
"a.	c #C5504B",
"b.	c #C4504B",
"c.	c #903D45",
"d.	c #C34F4B",
"e.	c #C44F4B",
"f.	c #492939",
"g.	c #582A40",
"h.	c #4A2939",
"i.	c #6F3245",
"j.	c #6E3245",
"k.	c #8F3C44",
"l.	c #C24F4A",
"m.	c #C24F4B",
"n.	c #4A2839",
"o.	c #492839",
"p.	c #C14E4A",
"q.	c #582940",
"r.	c #6E3145",
"s.	c #572940",
"t.	c #8E3C44",
"u.	c #C04E4A",
"v.	c #8E3B44",
"w.	c #58293F",
"x.	c #57293F",
"y.	c #6E3144",
"z.	c #6D3144",
"A.	c #BF4E4A",
"B.	c #8D3B43",
"C.	c #BF4D49",
"D.	c #4A2838",
"E.	c #4A2738",
"F.	c #492738",
"G.	c #492838",
"H.	c #BE4D49",
"I.	c #57283F",
"J.	c #6D3044",
"K.	c #58283F",
"L.	c #8C3A43",
"M.	c #8C3A42",
"N.	c #BD4C49",
"O.	c #BD4C48",
"P.	c #57283E",
"Q.	c #BC4C48",
"R.	c #6C3043",
"S.	c #BB4B48",
"T.	c #8B3A42",
"U.	c #BC4B48",
"V.	c #4A2737",
"W.	c #4A2637",
"X.	c #57273D",
"Y.	c #57273E",
"Z.	c #6C2F42",
"`.	c #8B3942",
" +	c #6B2F43",
".+	c #6B2F42",
"++	c #BA4B47",
"@+	c #8A3941",
"#+	c #B94A47",
"$+	c #893941",
"%+	c #492637",
"&+	c #B94B47",
"*+	c #56273D",
"=+	c #6B2E42",
"-+	c #6A2E42",
";+	c #6A2F42",
">+	c #893841",
",+	c #B84A46",
"'+	c #B74A46",
")+	c #883841",
"!+	c #893840",
"~+	c #883840",
"{+	c #492636",
"]+	c #6A2E41",
"^+	c #56263C",
"/+	c #55263C",
"(+	c #55263D",
"_+	c #B74946",
":+	c #873840",
"<+	c #B64946",
"[+	c #B64945",
"}+	c #873740",
"|+	c #482536",
"1+	c #492536",
"2+	c #692D41",
"3+	c #692D40",
"4+	c #692E41",
"5+	c #B54845",
"6+	c #B54945",
"7+	c #86373F",
"8+	c #B44845",
"9+	c #482535",
"0+	c #682D40",
"a+	c #54263B",
"b+	c #54253B",
"c+	c #482435",
"d+	c #85373F",
"e+	c #B34845",
"f+	c #B24744",
"g+	c #85363E",
"h+	c #B34744",
"i+	c #84363F",
"j+	c #84363E",
"k+	c #53253B",
"l+	c #482434",
"m+	c #672C3F",
"n+	c #472434",
"o+	c #B14744",
"p+	c #B04643",
"q+	c #83353E",
"r+	c #83363E",
"s+	c #662C3E",
"t+	c #462434",
"u+	c #472334",
"v+	c #53243A",
"w+	c #52243A",
"x+	c #662B3E",
"y+	c #82353D",
"z+	c #AF4542",
"A+	c #81353D",
"B+	c #AE4542",
"C+	c #522439",
"D+	c #652B3D",
"E+	c #472333",
"F+	c #462333",
"G+	c #652B3E",
"H+	c #642B3D",
"I+	c #AD4542",
"J+	c #81343C",
"K+	c #80343C",
"L+	c #AC4442",
"M+	c #522338",
"N+	c #512339",
"O+	c #512338",
"P+	c #462332",
"Q+	c #452333",
"R+	c #462232",
"S+	c #642A3D",
"T+	c #AC4441",
"U+	c #452232",
"V+	c #502338",
"W+	c #632A3D",
"X+	c #AB4441",
"Y+	c #7F333B",
"Z+	c #7E333B",
"`+	c #AA4341",
" @	c #7E333C",
".@	c #632A3C",
"+@	c #502337",
"@@	c #7F333C",
"#@	c #442232",
"$@	c #622A3C",
"%@	c #A94340",
"&@	c #AA4340",
"*@	c #7D323B",
"=@	c #7D323A",
"-@	c #4F2237",
";@	c #61293B",
">@	c #442131",
",@	c #A84240",
"'@	c #A7423F",
")@	c #4F2236",
"!@	c #7C323A",
"~@	c #A74240",
"{@	c #7B323A",
"]@	c #432130",
"^@	c #4E2236",
"/@	c #4E2136",
"(@	c #60293A",
"_@	c #60283A",
":@	c #432131",
"<@	c #7B313A",
"[@	c #7B3239",
"}@	c #442130",
"|@	c #7B3139",
"1@	c #A5413F",
"2@	c #793139",
"3@	c #422030",
"4@	c #432030",
"5@	c #4D2135",
"6@	c #4E2135",
"7@	c #5F283A",
"8@	c #7A3139",
"9@	c #5E2839",
"0@	c #5E2739",
"a@	c #5F2839",
"b@	c #A3403E",
"c@	c #411F2F",
"d@	c #41202F",
"e@	c #42202F",
"f@	c #4C2134",
"g@	c #4C2034",
"h@	c #5D2739",
"i@	c #783038",
"j@	c #5D2738",
"k@	c #4D2034",
"l@	c #773038",
"m@	c #4B2034",
"n@	c #401F2E",
"o@	c #401F2F",
"p@	c #4B2033",
"q@	c #762F37",
"r@	c #5C2638",
"s@	c #4A2034",
"t@	c #752F37",
"u@	c #4A2033",
"v@	c #411F2E",
"w@	c #5C2637",
"x@	c #401E2E",
"y@	c #401E2D",
"z@	c #491F32",
"A@	c #742E36",
"B@	c #4A1F32",
"C@	c #3F1E2E",
"D@	c #5B2637",
"E@	c #5A2637",
"F@	c #3F1E2D",
"G@	c #5A2536",
"H@	c #5B2536",
"I@	c #5A2537",
"J@	c #3F1E2C",
"K@	c #3E1E2C",
"L@	c #722D35",
"M@	c #481E32",
"N@	c #491E32",
"O@	c #722E35",
"P@	c #732E35",
"Q@	c #3E1E2D",
"R@	c #732D35",
"S@	c #491E31",
"T@	c #592535",
"U@	c #481E31",
"V@	c #592536",
"W@	c #3E1D2C",
"X@	c #3D1D2C",
"Y@	c #712D34",
"Z@	c #702D34",
"`@	c #471E31",
" #	c #572435",
".#	c #572434",
"+#	c #702C34",
"@#	c #471E30",
"##	c #3C1D2C",
"$#	c #3C1C2B",
"%#	c #3C1D2B",
"&#	c #562334",
"*#	c #471D30",
"=#	c #461D30",
"-#	c #6F2C33",
";#	c #6E2C33",
">#	c #562434",
",#	c #3B1C2B",
"'#	c #552334",
")#	c #6E2B33",
"!#	c #451D2F",
"~#	c #562333",
"{#	c #552333",
"]#	c #451C2F",
"^#	c #3B1C2A",
"/#	c #3C1C2A",
"(#	c #6D2B33",
"_#	c #6D2B32",
"                                                                                                                                ",
"                                                                                                                                ",
"                                                                                                                                ",
"                                                                                                                                ",
". . . . . . . . + + + + + + . . + . . . + + . . + + + + + . + + . + + . + + . + + + + . + + + + . + + + @ @ + @ + @ @ @ @ @ @ + ",
"# $ # $ $ # # # # # # # # # # # # # # # % # # # % # # # # # # # # % % # # # # # % # % # # # # # # # # % % % % % % % % % % % % % ",
"& & & & * = = * = = * * * * - * * * * * * * * * * * * * * * * * * * * * * * * * * * * * * * * * * ; ; > ; > ; ; ; > > ; ; ; , ; ",
"' ) ' ! ! ) ~ ~ { ~ ~ ) { ) { { ) ) ! ) ! ) ! ) ) ) ) ) ) ! ) ! ] ! ) ! ) ! ! ) ) ) ! ) ) ) ! ! ^ ^ ^ ! ! ! / ^ { / { ! / / ^ ! ",
"( _ : : : : : : : : : : < _ _ _ [ [ [ [ [ [ [ _ < _ [ [ [ [ [ [ [ [ [ ( [ [ [ [ [ [ [ [ [ ( } } } } } } } } } } _ _ _ < _ _ } } ",
"| | | | | | 1 | | 2 1 2 | 1 1 1 3 3 3 3 3 4 1 1 1 1 1 3 5 5 3 4 3 4 5 3 3 3 3 4 4 3 4 3 3 5 3 3 3 6 3 3 3 3 1 1 1 1 1 1 1 1 3 6 ",
"1 1 7 1 7 7 7 7 8 7 7 8 7 7 9 1 0 0 0 0 0 0 9 a 1 1 9 0 0 0 0 0 b 0 0 0 0 1 1 0 1 1 b b b b b b b b b b a a a a a a a a a a a a ",
"a a c c c c c c a c c c a c c a d d d d d d c a a a a a d d d d d d d d d a a a a d d e d d d d d d a a a a a a a a a a a a a a ",
"a a f a g a g g g g h h g g g g i j k k l l f m f f a a l l j l j l l j a f f a a a a a a j n j a j f f f f f f a a f a f a a a ",
"o o o o p p p p p p o p p p o p q q q q q n p o p o o o o q q n n q q q o o o o o o o o o q r s o o o o o o o o o o o o o o o o ",
"o o o o o o t o t t t t t t t t u u u u r u o t o t o o o u u r u u u r o o o o o o o o o u u u o o o o o o v o o o o o o o o o ",
"v o o o v v w w w w w w v w w w x x x x x x v v w o w o o x x x x x x x y y y y y y y y y z z z y y y y y y y y y y y y y A y A ",
"A A B B A A B B C B C w D C C C E E E E E E A B B D B w B E E E E E E F G H y G y B I I B F E F B y I H y A A A H B B G B H A A ",
"J J J J J J J J I I I D D J K I F F L F L L J I I I J J I L F F L L L L G M M M I G I G I L L L I I G J J J J J J G I I N J J J ",
"J J J O J P P J J J Q N J J Q Q R S R R L R J J N N J J N R L S S S S S N P T T N J N N N S S S S U N P P J J P P N N N N U U U ",
"V V W X V X V V X X Y Y V X Q Q S Z Z ` Z S V Y  ... .X Q Z Z ` Z ` ` `  .V V W V V W W X ` ` ` ` W W X V V V V V .... ...W W W ",
"+.+.+.@.+.@.+.+.+.+.@.#.+.+.$.$.` ` ` %.` ` +.+.&.&.*.+.&.%.%.%.%.%.%.%.&.#.+.+.+.#.#.#.+.%.%.%.` #.#.+.+.+.+.#.+.&.&.&.&.#.#.#.",
"=.-.-.-.;.-.;.-.-.-.=.=.=.=.=.>.,.,.,.'.,.,.-.-.-.).&.-.&.'.,.,.,.'.,.,.&.=.=.!.-.=.=.=.=.,.'.'.,.=.=.!.!.!.!.=.=.).).&.).=.=.=.",
"~.~.{.{.].~.~.{.{.{.~.~.~.~.{.^.,.,./.,.(.,.{.~.{._.^.].^./.,.'.'.'.(.(.~.:.<.].].<.<.<.~./.,.,./.<.<.].].].].<.~.^.^.^.^.<.~.~.",
"[.}.}.[.[.[.}.[.[.[.}.}.}.}.}.^.(.(.(.(.|.(.[.[.[.1.1.^.2.1.|.|.(.(.(.|.}.}.}.[.[.}.}.}.}.1.|.(.3.}.}.[.[.[.[.}.}.2.2.4.2.}.}.}.",
"5.5.6.6.7.5.5.5.5.5.6.6.6.6.6.8.|.|.|.9.|.|.5.5.5.8.1.1.8.9.9.|.|.|.|.|.0.8.8.5.5.6.0.a.b.1.|.|.|.6.a.5.5.5.5.a.6.8.8.8.8.6.6.0.",
"c.c.c.d.e.c.c.c.c.c.d.e.d.e.d.d.9.|.9.|.9.f.c.c.c.g.g.g.g.g.|.9.h.h.h.9.8.i.j.c.c.d.d.d.d.h.h.h.9.d.d.d.c.c.c.d.d.i.8.j.i.d.d.d.",
"k.k.k.k.l.l.k.k.k.k.l.l.l.l.m.m.n.n.n.o.n.n.k.p.k.k.q.r.s.q.n.n.n.n.n.n.r.q.r.r.k.p.l.p.p.n.n.n.n.p.l.p.k.k.k.p.l.r.r.r.r.l.p.p.",
"t.t.t.t.t.u.u.t.v.t.u.v.u.u.u.u.n.n.o.n.o.o.v.v.v.v.w.x.x.o.o.n.n.n.n.n.x.y.z.v.v.u.u.u.u.w.o.o.o.u.u.u.v.v.v.u.u.z.r.r.z.u.u.A.",
"B.B.B.B.B.B.C.B.B.B.B.C.C.C.C.C.D.E.F.E.E.G.B.B.B.H.B.I.I.I.E.E.E.E.F.E.J.I.J.B.B.H.H.H.H.K.E.E.E.H.H.H.B.B.B.H.H.J.J.J.J.H.H.H.",
"L.L.L.L.L.M.M.N.L.L.M.M.N.M.O.N.E.E.E.E.E.E.O.L.L.L.M.P.P.E.E.E.E.E.E.E.N.O.M.M.M.Q.O.O.N.E.E.E.E.O.O.N.L.M.M.O.O.R.R.R.R.Q.Q.Q.",
"S.T.T.T.T.T.T.T.T.T.T.T.T.U.S.S.V.W.V.V.V.V.T.T.T.X.Y.Z.Y.V.V.V.V.V.V.V.S.S.S.`.T.T.S.S.S.Y.V.W.V.S.S.S.T.T.T.S.S.Z. +.+.+++++++",
"@+++@+@+@+@+@+@+@+@+++@+@+@+#+$+W.W.W.%+W.W.&+*+=+*+*+*+*+*+%+%+%+W.%+%+&+&+#+$+@+#+++++#+*+W.W.%+++#+#+$+@+$+#+#+-+;+;+;+#+#+#+",
">+>+,+>+>+>+>+>+>+>+,+'+)+!+~+'+{+{+{+{+{+{+]+^+/+(+/+(+(+/+{+{+{+{+{+{+'+,+'+>+>+>+'+~+'+{+{+{+{+'+,+,+!+>+!+'+_+]+]+]+]+_+_+_+",
":+<+:+[+:+:+:+:+:+}+}+<+[+:+:+:+|+|+|+1+|+|+2+3+4+/+4+/+/+/+|+|+|+|+|+|+:+<+[+}+:+[+}+<+[+/+|+|+|+2+3+2+:+:+}+5+5+2+3+2+2+5+6+5+",
"7+7+7+7+8+7+7+7+7+7+7+7+8+8+7+7+9+9+9+9+9+9+0+0+0+a+b+b+7+a+9+9+c+9+9+9+7+7+8+7+7+8+8+7+8+a+9+9+9+0+0+0+7+0+d+e+8+0+0+0+0+8+e+8+",
"f+g+g+h+g+f+i+i+j+i+j+i+j+f+f+k+l+c+l+l+c+l+m+m+m+f+f+i+i+b+n+l+c+c+l+l+i+j+i+i+i+f+f+f+j+c+l+l+l+m+m+m+m+m+m+f+f+m+m+m+m+o+o+o+",
"j+p+q+r+r+q+p+q+q+r+q+q+q+r+s+s+t+t+n+u+n+t+s+s+p+p+p+q+r+v+t+u+u+t+n+n+r+p+q+r+q+p+p+p+p+w+n+n+u+s+s+x+s+s+s+p+p+x+s+s+x+p+p+p+",
"y+y+z+y+A+B+A+A+A+A+y+C+C+C+C+D+u+E+u+u+F+F+G+B+B+B+B+A+A+C+F+F+F+F+F+E+A+A+A+A+A+B+B+B+B+C+u+F+F+D+H+D+H+D+D+B+B+H+D+D+G+I+I+B+",
"J+K+K+L+K+K+K+K+K+K+M+N+O+M+O+O+P+Q+Q+R+F+F+S+T+T+L+T+K+K+N+F+P+Q+F+P+R+K+K+K+K+K+K+T+L+T+M+Q+U+R+V+S+W+S+S+S+X+L+W+W+S+S+L+X+T+",
"Y+Z+Y+Y+`+ @Y+.@+@.@+@+@+@V++@V+U+U+U+U+U+U+.@Y+`+`+`+@@@@U+U+U+U+U+U+U+@@Y+@@@@Y+@@Y+`+`+U+#@#@#@.@+@.@$@$@Z+%@`+.@$@.@$@&@%@%@",
"*@*@=@=@=@*@-@-@-@-@;@-@-@-@-@-@>@>@>@>@>@>@-@*@,@,@,@=@*@-@>@>@>@>@>@>@=@,@*@=@=@=@=@*@'@>@>@>@>@)@;@)@;@;@!@~@'@;@;@;@;@~@'@'@",
"{@{@]@^@/@)@(@)@)@_@)@(@^@)@{@{@>@:@]@>@>@]@)@{@<@[@[@{@{@)@}@]@:@}@:@}@|@{@{@{@<@{@|@|@|@/@]@]@:@_@/@_@^@_@|@|@1@_@_@_@_@1@1@1@",
"2@3@3@4@5@6@5@7@6@5@6@5@8@2@2@8@3@3@3@3@3@3@5@2@2@2@2@2@2@6@3@3@3@4@3@3@2@2@2@2@2@2@2@2@2@5@3@3@3@9@0@5@a@5@2@2@2@a@a@a@a@2@b@b@",
"c@d@c@e@d@f@g@g@h@g@g@i@i@i@i@i@d@d@d@d@e@e@j@k@i@i@i@i@i@d@d@e@e@e@c@d@i@i@i@l@l@l@l@l@m@m@d@d@d@j@j@j@g@j@l@l@l@j@h@j@j@l@i@i@",
"n@n@o@o@n@p@p@m@q@q@p@q@q@q@q@q@o@o@n@o@n@o@r@r@q@q@q@q@q@p@n@o@o@n@o@o@p@q@s@t@q@t@t@q@u@v@v@n@n@w@w@r@w@u@t@q@t@w@w@w@w@t@q@q@",
"x@x@y@y@y@z@A@A@A@B@A@A@A@A@A@A@x@C@y@y@y@y@B@D@A@A@A@B@E@B@x@y@x@x@y@F@G@z@A@A@A@A@z@A@G@F@F@F@F@G@G@H@G@E@A@A@A@G@G@I@H@I@A@G@",
"J@J@F@K@F@F@L@M@L@N@L@O@P@L@L@L@Q@F@F@F@J@F@M@N@R@R@L@S@S@F@F@F@F@Q@F@K@T@U@L@U@L@U@L@T@T@U@Q@U@K@U@U@V@T@T@T@U@T@M@T@T@T@T@T@T@",
"W@W@W@W@X@X@Y@Z@U@Z@U@Z@Z@Y@Z@Y@W@X@X@W@W@W@U@`@U@Z@ #`@U@U@X@X@X@X@X@X@X@.#.#+# #+#+#.#.#.#@#@###X@@#.#.#.#.#.#@#.#@#.#.#.#.#.#",
"$#%#$#$#$#%#&#*#=#=#-#-#-#=#;#=#$#$#%#%#$#$#=#=#=#=#&#>#>#=#$#$#,#$#$#$#,#&#'#&#&#'#)#&#=#=#$#$#$#,#!#,#&#'#&#&#~#=#{#'#&#~#{#'#",
"]#]#^#^#/#/#]#(#!#(#]#!#(#]#{#]#^#^#/#/#/#^#!#]#]#!#]#{#_#{#^#^#/#^#^#/#/#/#/#{#{#{#{#]#]#^#]#/#/#^#/#]#!#{#{#{#{#{#]#{#!#{#{#{#",
"{#]#]#]#!#^#^#/#/#]#!#!#!#]#]#]#/#^#/#^#/#/#!#]#]#{#_#{#]#{#]#!#]#/#]#]#/#/#/#]#]#{#]#!#^#^#^#/#/#^#^#/#^#]#/#^#^#{#{#]#{#{#{#{#",
"]#!#]#^#/#/#/#]#^#{#]#^#/#]#]#]#^#/#^#^#/#/#]#]#{#_#(#]#!#!#!#!#^#/#]#^#]#/#^#^#^#/#/#!#]#^#^#]#]#^#]#^#^#^#^#/#^#/#/#/#^#^#]#{#",
"!#/#/#]#^#]#^#^#/#/#^#^#^#]#^#^#/#^#^#/#/#/#]#{#{#{#{#{#]#^#^#^#]#^#/#^#^#^#]#]#^#/#^#]#/#^#^#/#^#^#/#]#^#^#!#/#^#/#/#^#/#/#^#^#",
"]#]#/#^#^#/#^#]#^#!#]#^#^#/#^#/#^#^#/#^#^#!#]#{#]#{#]#!#]#/#]#/#/#/#^#]#^#/#]#/#^#!#/#^#^#/#^#/#/#^#/#/#^#/#^#/#]#^#/#]#/#/#/#]#",
"/#/#^#]#]#^#^#^#^#/#/#/#^#^#^#^#^#^#/#]#^#/#!#!#/#]#^#!#/#!#!#/#/#/#^#/#/#/#^#/#]#^#^#^#^#/#^#^#^#/#^#^#^#^#^#/#/#/#^#/#/#^#^#]#",
"^#^#/#^#/#^#/#/#/#/#]#!#]#^#^#/#/#]#^#^#/#]#/#/#^#^#/#/#]#^#/#/#!#^#^#/#^#/#/#/#/#^#/#/#/#^#^#/#/#^#/#^#/#^#!#^#^#/#^#^#^#/#^#/#",
"/#^#/#^#^#]#/#^#/#^#^#^#/#^#^#^#]#^#/#^#^#/#/#/#/#^#^#/#/#^#^#^#/#^#!#/#/#^#^#]#^#/#^#^#^#/#/#/#/#^#^#!#/#/#/#/#/#/#^#^#/#/#/#^#",
"/#^#/#^#^#/#^#^#^#!#^#^#^#/#/#/#^#^#/#/#^#^#^#^#/#^#/#^#/#^#^#^#/#!#/#^#/#/#/#/#/#^#^#^#^#^#/#/#^#^#^#/#^#/#/#^#^#^#/#^#/#/#/#/#",
"!#]#^#^#/#/#/#/#/#/#^#/#]#^#/#^#^#^#^#^#^#]#/#^#/#^#^#/#/#^#/#/#^#^#^#/#^#/#/#^#/#^#/#/#/#^#/#/#^#^#/#^#^#/#/#/#^#/#^#^#/#^#^#^#",
"^#^#/#^#^#]#!#/#^#^#^#/#/#/#^#^#^#^#/#/#^#/#/#/#^#^#^#/#^#^#^#/#^#/#/#/#^#/#^#/#/#/#/#/#/#^#/#/#/#^#/#/#/#/#^#^#^#^#/#/#^#^#^#/#",
"/#/#^#/#^#/#/#^#^#/#/#^#^#/#^#/#^#/#^#^#/#/#^#^#/#^#^#^#^#^#/#/#/#/#/#/#/#^#^#/#/#^#^#^#/#^#^#^#^#/#/#/#/#/#/#^#^#/#^#^#^#^#^#/#",
"^#/#^#^#^#/#^#^#/#/#^#/#/#^#/#/#/#^#/#^#/#^#/#^#^#/#/#/#^#^#/#/#/#/#/#/#^#/#^#^#^#/#/#/#/#/#^#^#/#^#^#/#/#/#/#^#/#^#/#/#/#^#^#^#",
"/#^#/#/#^#/#^#/#/#^#/#^#/#/#^#/#^#^#^#/#/#^#/#/#/#/#/#/#^#/#/#^#^#/#^#/#/#/#/#^#/#^#/#/#^#/#^#^#/#^#/#^#^#/#/#/#/#^#/#^#/#/#/#/#",
"^#^#^#/#^#/#/#/#^#/#/#/#^#^#^#/#^#/#/#/#/#^#^#^#/#/#/#^#/#/#/#^#/#^#^#/#^#/#^#^#/#/#/#^#^#/#^#/#/#^#^#^#/#^#^#/#/#/#/#/#/#/#^#^#"};
