/* XPM */
static char * forest1_xpm[] = {
"64 64 400 2",
"  	c #16303C",
". 	c #1B303C",
"+ 	c #1E303C",
"@ 	c #20303C",
"# 	c #23303C",
"$ 	c #22303C",
"% 	c #252F3C",
"& 	c #282F3C",
"* 	c #2A2F3C",
"= 	c #2B2F3D",
"- 	c #2B2F3C",
"; 	c #292F3C",
"> 	c #2C2F3D",
", 	c #2D2F3D",
"' 	c #2F2F3D",
") 	c #2D2F3C",
"! 	c #2E2F3D",
"~ 	c #302F3D",
"{ 	c #312F3D",
"] 	c #322F3D",
"^ 	c #332F3D",
"/ 	c #352E3D",
"( 	c #362E3D",
"_ 	c #342E3D",
": 	c #6E394B",
"< 	c #4D2F45",
"[ 	c #4E2F45",
"} 	c #372E3D",
"| 	c #382E3D",
"1 	c #392E3D",
"2 	c #6F394B",
"3 	c #6F384B",
"4 	c #4F2F45",
"5 	c #3B2E3D",
"6 	c #512F45",
"7 	c #3A2E3D",
"8 	c #3C2E3D",
"9 	c #3D2D3D",
"0 	c #70384B",
"a 	c #522E45",
"b 	c #3E2D3D",
"c 	c #3D2E3D",
"d 	c #70374A",
"e 	c #532E44",
"f 	c #3F2D3C",
"g 	c #3F2D3D",
"h 	c #542E44",
"i 	c #402D3D",
"j 	c #402D3C",
"k 	c #412D3C",
"l 	c #422D3C",
"m 	c #71374A",
"n 	c #552D44",
"o 	c #70364A",
"p 	c #422C3C",
"q 	c #71364A",
"r 	c #562D44",
"s 	c #974249",
"t 	c #432C3C",
"u 	c #713649",
"v 	c #562D43",
"w 	c #703649",
"x 	c #442C3C",
"y 	c #552D43",
"z 	c #964148",
"A 	c #452C3C",
"B 	c #572D43",
"C 	c #713549",
"D 	c #572C43",
"E 	c #954148",
"F 	c #462C3C",
"G 	c #462B3C",
"H 	c #713548",
"I 	c #703548",
"J 	c #582C43",
"K 	c #954047",
"L 	c #954048",
"M 	c #462B3B",
"N 	c #472B3B",
"O 	c #472B3C",
"P 	c #CB544E",
"Q 	c #CC544E",
"R 	c #582C42",
"S 	c #482B3C",
"T 	c #944047",
"U 	c #703448",
"V 	c #713448",
"W 	c #572C42",
"X 	c #482B3B",
"Y 	c #CB534E",
"Z 	c #CA534E",
"` 	c #582B42",
" .	c #C9524D",
"..	c #482A3B",
"+.	c #943F47",
"@.	c #C9534D",
"#.	c #703447",
"$.	c #933F47",
"%.	c #492A3B",
"&.	c #C8524D",
"*.	c #703347",
"=.	c #933E46",
"-.	c #933F46",
";.	c #C7524D",
">.	c #923E46",
",.	c #482A3A",
"'.	c #582B41",
").	c #492A3A",
"!.	c #C6514C",
"~.	c #49293A",
"{.	c #6F3347",
"].	c #6F3346",
"^.	c #592A41",
"/.	c #582A41",
"(.	c #C5504C",
"_.	c #6F3246",
":.	c #913D45",
"<.	c #913E45",
"[.	c #C4504C",
"}.	c #C5504B",
"|.	c #C4504B",
"1.	c #4A293A",
"2.	c #582A40",
"3.	c #C44F4B",
"4.	c #C34F4B",
"5.	c #4A2939",
"6.	c #903D45",
"7.	c #6F3245",
"8.	c #582940",
"9.	c #C24F4A",
"0.	c #6E3245",
"a.	c #6E3145",
"b.	c #4A2839",
"c.	c #492839",
"d.	c #8F3C44",
"e.	c #C14E4A",
"f.	c #C04E4A",
"g.	c #58293F",
"h.	c #8E3C44",
"i.	c #8E3B44",
"j.	c #57293F",
"k.	c #6D3145",
"l.	c #6D3144",
"m.	c #6E3144",
"n.	c #6D3044",
"o.	c #BF4D49",
"p.	c #492838",
"q.	c #4A2838",
"r.	c #4A2738",
"s.	c #492738",
"t.	c #8D3B43",
"u.	c #BE4D49",
"v.	c #58283F",
"w.	c #57283F",
"x.	c #6D3043",
"y.	c #6C3043",
"z.	c #BD4C48",
"A.	c #BD4C49",
"B.	c #57283E",
"C.	c #8C3A43",
"D.	c #8C3A42",
"E.	c #BC4C48",
"F.	c #6B2F43",
"G.	c #6C2F43",
"H.	c #BB4B48",
"I.	c #492737",
"J.	c #4A2737",
"K.	c #8B3A42",
"L.	c #57273D",
"M.	c #57273E",
"N.	c #6C2F42",
"O.	c #8B3942",
"P.	c #56273E",
"Q.	c #4A2637",
"R.	c #8A3942",
"S.	c #56273D",
"T.	c #6B2F42",
"U.	c #BA4B47",
"V.	c #492637",
"W.	c #B94B47",
"X.	c #8A3941",
"Y.	c #893941",
"Z.	c #6B2E42",
"`.	c #B94A47",
" +	c #6A2F42",
".+	c #6A2E42",
"++	c #6A2E41",
"@+	c #B84A46",
"#+	c #B84A47",
"$+	c #56263D",
"%+	c #492636",
"&+	c #B74A46",
"*+	c #883841",
"=+	c #893841",
"-+	c #883840",
";+	c #56263C",
">+	c #55263D",
",+	c #55263C",
"'+	c #893840",
")+	c #482536",
"!+	c #492536",
"~+	c #B74946",
"{+	c #692E41",
"]+	c #B64945",
"^+	c #B64946",
"/+	c #873740",
"(+	c #873840",
"_+	c #692D41",
":+	c #692D40",
"<+	c #492535",
"[+	c #B54845",
"}+	c #54263C",
"|+	c #682D40",
"1+	c #B44845",
"2+	c #55253B",
"3+	c #482535",
"4+	c #86373F",
"5+	c #54253B",
"6+	c #54263B",
"7+	c #85373F",
"8+	c #482435",
"9+	c #672C3F",
"0+	c #682C3F",
"a+	c #B24744",
"b+	c #472434",
"c+	c #482434",
"d+	c #84363F",
"e+	c #84363E",
"f+	c #54253A",
"g+	c #B14744",
"h+	c #53253A",
"i+	c #662C3E",
"j+	c #662C3F",
"k+	c #B04643",
"l+	c #53243A",
"m+	c #472334",
"n+	c #462434",
"o+	c #83353E",
"p+	c #83363E",
"q+	c #AF4643",
"r+	c #82353D",
"s+	c #652B3E",
"t+	c #652B3D",
"u+	c #AE4542",
"v+	c #522439",
"w+	c #462334",
"x+	c #462333",
"y+	c #472333",
"z+	c #81353D",
"A+	c #81343D",
"B+	c #AD4542",
"C+	c #512439",
"D+	c #642B3D",
"E+	c #642A3D",
"F+	c #AC4442",
"G+	c #512339",
"H+	c #462332",
"I+	c #452333",
"J+	c #AC4441",
"K+	c #522338",
"L+	c #512338",
"M+	c #80343C",
"N+	c #7F343C",
"O+	c #452233",
"P+	c #452232",
"Q+	c #AB4441",
"R+	c #632A3D",
"S+	c #632A3C",
"T+	c #622A3C",
"U+	c #AA4341",
"V+	c #502337",
"W+	c #7F333C",
"X+	c #502338",
"Y+	c #7E333B",
"Z+	c #7F333B",
"`+	c #442232",
" @	c #AA4340",
".@	c #A94340",
"+@	c #61293B",
"@@	c #A74240",
"#@	c #4F2237",
"$@	c #442131",
"%@	c #7D323B",
"&@	c #A84240",
"*@	c #7D323A",
"=@	c #7C323A",
"-@	c #A7423F",
";@	c #4F2236",
">@	c #7C323B",
",@	c #60293A",
"'@	c #60293B",
")@	c #60283A",
"!@	c #A6413F",
"~@	c #442130",
"{@	c #432131",
"]@	c #432130",
"^@	c #7B323A",
"/@	c #A5413F",
"(@	c #A6423F",
"_@	c #4E2236",
":@	c #7B313A",
"<@	c #4E2136",
"[@	c #7B3139",
"}@	c #5F2839",
"|@	c #5F283A",
"1@	c #A3403E",
"2@	c #4D2135",
"3@	c #432030",
"4@	c #422030",
"5@	c #7A3139",
"6@	c #793139",
"7@	c #4E2135",
"8@	c #A2403E",
"9@	c #5D2738",
"0@	c #5D2739",
"a@	c #5E2738",
"b@	c #4C2034",
"c@	c #41202F",
"d@	c #411F2F",
"e@	c #42202F",
"f@	c #783038",
"g@	c #A1403D",
"h@	c #A13F3D",
"i@	c #A23F3D",
"j@	c #4D2035",
"k@	c #4C2134",
"l@	c #4D2034",
"m@	c #773038",
"n@	c #A03F3D",
"o@	c #421F2F",
"p@	c #5C2638",
"q@	c #5C2738",
"r@	c #4B2034",
"s@	c #401F2F",
"t@	c #401F2E",
"u@	c #762F37",
"v@	c #9F3E3C",
"w@	c #4B2033",
"x@	c #4A2034",
"y@	c #752F37",
"z@	c #4A2033",
"A@	c #411F2E",
"B@	c #5C2637",
"C@	c #5B2637",
"D@	c #5A2537",
"E@	c #5B2537",
"F@	c #4A1F33",
"G@	c #401E2E",
"H@	c #401E2D",
"I@	c #3F1E2D",
"J@	c #3F1E2E",
"K@	c #742E36",
"L@	c #5A2637",
"M@	c #9D3D3B",
"N@	c #4A1F32",
"O@	c #491F32",
"P@	c #5A2536",
"Q@	c #5B2536",
"R@	c #592535",
"S@	c #592536",
"T@	c #481E32",
"U@	c #3E1E2D",
"V@	c #3F1E2C",
"W@	c #722D35",
"X@	c #732D35",
"Y@	c #491E32",
"Z@	c #481E31",
"`@	c #3E1E2C",
" #	c #582435",
".#	c #572435",
"+#	c #471E31",
"@#	c #3E1D2C",
"##	c #3D1D2C",
"$#	c #712D34",
"%#	c #702D34",
"&#	c #471E30",
"*#	c #572434",
"=#	c #471D30",
"-#	c #461E31",
";#	c #3C1D2C",
">#	c #562334",
",#	c #562434",
"'#	c #3C1C2B",
")#	c #3D1C2B",
"!#	c #3D1D2B",
"~#	c #6F2C33",
"{#	c #6E2B33",
"]#	c #552333",
"^#	c #461D30",
"/#	c #461D2F",
"(#	c #451D30",
"_#	c #552334",
":#	c #3B1C2B",
"<#	c #562333",
"[#	c #451C2F",
"}#	c #3C1C2A",
"|#	c #3B1C2A",
"1#	c #451D2F",
"2#	c #6D2B32",
"3#	c #6D2B33",
"                                                                                                                                ",
"                                                                                                                                ",
"                                                                                                                                ",
"                                                                                                                                ",
". . . . . . . . + + + + + + . . + . . . + + . . + + + + + . + + . + + . + + . + + + + . + + + + . + + + @ @ + @ + @ @ @ @ @ @ + ",
"# $ # $ $ # # # # # # # # # # # # # # # % # # # % # # # # # # # # % % # # # # # % # % # # # # # # # # % % % % % % % % % % % % % ",
"& & & & * * * * * * * * * * * * * * * * * * * * * * * * * * * * * * * * * * * * * * * * * * * * * = = - = - = = = - - = = = ; = ",
"> , > ' ' , ' ' , ' , , , , ' , , , ' , ' , ' , , , , , , ' , ' ) ' , ' , ' ' , , , ' , , , ' ' ! ! ! ' ' ' ~ ! ' ~ ! ' ~ ~ ! ' ",
"{ ] ] { ] ] ] ] ] ] ] ] ] ] ] { ] ] ] ] ] ] ] { ] { ] ] ] ] ] ] ] ] ] { ] ] ] ] ] ] ] ] ] { ^ ^ ^ ^ ^ ^ ^ ^ ^ ^ ^ ^ ^ ^ ^ ^ ^ ^ ",
"/ / / ( ( ( _ / ( _ _ _ ( / ( _ ( ( ( ( ( _ ( : : < [ [ [ [ ( _ ( _ / ( ( ( ( _ _ ( _ ( ( / ( ( ( } ( ( ( ( ( ( ( ( / ( ( / ( } ",
"| | | | | | | | 1 | | 1 | | | | | | 2 | | | 2 3 : : 2 4 4 4 4 2 3 | | | | | | | | | 1 1 1 1 1 1 1 1 1 1 1 1 1 1 | 1 1 | 1 1 1 1 ",
"5 6 5 5 5 5 5 5 5 5 5 5 5 5 5 5 5 5 3 3 3 3 3 6 3 3 3 6 6 6 6 6 3 3 3 5 5 5 5 5 5 5 5 7 5 5 5 5 5 5 5 5 5 5 5 5 5 5 5 5 5 5 5 5 ",
"3 8 9 8 8 8 9 9 8 9 8 8 8 8 8 8 0 0 0 0 3 3 0 3 0 0 3 3 3 a a a a 3 3 9 8 a 9 8 9 9 9 9 9 9 b 9 9 9 0 0 9 9 c 9 9 9 b 9 9 9 9 9 ",
"d d e f b g g e g g g g g g g d d d d d d d d d d e d d d e e e e e d g d g f h f i f f g g j i g i d d d g g g g j i f i g g g ",
"h h d h h h d h k k k k k k k d d d d d d d d d d d d d d d d h h h h d d d d h k k k k k k k k h k h d d d l k k k k k k k k d ",
"m n d d n n n d l l l l l l l d m d m d m d m m d d m n d m m n n n n n o o o o n p p p p p p p n n n n o o p p p n n p p p o o ",
"q r r r o r s r t t t t t t t s u q q s q q q q q u s o s q q q q n n r v w o w o x t x x x t x r r v y n q t t x x r x x x u q ",
"u u v u v z z z x x x x x x A z z z z z z u u u u u z z z z u z u w v B w v u w u A A A A A A A B B v z z v w A A A A A A B w B ",
"C C C D D E E z F F F F G F F z z z z z E C C C C C z z z z E z C C C D D D D C C G G G G G G G D D D D E D D G G G G G G D D C ",
"H H I H J K L D M M N O O M G L L L L P P I I H H I H Q K L L K L K I I J D I D L O N O N N N N R D L K L L L S O N N O O J D D ",
"T U U V V T T W N N X N X X N T T T T Y Z Z V V U U V Z T T T T T T U U U R R T T ` X X X X X X U R T T T T T X N N X X U R R R ",
" .U U U U U ` U ..............+.+.+.@. . .@.U #.U #.U  .$.$. .+. .$.#.U U #.+.$. .%.....%...%.%.` #.` $.$.$.$.%.......%.$. .` ` ",
"&.*.*.*.*.*.*.` ..............=.-.-.-.&.&.&.*.*.*.*.*.&.=.=.;.&.&.>.*.*.*.*.;.=.=.` ..,.%.,.....'.'.*.` =.=.=...).%.%.,.-.=.*.'.",
"!.*.*.*.*.!.*.*.).).).).).~.).>.>.>.>.>.!.!.*.*.{.].{.!.>.>.>.!.!.>.].{.*.{.!.>.>.^.).~.).).~.).>.^./.{.>.>.>.>.).~.).).>.>.].].",
"(._._._.].(._.(./.~.~.~.~.~.~.:.:.<.:.:.:.(._._._._._.[.:.:.:.}.:.:._._._._.(.:.|.1.1.~.1.~.~.:.:././.2.(.:.:.:.~.1.~.~.:.:._._.",
"3._._._._.4.3.3.2.~.~.1.~.5.~.6.6.4.6.6.6.6._._.7.7._.4.4.6.6.4.6.6.7._._.7.4.6.4.5.1.1.5.5.5.6.6.6.2.2.8.4.6.6.1.5.1.6.6.6._.7.",
"9.0.0.0.a.9.9.9.b.c.b.b.b.b.c.d.d.d.9.d.d.d.d.a.a.a.a.9.9.d.d.e.d.d.a.a.a.a.e.d.e.b.c.b.b.b.b.d.d.d.a.8.8.8.e.8.b.b.b.d.d.d.8.a.",
"a.a.a.a.a.f.f.f.g.b.b.b.b.b.b.h.h.h.i.f.i.i.i.j.k.l.a.k.f.i.i.f.i.i.a.m.k.m.f.i.f.g.c.c.c.b.c.h.i.i.f.a.j.g.g.l.b.c.b.i.i.i.g.j.",
"n.n.n.n.n.o.o.o.p.q.r.q.p.s.p.t.o.t.t.t.u.t.t.v.w.n.n.n.u.t.t.t.t.n.n.n.n.n.u.t.u.w.r.r.r.r.r.t.t.t.u.n.n.v.w.w.r.r.r.t.t.t.w.v.",
"x.x.y.x.x.z.z.A.B.r.s.r.r.r.r.A.C.z.C.D.D.A.D.B.B.B.y.y.A.D.D.C.D.y.y.y.y.y.E.D.z.r.r.r.r.r.r.C.D.D.z.A.y.y.B.B.r.r.r.D.C.D.B.B.",
"F.F.G.F.F.H.H.H.r.s.I.I.r.r.J.K.K.H.H.K.K.K.H.L.L.L.M.N.H.K.K.K.K.G.N.G.N.G.H.O.H.M.J.J.J.J.J.O.K.K.K.H.G.G.N.P.I.Q.I.R.R.R.S.S.",
"T.T.T.T.T.T.U.U.V.V.V.Q.Q.V.V.W.X.X.X.U.X.X.Y.Z.S.S.S.S.`.Y.X.X.Y.Z.T. + + +`.Y.U.S.V.V.Q.V.Q.X.X.X.X.X.W.T. +.+Q.V.V.`.Y.Y.S.S.",
"++.+++++.+.+@+#+$+%+%+%+%+%+%+&+@+&+*+@+&+=+-+;+++>+,+>+*+-+-+=+'+++++++++++&+=+@+$+%+%+%+%+%+*+'+*+=+=+'+++++++)+!+!+-+~+*+,+,+",
"{+{+{+{+{+{+]+^+,+)+!+)+)+)+)+^+^+^+/+(+(+^+/+,+,+{+,+,+,+(+(+(+(+_+:+:+{+_+:+/+^+!+)+)+)+!+)+(+(+/+(+(+(+(+:+:+<+!+<+/+/+[+}+}+",
"|+|+|+|+|+|+1+2+3+3+3+3+3+3+3+1+1+1+1+1+4+1+1+4+5+6+|+5+5+4+4+4+1+|+|+|+|+|+|+4+1+3+5+3+3+3+3+4+4+4+4+4+4+7+5+8+8+8+4+4+4+4+|+5+",
"9+0+0+0+9+9+a+5+b+8+b+8+c+8+c+a+a+a+a+a+d+e+e+a+5+f+f+9+5+d+e+e+a+9+9+9+9+9+9+d+a+5+c+b+c+8+c+e+e+e+a+g+e+e+h+c+c+b+a+g+e+e+h+9+",
"9+i+i+j+i+i+k+l+m+n+n+b+b+n+m+k+k+k+k+k+k+k+o+k+i+l+l+l+j+o+p+o+o+i+i+i+j+i+i+p+k+l+b+m+n+n+b+o+o+p+k+q+o+o+l+m+m+m+k+q+r+o+l+l+",
"s+s+s+s+s+t+u+v+w+x+m+w+x+y+y+u+u+u+u+u+u+u+z+z+v+s+v+v+v+z+z+z+z+v+t+t+s+t+t+z+u+v+w+x+w+w+m+z+z+A+B+u+B+u+v+x+x+x+u+u+u+B+C+v+",
"D+D+E+E+E+D+F+G+H+x+x+I+I+x+I+J+J+J+J+J+F+F+J+J+K+E+E+L+G+M+M+M+M+L+L+E+D+E+E+M+F+L+H+x+I+H+I+N+M+M+M+J+J+J+L+O+x+P+M+Q+F+F+R+L+",
"S+S+S+S+S+T+U+V+P+P+P+P+P+P+P+W+U+U+U+U+U+U+U+U+V+V+X+S+X+Y+W+U+Z+V+V+V+S+S+S+W+U+X+P+P+P+P+`+Y+Y+Y+ @ @.@.@S+`+P+P+Y+Y+T+S+T+T+",
"+@+@+@+@+@+@@@#@#@$@$@$@$@$@$@%@&@@@&@&@&@&@&@&@&@+@#@+@+@*@*@*@&@#@#@#@#@+@+@*@&@#@$@$@$@$@$@=@=@=@&@-@=@-@+@$@$@$@;@>@*@+@+@+@",
",@,@,@'@)@,@!@;@~@$@$@~@{@~@]@^@/@(@!@/@!@/@!@(@/@,@_@_@;@'@^@^@:@,@_@;@<@;@,@^@/@$@]@]@]@]@]@]@:@[@/@/@/@)@)@]@]@]@<@<@<@,@)@)@",
"}@}@}@}@|@|@1@2@3@4@3@4@3@4@4@5@6@1@1@1@1@1@1@1@1@}@}@|@2@|@6@6@2@7@|@2@2@2@2@6@1@4@4@4@4@4@4@4@6@6@8@1@}@}@2@4@4@4@2@2@2@2@2@}@",
"9@0@0@a@0@0@9@b@c@c@d@c@e@c@d@f@f@g@h@h@h@h@h@h@h@0@9@0@b@b@f@i@j@j@b@0@b@k@l@m@n@b@e@d@c@c@c@c@m@m@9@9@9@9@9@o@o@d@0@9@b@b@b@b@",
"p@p@q@q@p@p@p@r@s@s@t@t@t@s@t@u@u@u@u@v@v@v@v@v@v@p@p@p@p@p@u@p@p@w@r@r@p@r@x@y@u@z@t@A@t@A@A@t@y@B@B@p@B@B@B@A@t@t@A@B@z@z@w@w@",
"C@C@C@C@C@D@E@F@G@H@H@H@G@I@J@K@K@L@C@K@K@K@K@M@K@C@E@C@L@C@F@N@F@C@F@O@O@P@O@O@K@O@I@H@I@I@I@I@P@P@P@Q@P@L@P@I@I@I@I@D@Q@D@O@O@",
"R@R@S@R@S@S@R@T@U@I@U@U@I@V@U@W@S@S@S@W@W@W@W@X@X@S@S@R@R@S@S@S@Y@S@S@Z@Z@Z@R@Z@Z@Z@`@`@`@`@U@`@R@R@R@S@R@R@R@`@`@U@`@R@R@R@Z@Z@",
" # # # #.#.# #+#@###@#####@### # #.#.#$#$#$# #%#$#.#.#.# # #.#.#+#&#&#*#+#&#=#*#-#&#;###########*#*#*#*#*#*###########*#*#*#*#*#",
">#,#>#>#>#,#>#=#'#'#'#)#!#'#'#>#>#>#,#~#{#>#>#>#>#>#>#,#,#,#>#>#]#^#>#/#(#^#(#^#^#(#'#'#'#'#'#'#>#_#]#_#>#_#'#'#'#'#:#_#>#<#]#_#",
"]#]#]#]#]#]#]#[#}#|#|#}#}#}#}#]#]#]#]#]#]#]#]#]#]#]#]#]#]#]#]#]#]#]#[#[#[#]#1#[#[#[#|#|#}#|#}#}#]#]#]#]#]#]#|#|#}#|#|#]#]#]#]#]#",
"]#]#]#]#]#2#]#3#}#}#|#}#}#}#}#]#]#]#]#]#]#]#]#]#]#]#]#]#]#]#]#]#]#]#]#[#]#[#[#]#[#[#]#}#|#|#|#}#}#]#]#]#]#]#}#|#|#}#|#]#]#]#]#]#",
"]#]#]#]#3#]#]#]#]#[#}#|#}#|#|#]#]#]#]#]#]#]#]#]#]#]#]#]#]#]#]#]#]#]#]#]#[#[#]#2#[#}#}#1#}#|#|#}#}#|#]#|#]#]#|#}#|#}#}#]#]#]#]#]#",
"]#]#]#]#]#3#]#[#1#[#[#[#[#}#|#|#]#]#]#]#]#]#]#]#]#]#]#]#]#]#]#]#]#]#]#]#]#]#3#[#[#[#|#}#}#|#|#}#|#|#}#|#|#]#|#}#|#}#}#]#]#]#]#]#",
"]#]#]#3#1#]#[#}#1#1#}#[#1#}#[#}#|#|#]#|#]#]#]#]#]#]#]#]#]#]#]#]#]#]#]#]#2#2#]#[#[#}#}#1#|#}#1#}#[#|#}#}#|#}#|#}#}#|#}#]#]#]#]#]#",
"]#]#[#]#]#1#|#|#|#[#}#}#|#|#|#1#|#|#}#}#|#]#]#]#]#]#]#]#]#]#]#]#]#]#]#]#[#]#]#[#]#|#[#|#|#}#|#|#|#}#|#1#|#|#|#}#}#}#[#}#]#[#1#[#",
"[#[#[#[#[#|#}#[#}#}#[#}#}#[#|#}#}#[#|#|#}#|#}#]#]#]#]#]#]#]#]#]#]#[#[#1#1#[#[#1#}#|#}#}#}#|#|#}#}#|#}#|#}#|#|#|#|#}#|#|#[#[#|#[#",
"}#|#}#|#|#}#}#|#}#|#|#|#}#|#|#|#|#|#}#|#|#[#}#}#}#[#[#1#1#]#[#|#[#[#1#}#[#|#[#|#|#}#|#1#|#}#}#}#}#|#|#}#}#}#[#[#}#}#|#|#}#}#}#|#",
"}#[#}#[#|#}#|#[#1#}#|#|#|#}#}#}#|#|#}#[#[#|#|#|#}#|#}#[#}#|#|#[#}#}#}#|#}#}#}#}#}#|#|#|#|#|#}#}#|#|#|#}#|#[#}#|#|#|#}#|#}#[#}#}#",
"|#}#|#|#}#}#}#}#}#}#|#}#|#|#}#[#|#|#|#|#|#|#}#|#}#|#|#}#}#|#[#}#|#|#|#}#|#}#}#|#}#|#}#}#}#|#}#}#|#|#}#|#|#}#}#}#|#}#|#|#}#|#|#1#",
"|#|#[#|#|#|#|#}#|#|#[#}#}#}#|#|#[#|#}#}#|#}#}#}#|#|#|#}#|#1#|#1#|#}#}#}#|#}#|#}#}#}#}#}#}#|#}#[#}#|#}#}#}#}#|#|#|#|#}#}#|#|#|#}#",
"}#}#|#}#|#}#}#|#|#}#}#1#|#}#|#}#|#}#|#|#}#}#|#|#[#|#[#|#|#|#}#}#}#}#}#}#}#|#|#}#}#|#|#|#}#|#|#|#|#}#}#}#}#}#}#|#|#}#|#|#|#|#|#}#",
"|#}#|#|#|#}#|#|#}#}#[#}#}#|#}#}#}#|#}#|#}#|#}#|#|#}#}#}#|#|#}#}#}#}#[#}#|#}#|#|#|#}#}#}#}#}#|#|#}#|#|#}#}#}#}#|#}#|#}#}#}#|#|#|#",
"}#|#}#}#|#}#|#}#}#|#}#|#}#}#|#}#|#|#|#}#}#|#}#}#}#}#}#}#|#}#}#|#|#}#|#}#}#}#}#|#}#|#}#}#|#}#|#|#}#|#}#|#|#}#}#}#}#|#}#|#}#}#}#}#",
"|#|#|#}#|#}#}#}#|#}#}#}#|#|#|#}#|#}#}#}#}#|#|#|#}#}#}#|#}#}#}#|#}#|#|#}#|#}#|#|#}#}#}#|#|#}#|#}#}#|#|#|#}#|#|#}#}#}#}#}#}#}#|#|#"};
