/* XPM */
static char *tile0001720724170[] = {
/* columns rows colors chars-per-pixel */
"64 64 2 1 ",
"  c #0000FF",
". c #FF4747",
/* pixels */
"                                                                ",
"                                                                ",
"                                                                ",
"                                                                ",
"                                                                ",
"                                                                ",
"                                                                ",
"                                                                ",
"                                                                ",
"                                                                ",
"                                                                ",
"                                                                ",
"                                                                ",
"                                                                ",
"                                                                ",
"                                                                ",
"                                                                ",
"                                                                ",
"                                                                ",
"                          .......                               ",
"                          .......                               ",
"                          ........                              ",
"                          ........                              ",
"                         ..........                             ",
"                        ..........                              ",
"                          ........                              ",
"                          ..........                            ",
"                          ........ ..                           ",
"                        ..........                              ",
"                       ............                             ",
"                       .............                            ",
"                       .............                            ",
"                       .............                            ",
"                       .............                            ",
"                       .............                            ",
"                       ..............                           ",
"                        .............                           ",
"                        .............                           ",
"                        .............                           ",
"                        .............                           ",
"                       ..............                           ",
"                       ................                         ",
"                      ..................                        ",
"                      ...................                       ",
"                      ....................                      ",
"                      ...................                       ",
"                      . .. .... .. .. ..                        ",
"                           . .. .  ..                           ",
"                                                                ",
"                                                                ",
"                                                                ",
"                                                                ",
"                                                                ",
"                                                                ",
"                                                                ",
"                                                                ",
"                                                                ",
"                                                                ",
"                                                                ",
"                                                                ",
"                                                                ",
"                                                                ",
"                                                                ",
"                                                                "
};
