/* XPM */
static char *tile0041720864456[] = {
/* columns rows colors chars-per-pixel */
"120 80 9 1 ",
"  c #0000FF",
". c #1A0E13",
"X c #362917",
"o c #3A3836",
"O c #69552A",
"+ c #833C22",
"@ c #9F803F",
"# c #868273",
"$ c #C7C7B0",
/* pixels */
"                                                                                                                        ",
"                                                                                                                        ",
"                                                                                                                        ",
"                                                                                                                        ",
"                                                                                                                        ",
"                                                                                                                        ",
"                                                                                                                        ",
"                                                                                                                        ",
"                                                                                                                        ",
"                                                                                                                        ",
"                                                                                                                        ",
"                                                                                                                        ",
"                                                                                                                        ",
"                                                                                                                        ",
"                                                                                                                        ",
"                                                                                                                        ",
"                                                                                                                        ",
"                                                                                                                        ",
"                                                                                                                        ",
"                                                                                                                        ",
"                                                                                                                        ",
"                                                                                                                        ",
"                                                                                                                        ",
"                                                                                                                        ",
"                                                                                                                        ",
"                                                                                                                        ",
"                                                                                                                        ",
"                                                                                                                        ",
"                                                                                                                        ",
"                                                                                                                        ",
"                                                                                                                        ",
"                                                                                                                        ",
"                                                                                                                        ",
"                                                                                                                        ",
"                                                                                                                        ",
"                                                                                                                        ",
"                                                                                                                        ",
"                                                                                                                        ",
"                                                                                                                        ",
"                                                                                                                        ",
"                                                                                                                        ",
"                                                          ....                                                          ",
"                                                         .##oo.                                                         ",
"                                                        .##$#oo.                                                        ",
"                                                        .####...                                                        ",
"                                                        .ooo##$..                                                       ",
"                                                        .oo$o$$#.                                                       ",
"                                                        .oo$$##o.                                                       ",
"                                                      ..+.o###o.                                                        ",
"                                                     .o+++.o#o..                                                        ",
"                                                    .o+++++...+. ..                                                     ",
"                                                   .oo+..##+++#..OO.                                                    ",
"                                                  .X.o..#####$#.O@OO.                                                   ",
"                                                  .XX...###$$.oO@@@O.                                                   ",
"                                                  ..X...o$$...oOo@@@.                                                   ",
"                                                  .o.......OOo.##oo.                                                    ",
"                                                  .oo....O@@@O####.                                                     ",
"                                                   .o.....@@@O###.                                                      ",
"                                                   .oOOO...@@O##.                                                       ",
"                                                    .OOOO$##$...                                                        ",
"                                                   .##OOO$$$$.                                                          ",
"                                                  .##$##oooooo..                                                        ",
"                                                 .#$$##.oo...ooo.                                                       ",
"                                                 .$###$.o........                                                       ",
"                                                 ..$$$.oo.......o.                                                      ",
"                                                  ....ooo......o##.                                                     ",
"                                                  ..oooo. .....o##.                                                     ",
"                                                 ..###oo.  ...ooo..                                                     ",
"                                                 ..##$$.     ......                                                     ",
"                                              .....o#$$.     ......                                                     ",
"                                             ....oooooo.     .....                                                      ",
"                                            o.#oooooo..     ...o..                                                      ",
"                                            #o.#ooo..       .oo.o.                                                      ",
"                                            ##.#...         ...##o.                                                     ",
"                                            $$o.             .o###o.                                                    ",
"                                            $$.                 ##o.                                                    ",
"                                            ..                                                                          ",
"                                                                                                                        ",
"                                                                                                                        ",
"                                                                                                                        "
};
