/* XPM */
static char *tile0071720864457[] = {
/* columns rows colors chars-per-pixel */
"120 80 9 1 ",
"  c #0000FF",
". c #1A0E13",
"X c #362917",
"o c #3A3836",
"O c #69552A",
"+ c #833C22",
"@ c #9F803F",
"# c #868273",
"$ c #C7C7B0",
/* pixels */
"                                                                                                                        ",
"                                                                                                                        ",
"                                                                                                                        ",
"                                                                                                                        ",
"                                                                                                                        ",
"                                                                                                                        ",
"                                                                                                                        ",
"                                                                                                                        ",
"                                                                                                                        ",
"                                                                                                                        ",
"                                                                                                                        ",
"                                                                                                                        ",
"                                                                                                                        ",
"                                                                                                                        ",
"                                                                                                                        ",
"                                                                                                                        ",
"                                                                                                                        ",
"                                                                                                                        ",
"                                                                                                                        ",
"                                                                                                                        ",
"                                                                                                                        ",
"                                                                                                                        ",
"                                                                                                                        ",
"                                                                                                                        ",
"                                                                                                                        ",
"                                                                                                                        ",
"                                                                                                                        ",
"                                                                                                                        ",
"                                                                                                                        ",
"                                                                                                                        ",
"                                                                                                                        ",
"                                                                                                                        ",
"                                                                                                                        ",
"                                                                                                                        ",
"                                                                                                                        ",
"                                                                                                                        ",
"                                                                                                                        ",
"                                                                                                                        ",
"                                                                                                                        ",
"                                                                                                                        ",
"                                                                                                                        ",
"                                                                                                                        ",
"                                                                                                                        ",
"                                                         ....                                                           ",
"                                                        .##oo.                                                          ",
"                                                       .##$#oo.                                                         ",
"                                                       .####...                                                         ",
"                                                       .oo##$$..                                                        ",
"                                                       .o$o$$##.                                                        ",
"                                                      ..o#$$#oo.                                                        ",
"                                                     .++.o###o.                                                         ",
"                                                    .++++.o#o..                                                         ",
"                                                   .o.##++...+.                                                         ",
"                                                  .o.####++$+$.                                                         ",
"                                                  ..#####oo#$.                                                          ",
"                                                  ..$####.###.                                                          ",
"                                                 .X..$$$.o#$#.                                                          ",
"                                                 .X.....o#$$o.                                                          ",
"                                                 .X..@@@oo##o.                                                          ",
"                                                  ...@@@oo#o.                                                           ",
"                                                  ...@OO.ooo.                                                           ",
"                                                  ...O###...                                                            ",
"                                                  .##o####..                                                            ",
"                                                 .###$o##oO.                                                            ",
"                                                 .#$$##oo@@O.                                                           ",
"                                                 .$###$O@@@@.                                                           ",
"                                                 .O$$$OoO@@O.                                                           ",
"                                                  .OOO.ooOO.                                                            ",
"                                                   ....ooo..                                                            ",
"                                                    ...#oo.                                                             ",
"                                                   ..o#$#o.                                                             ",
"                                                 ...oo#$$$.                                                             ",
"                                                ...oooo#$.                                                              ",
"                                               o.#oooo...                                                               ",
"                                               #oo#o.....                                                               ",
"                                               ##o#.....                                                                ",
"                                               $$o....o.                                                                ",
"                                               $$. .oo.o..                                                              ",
"                                               ..  ...##oo.                                                             ",
"                                                   ..o###o.                                                             "
};
