/* XPM */
static char *tile0021720538945[] = {
/* columns rows colors chars-per-pixel */
"64 64 8 1 ",
"  c #0000FF",
". c #0D051B",
"X c #13042B",
"o c #2C1A49",
"O c #B14E4E",
"+ c #53BACA",
"@ c #CEE9ED",
"# c white",
/* pixels */
"                                                                ",
"                                                                ",
"                                                                ",
"                                                                ",
"                                                                ",
"                                                                ",
"                                                                ",
"                                                                ",
"                                                                ",
"                                                                ",
"                                                                ",
"                                                                ",
"                                                                ",
"                                                                ",
"                                                                ",
"                                                                ",
"                                                                ",
"                                                                ",
"                                                                ",
"                                                                ",
"                                                                ",
"                                                                ",
"                                                                ",
"                                                                ",
"                                                                ",
"                                                                ",
"                                                                ",
"                                                                ",
"                                                                ",
"                                                                ",
"                                                                ",
"                                                                ",
"                                                                ",
"                                                                ",
"                                                                ",
"                                                                ",
"                                                                ",
"                                                                ",
"                                                                ",
"                                                                ",
"           ..    ..                                             ",
"          .@@. ..#.                                             ",
"         .@@@..###.                                             ",
"        .@@#.#####.  ..                                         ",
"       .####.######..#.   .       .                             ",
"       .##@#OOOO###.#.   .#.   ...@.. .                         ",
"      .O#@#OOOOO####.. ..##....@.#..#.#.. .                     ",
"    ..O##@#OOOOO#####..oooo###..####o####.#..                   ",
"   .@@####OOOOO######ooooooo#o###oo##oooo####..                 ",
"  .@.oo####OOOO#####ooooooooo#ooo#oo#oooooooooo..               ",
"  .@@#######OO#######oooXoooo#ooo#oo#oooooooooooo...            ",
"   .@##############o###ooXoooo#oo#oo#oooooooo.oooooo..   ...... ",
"    ...##.o########ooooooXoooo#oo#oo#ooooooooo.ooooooo...ooooo. ",
"     .@.#..o##o#####ooooooXooo#o#oo#oooooooooo.ooooooooooooooo. ",
"      .@.#..o#ooooooooooooo.oo#o#o#ooooo.ooooo.oooooooooooooo.  ",
"       ....oooooooooo.ooooo..#ooooooooo..ooooo.....oooooooo..   ",
"            ...XXXX.. .ooooo.oooooooo..X.ooooo.    ..ooo...     ",
"               .XXX..  .oooo..ooo....XXXX.oooo.      ...        ",
"                .XXX.. .ooooo....  .XXXXX .oooo.                ",
"                .XXX..  .oooo.      .XXX. .oooo.                ",
"                .XXX.   .oooo.      .XX.   .ooo.                ",
"               ..@@..  .#@#oo.     .X@X.    .###.               ",
"              .@+@@@. .#@#@#.      .@+@@.   .#@#.               ",
"             .@+@@@@. .#@###.     .@+@@@.  .#@###.              "
};
