/* XPM */
static char *tile0041720538945[] = {
/* columns rows colors chars-per-pixel */
"64 64 8 1 ",
"  c #0000FF",
". c #0D051B",
"X c #13042B",
"o c #2C1A49",
"O c #B14E4E",
"+ c #53BACA",
"@ c #CEE9ED",
"# c white",
/* pixels */
"                                                                ",
"                                                                ",
"                                                                ",
"                                                                ",
"                                                                ",
"                                                                ",
"                                                                ",
"                                                                ",
"                                                                ",
"                                                                ",
"                                                                ",
"                                                                ",
"                                                                ",
"                                                                ",
"                                                                ",
"                                                                ",
"                                                                ",
"                                                                ",
"                                                                ",
"                                                                ",
"                                                                ",
"                                                                ",
"                                                                ",
"                                                                ",
"                                                                ",
"                                                                ",
"                                                                ",
"                                                                ",
"                                                                ",
"                                                                ",
"                                                                ",
"                                                                ",
"                                                                ",
"                                                                ",
"                                                                ",
"                                                                ",
"                                                                ",
"                                                                ",
"                                                                ",
"                                                                ",
"           ..    ..                                             ",
"          .@@. ..#.                                             ",
"         .@@@..###.                                             ",
"        .@@#.###OO.                                             ",
"       .####.###OO#. ..   .       .                             ",
"       .##@##OO####..#.  .#.   ...@.. .                         ",
"      .O#@#OOOOO#####. ..##....@.#..#.#.. .                     ",
"    ..O##@OOOOOO####...oooo###..####o####.#..                   ",
"   .@@####OOOOO######..ooooo#o###oo##oooo####..                 ",
"  .@.oo###OOOOO######oooooooo#ooo#oo#oooooooooo..               ",
"  .@@######OOO######ooooXoooo#ooo#oo#oooooooooooo...            ",
"   .@################ooooXoooo#oo#oo#oooooooo.oooooo..   ...... ",
"    ...##.o########o###ooXoooo#oo#oo#ooooooooo.ooooooo...ooooo. ",
"     .@.#..o##o####oooooooXooo#o#oo#oooooooooo.ooooooooooooooo. ",
"      .@.#..o#ooo###ooooooo.oo#o#o#ooooo.ooooo.oooooooooooooo.  ",
"       .....ooooooooo..ooooo.#ooooooooo..ooooo.....oooooooo..   ",
"            ...XXXX..  .oooo.oooooooo..X.ooooo.    ..ooo...     ",
"               .XXXX.  .ooooo.ooo....XXXX.oooo.      ...        ",
"                .XXXX.  .oooo....  .XXXXX .oooo.                ",
"                 .XXX.  .oooo.      .XXX. .oooo.                ",
"                 .XX.   .oooo.      .XX.   .ooo.                ",
"               ..@@..  .#@#oo.     .X@X.    .###.               ",
"              .@+@@@. .#@#@#.      .@+@@.   .#@#.               ",
"             .@+@@@@. .#@###.     .@+@@@.  .#@###.              "
};
