/* XPM */
static char *tile0011720538944[] = {
/* columns rows colors chars-per-pixel */
"64 64 8 1 ",
"  c #0000FF",
". c #0D051B",
"X c #13042B",
"o c #2C1A49",
"O c #B14E4E",
"+ c #53BACA",
"@ c #CEE9ED",
"# c white",
/* pixels */
"                                                                ",
"                                                                ",
"                                                                ",
"                                                                ",
"                                                                ",
"                                                                ",
"                                                                ",
"                                                                ",
"                                                                ",
"                                                                ",
"                                                                ",
"                                                                ",
"                                                                ",
"                                                                ",
"                                                                ",
"                                                                ",
"                                                                ",
"                                                                ",
"                                                                ",
"                                                                ",
"                                                                ",
"                                                                ",
"                                                                ",
"                                                                ",
"                                                                ",
"                                                                ",
"                                                                ",
"                                                                ",
"                                                                ",
"                                                                ",
"                                                                ",
"                                                                ",
"                                                                ",
"                                                                ",
"                                                                ",
"                                                                ",
"                                                                ",
"                                                                ",
"                                                                ",
"           ..    ..                                             ",
"          .@@. ..#.                                             ",
"         .@@@..###.                                             ",
"        .@@#.#####.                                             ",
"       .####.######. ..   .                                     ",
"       .##@##OOO###..#.  .#.   .  .                             ",
"      .O#@##OOOO#####. ..##....@..@.. .                         ",
"    ..O##@#OOOOO####...oooo###...#..#.#.. .                     ",
"   .@@####OOOOOO#####..ooooo#o######o####.#..                   ",
"  .@.oo###OOOOO######oooooooo#oo#oo##oooo####..                 ",
"  .@@######OOO######ooooooooo#ooo#oo#oooooooooo..               ",
"   .@################oooXooooo#oo#oo#oooooooooooo..         ... ",
"    ...##.o########o###ooXoooo#oo#oo#oooooooo.ooooo...   ...oo. ",
"     .@.#..o##o####ooooooXoooo#oo#oo#ooooooooo.ooooooo...o..oo. ",
"      .@.#..o#ooo###ooooooXooo#o#oo#oooooooooo.oooooooooooooo.  ",
"       .....ooooooooooooooo.o#o#oo#ooooo.ooooo.ooooooooooooo.   ",
"            ...XXXX...ooooo.#oooooooooo..ooooo...oooooooooo.    ",
"               .XXX.  .ooooo.oooooooo..X.ooooo. .....ooo...     ",
"               .XXX.   .oooo.oooo....XXXX.oooo.      ...        ",
"                .XXX.  .ooooo....  .XXXXX .oooo.                ",
"                .XXX.   .oooo.      .XXX. .oooo.                ",
"                .XXX.   .oooo.      .XX.   .ooo.                ",
"               ..@@..  .#@#oo.     .X@X.    .###.               ",
"              .@+@@@. .#@#@#.      .@+@@.   .#@#.               ",
"             .@+@@@@. .#@###.     .@+@@@.  .#@###.              "
};
