/* XPM */
static char *tile0031720538944[] = {
/* columns rows colors chars-per-pixel */
"64 64 8 1 ",
"  c #0000FF",
". c #0D051B",
"X c #13042B",
"o c #2C1A49",
"O c #B14E4E",
"+ c #53BACA",
"@ c #CEE9ED",
"# c white",
/* pixels */
"                                                                ",
"                                                                ",
"                                                                ",
"                                                                ",
"                                                                ",
"                                                                ",
"                                                                ",
"                                                                ",
"                                                                ",
"                                                                ",
"                                                                ",
"                                                                ",
"                                                                ",
"                                                                ",
"                                                                ",
"                                                                ",
"                                                                ",
"                                                                ",
"                                                                ",
"                                                                ",
"                                                                ",
"                                                                ",
"                                                                ",
"                                                                ",
"                                                                ",
"                                                                ",
"                                                                ",
"                                                                ",
"                                                                ",
"                                                                ",
"                                                                ",
"                                                                ",
"                                                                ",
"                                                                ",
"                                                                ",
"                                                                ",
"                                                                ",
"                                                                ",
"                                                                ",
"                                                                ",
"           ..    ..                                             ",
"          .@@. ..#.                                             ",
"         .@@@..###.                                             ",
"        .@@#.#####.                                             ",
"       .####.##O###. ..   .       .                             ",
"       .##@##OOO###..#.  .#.   ...@.. .                         ",
"      .O#@##OOOO#####. ..##....@.#..#.#.. .                     ",
"    ..O##@OOOOO#####...oooo###..####o####.#..                   ",
"   .@@####OOOOO######..ooooo#o###oo##oooo####..                 ",
"  .@.oo####OOOO######oooooooo#ooo#oo#oooooooooo..               ",
"  .@@######OOOO#####ooooXoooo#ooo#oo#oooooooooooo...            ",
"   .@################ooooXoooo#oo#oo#oooooooo.oooooo....        ",
"    ...##.o########o###ooXoooo#oo#oo#ooooooooo.ooooooooo...     ",
"     .@.#..o##o####oooooooXooo#o#oo#oooooooooo.oooooooooooo.... ",
"      .@.#..o#ooo###ooooooo.oo#o#o#ooooo.ooooo...ooooooooooooo. ",
"       .....ooooooooo..ooooo.#ooooooooo..ooooo. ...ooo...ooooo. ",
"            ...XXXX.. ..oooo.oooooooo..X.ooooo.    ...   ..oo.  ",
"               .XXXX.  .ooooo.ooo....XXXX.oooo.            ..   ",
"                .XXXX.  .oooo....  .XXXXX .oooo.                ",
"                 .XXX.  .oooo.      .XXX. .oooo.                ",
"                 .XX.   .oooo.      .XX.   .ooo.                ",
"               ..@@..  .#@#oo.     .X@X.    .###.               ",
"              .@+@@@. .#@#@#.      .@+@@.   .#@#.               ",
"             .@+@@@@. .#@###.     .@+@@@.  .#@###.              "
};
