/* XPM */
static char *tile0011720724080[] = {
/* columns rows colors chars-per-pixel */
"64 64 9 1 ",
"  c #0000FF",
". c black",
"X c #0E0E0E",
"o c #161616",
"O c #1E1E1E",
"+ c #351F1F",
"@ c gray23",
"# c #421919",
"$ c #FF4747",
/* pixels */
"                                                                ",
"                                                                ",
"                                                                ",
"                                                                ",
"                                                                ",
"                                                                ",
"                                                                ",
"                                                                ",
"                                                                ",
"                                                                ",
"                                                                ",
"                                                                ",
"                                                                ",
"                                                                ",
"                                                                ",
"                                                                ",
"                                                                ",
"                                                                ",
"                                                                ",
"                          ooooooo                               ",
"                          ooooooo                               ",
"                          oooooooX                              ",
"                          oooooooX                              ",
"                         oooooooooX                             ",
"                        oooooooooo                              ",
"                          XXX#$@@@                              ",
"                          oXXX+@@@@@                            ",
"                          oXXXXXXX @@                           ",
"                        $oXXXXXXXX                              ",
"                       $$oXXXXXXXXX                             ",
"                       $$oXXXXXXXXXX                            ",
"                       $$oXXXXXXXXXX                            ",
"                       $$oXXXXXXXXXX                            ",
"                       $oXXXXXXXOXXX                            ",
"                       $oXXXXXXXOXXX                            ",
"                       $oXXXXXXXOOXXX                           ",
"                        oXXXXXXXOOXXX                           ",
"                        XXXXXXXXXOXXX                           ",
"                        XXXXXXXXXOOXX                           ",
"                        XXXXXXXXXOOXX                           ",
"                       XXXXXXXXXXOOXX                           ",
"                       XXXXXXXXXXOOXXXX                         ",
"                      XXXXXXXXXXXOOXXoXX                        ",
"                      XXXXXXXXXXOOOOOXXXX                       ",
"                      XXXXXoXXXOOOOOOXoXXX                      ",
"                      XXXXoXX.XOOOOOOOXoX                       ",
"                      X XX XX.X OO OX XX                        ",
"                           X .. O  ..                           ",
"                                                                ",
"                                                                ",
"                                                                ",
"                                                                ",
"                                                                ",
"                                                                ",
"                                                                ",
"                                                                ",
"                                                                ",
"                                                                ",
"                                                                ",
"                                                                ",
"                                                                ",
"                                                                ",
"                                                                ",
"                                                                "
};
