/* XPM */
static char *tile0031720725651[] = {
/* columns rows colors chars-per-pixel */
"80 64 8 1 ",
"  c #0000FF",
". c #060606",
"X c gray7",
"o c #1E1E1E",
"O c #2A2A2A",
"+ c #2F2F2F",
"@ c #474646",
"# c #F1FBFF",
/* pixels */
"                                                                                ",
"                                                                                ",
"                                                                                ",
"                                                                                ",
"                                                                                ",
"                                                                                ",
"                                                                                ",
"                                                                                ",
"                                                                                ",
"                                                                                ",
"                                                                                ",
"                                                                                ",
"                                                                                ",
"                                                                                ",
"                                                                                ",
"                                      +     O                                   ",
"                                     +++    OO                                  ",
"                                    +@+    OO                                   ",
"                                   +@@+   OOO                                   ",
"                                   +@@++++OOO                                   ",
"                                  +@@@+++++++                                   ",
"                                 +++@+++++++++                                  ",
"                                 +++++++++++++                                  ",
"                                 ++++++++#++#+                                  ",
"                                 +##++++++#++#                                  ",
"                                 #####++++#++#                                  ",
"                                 ######+++++++++                                ",
"                                #########++++++oo                               ",
"                                ##########+++oooo                               ",
"                                ###########+++++                                ",
"                                ############O                                   ",
"                                #############o                                  ",
"                                #############o                                  ",
"                                ############oo                                  ",
"                                 ###########oo                                  ",
"                                 o##########oo                                  ",
"                                 ooo########oo                                  ",
"                                 oooo#######oo                                  ",
"                                  oooo#####ooo                                  ",
"                                  oooooo###ooo                                  ",
"                                  ooooooX##oo+                                  ",
"                                 oooooooXXXoo+                                  ",
"                                 oooooooXXXoo+                                  ",
"                                 ooooooXXXXXo                                   ",
"                                 oooooXXXXXXo                                   ",
"                                 ooooXXXXXXXo                                   ",
"                                 oooooXXXXXoo                                   ",
"                                 oooooXXXXXoo                                   ",
"                                 ooooo.XXXXooo                                  ",
"                                oooooo.XXXXooo                                  ",
"                               oooooooXXX..Xoo                                  ",
"                               ooooooo XX..Xooo                                 ",
"                                                                                ",
"                                                                                ",
"                                                                                ",
"                                                                                ",
"                                                                                ",
"                                                                                ",
"                                                                                ",
"                                                                                ",
"                                                                                ",
"                                                                                ",
"                                                                                ",
"                                                                                "
};
