/* XPM */
static char * wall_txt_2_xpm[] = {
"64 64 7 1",
" 	c #000000",
".	c #17141C",
"+	c #100E13",
"@	c #1F1B29",
"#	c #282638",
"$	c #383C4D",
"%	c #4E5663",
"                            .+++        .+@                     ",
"       +++++++     @@#####@@#. @.     .+++#       @ +           ",
"@    @#     +++@@@@++++++++++++++   .#@@$$$$$.      $  ##@++....",
"##@   ...... @####@++@++@#+@+++++@++++   @@#@@ ..@@. +          ",
"  ................  @##@@@@#@+++@@@++++++++++ ..@++@ .#@..++++++",
"......................  ####@++@+@@@#### @...@#@@@@@##@@@@@.@..+",
"..........................    ##@@####@ ..@@.#+########@@@@@@+@@",
"..........@@..........@........     @+@+@@.@.###########@@@@@@@@",
"...........#.......@@++@@@.....@##.@@###+@.#@##############@@@@@",
"#..@@@.@@@@@.@..@@@#@@#+..@@.....@+######+.#################@@@@",
".@..@#.@@@@@...@@#+@@@#+........@@+#######.################@@@@@",
"@##@..@##.....@###@@@@#+@@.....@##+########+$$$$$$#########@@@@@",
"@+++++@###@#@..+$$@@@##+@@.....@@.+#####$$$$$$$$$$$$#######@@@@@",
"@#$$$$$+@#@@+$$$$$@@@##+@......@#.+$$$$$$$$$$$$$$$$$$#######@@@@",
"@#$$$$$$##$$$$$$$$@@@@#+@........@.$$$$$$$$$$$$$$$$$$$######@@@@",
"##%%%%%%$$$$$$$$$$@@@@@.@.@@..@.@#.$$$$$$$$$$$$$$$$$$$######@@@@",
"##%%%%%%%%$$$$$$$$@@@@@....@@.@.@#.%%$$$$%%%%%%$$$$$$$######@@@@",
"@#%%%%%%%%%%$$$$$%@@@##.@.@@....@@#+%$$$%%%%%%%%%%%%%%######@@@#",
"@#%%%%%%%%%%$$$$$%@@@#@.@..@..@..@#.%%$$%%%%%%%%%%%%%%%#####@@@#",
"@@@%%%%%%%%%$$$$%%@@@@%+@@....@..@@.%%$$%%%%%%%%%%%%%%%####%@@@@",
"@@@%%%%%%%%%$$$$%%@@#@%+@.....@#@@..%%$$%%%%%%%%%%%%%%%%###%#@@@",
"@@@%%%%%%%%%$$$$%%@@#%%%......@@###.%%$$%%%%%%%%%%%%%%%%##%%#@@#",
"@@@%%%%%%%%%$$$$%%@@#%%%.@....@@###.%%$$%%%%%%%%%%%%%%%%%#%%#@@#",
"@@@%%%%%%%%%$$$$%%@@#%%%.@.....@###.%%$$%%%%%%%%%%%%%%%%%#%%#@@#",
"@@@%%%%%%%%%$$$$%%@@#%%%.@.....@###.%%$$%%%%%%%%%%%%%%%%%%%%@@@@",
"@@@%%%%%%%%%$$$%%%@@#%%%.@.....@###.%%$$%%%%%%%%%%%%%%%%%%%%@@@@",
"@@@%%%%%%%%%$$$%%%@#@%%%.@...@#@###.%%$$%%%%%%%%%%%%%%%%%%%%@@@@",
"@@@%%%%%%%%%$$$%%%%#@%%%.@...@#.@##.%%$$%%%%%%%%%%%%%%%%%%%@@#@@",
"@@#%%%%%%%%%$$$%%%%#%%%%.@....@.@##.%$$$%%%%%%%%%%%%%%%%%%%@@@@@",
"@@#%%%%%%%%%$$$%%%%#%%%%.@.@..@.@##.%$$$%%%%%%%%%%%%%%%%%%%@@#@#",
"@@#%%%%%%%%%$$$%%%%#%%%%...@....@#@.%$$$%%%%%%%%%%%%%%%%%%%@@###",
"@@#%%%%%%%%%$$$%%%%%%%%%...@.....@#.%$$$%%%%%%%%%%%%%%%%%%%@@@##",
"@@#%%%%%%%%%$$$%%%%%%%%%...@.....@#.%$$$%%%%%%%%%%%%%%%%%%%@@@##",
"%@@%%%%%%%%%$$$%%%%%%%%%@@@.@....@#.%$$$%%%%%%%%%%%%%%%%%%%@@@##",
"%@@%%%%%%%%%$$$%%%%%%%%%@@@....#.@#.%$$%%%%%%%%%%%%%%%%%%%%@@@##",
"%@@%%%%%%%%%$$$%%%%%%%%%@@@@...@.@#.%$$%%%%%%%%%%%%%%%%%%%%@@@##",
"%@#@%%%%%%%%$$$%%%%%%%%%@@@..@.@#.#.%$$%%%%%%%%%%%%%%%%%%%%@@@##",
"%@#@%%%%%%%%$$$%%%%%%%%%@@@.@@#.#.#.%$$%%%%%%%%%%%%%%%%%%%%@@@##",
"%@##%%%%%%%%$$$%%%%%%%%%@@@.@@@...#.%$$$%%%%%%##%%%%%%%%%%%@@@##",
"%@##%%%%%%%%$$$%%%%%%%%%@@@.@@##..@.%$$$%%%%%%##%%%%%%%%%%%@@@##",
"%@@%%%%%%%%%$$$%%%%%%%%%@@@.@@@##...%$$$%%%%%%##%%%%%%%%%%%@@@##",
"@@@%%%%%%%%%$$$$%%%%%%%%@....@##@...%$$$%%%%%%##%%%%%%%%%%%@@@@@",
"@@@%%%%%%%%%$$$#%%%%%%%%@....@@.....%$$$%%%%%%##%%%%%%%%%%%@@@@@",
"@@#@%%%%%%%%$$##%%%%%%%%.@..@@#@#...%$$$%%%%%###%%%%%%%%%%%@@#@@",
"@@#@%%%%%%%%$$###$%%%%%%.@..#@###.#.%$$$%%%%%###%%%%%%%%%%%@@@@@",
"@@#@%%%%%%%%$$###$$%%%%%.@..@@###@#.%%$$%%%%%###%%%%%%%%%%%@@@@@",
"@@#@%%%%%%%%$$###$$%%%%%.@@.@@###@@.%%$$%%%%%###%%%%%%%%%%%@@@#@",
"@@##%%%%%%%$$####$$$$$%%..@.@#####@.%%$$%%%%%###%%%%%%%%%%%@@@#@",
"@@##%%%%$$$$$####$$$$$$%..@.@@##.#..%%$$%%%%%###%%%%%%%%%%%@@@@@",
"@@##%%%$$$$$######$$$$$$@.@..@##.#@@%%$$%%%%%###%%%%%%%%%%%@@@@@",
"@@##$$$$$$$$######$$$$$$@@...@#@@@#.%%$$%%%%%###%%%%%%%%%%%#@@@@",
"@@##$$$$$$$########$$$$$@@...@#..@#.%%$$%%%%%###%%%%%%%%%%%#@@@#",
"@@@#$$$$$$$#########$$$$@@...@...##.%%$$%%%%%###%%%%%%%%%%%#@@@#",
"@@@#@$$$$$$##########$$$.@.......##+%%$$%%%%%###%%%%%%%%%%%#@@##",
"#@@#@$$################$.@@......#@+%%$$%%%%%###%%%%%%%%%%%@@@@#",
"#@@@@###################+.@..@@.##@+@%$$%%%%%###%%%%%%%%%%%@@@@@",
"@@@@@####################.@..@@.##.+@%$$%%%%%###%%%%%%%%%%%@@@@#",
"@@@@@####################.@..@..@#.+@@$$%%%%%###%$$%%%%%%%%@@@@#",
"@@@@#####################.@.....##.@#@$$%%%%%###%$$$%%%%%%%@@@##",
"@@@@#@###################.@.....@@.@#@$$$$%%%###$$$$%%%%%%%@@@##",
"@@@@#####################...@#..#@.@#@$$$$%%%####$$$$$$$$$$@@@@#",
"@@@@@@@##################...@#..@#.@#@$$$$$%$####$$$$$$$$$$#@@@#",
"@@@@@@@##################...@#.@##.@#@$$$$$$$####$$$$$$$$$$@@@@#",
"@@@@@#@##+###############.@.@#.@##.@@@$$$$$$$######$$$$##$$@@@@@"};
