/* XPM */
static char * wall_txt_4_xpm[] = {
"64 64 40 1",
" 	c #000000",
".	c #100E13",
"+	c #17141C",
"@	c #1F1B29",
"#	c #282638",
"$	c #15141F",
"%	c #262435",
"&	c #272536",
"*	c #262436",
"=	c #272537",
"-	c #1B1925",
";	c #1D1C2A",
">	c #1E1C28",
",	c #232030",
"'	c #191724",
")	c #201C2B",
"!	c #221E2E",
"~	c #221F2F",
"{	c #211E2D",
"]	c #16141D",
"^	c #211F2F",
"/	c #1D1B28",
"(	c #1B1823",
"_	c #0C0B14",
":	c #13121D",
"<	c #201E2D",
"[	c #191825",
"}	c #030305",
"|	c #211D2C",
"1	c #0E0D17",
"2	c #1F1D2C",
"3	c #242232",
"4	c #232131",
"5	c #282637",
"6	c #232132",
"7	c #262334",
"8	c #1E1C29",
"9	c #22202E",
"0	c #221F2E",
"a	c #1F1C29",
"     .                     ..        ..     + .    .. . .       ",
"    @+.            ....+  +@+.      @@  @  +++++@@@@@++..       ",
"    .    #. +  ..@ ..@+ ..       ........      @#############@##",
"     @#. #+ + ..@ .  + .@@@......@@###@@@..........          @##",
".....    .  .  .+#@## ...##@@# ++++++   @@@#####@   ++++++++++++",
"............    .........### +++@@@@++++++++++++++++++++++++++++",
"    .      $$$$%&&&&&&&##&**%%%%%   ..     + .$%  .. . .       +",
"%%#########################&*%%%%  @@  @  +####=@@@@++..       @",
"%%$-$;;;#-$>$$..@ ..@+ ..       .......*####$ @#############@##+",
"    @#. #+ + ..@ .  + .@@@......@@###,,=-.........          @##+",
"....    .  .  .+#@## ...##@@# ++++++ ''@@@#####@   ++++++++++++@",
"...........    .........### +++@@@@++++++++++++++++++++++++++++@",
"..#@..@@@......@@@@#@@ +++++++@@.@@@.@@@++@++++@+++++++@@@+++++@",
"..#@.@@####..#.###@ ++++@@@@@.@@@@@@@@@..@.+++@@+@@###@@..##@+@@",
" ..@..@@.@@..... +++@@++@@###.@@)!~{######.@@++@+#####@@@@...++@",
"@@  #######+++++++++@@#+####.@##############)@+@+##++@@@@@@@@.+@",
"@@@@@     ++@+@@+++++##+@##.#################.+#+++@#@@######@@ ",
"#@@@@@@@@@.+@+@+++++++++@#####################@@+++#.########@@ ",
"#####%%################ ###################### @#############@##",
"%###%@#. #+ +$.*##&#####==~.-----@@###@@@........]]%%% #=&^= @##",
".*--.  ''.  /' *######--*##@@# ++++++   @@@#####@^^ +&++#+(&++++",
"......./##-.'&# .........### +++@@@@++++++++++++++++++++++++++++",
"...#@..@@##**.-.@@@@#@@ +>>++++@@.@@@.@@@++@++++@+++++++@@@+++++",
"...#@.@@####*######=%&#####@@@.@@@@@@@@@..@.+++@@+@@###@@..##@+@",
"@ ..@..@@.@@...-*%&&&=~++@@###.@@@@@@######.@@++@+#####@@@@...++",
"@@@  #######+++++++++@@#+####.@####@#########@@+@+##++@@@@@@@@.+",
"@@@@@@     ++@+@@+++++##+@##.#####@###########.+#+++@#@@######@@",
"@#@@@@@@@@@.+@+@+++++++++@#####################@@+++#.########@@",
"###  ._^ _=%#&%^^ #^^#########%%#####.. ^#: + .    .. . . #% %#$",
"##< @+]^ [#%:} __  ..//+  +@># #%^^ @@  |##+((++@@@@@++.. $## ##",
"#^# . #$ #.#&%%**=%--~# ..   %## ........#%#== @#############@##",
"   # @####&&=%**=%*##########***&==###@@@....#-....:##       @##",
".....    -%%######=##%**&############%  @@@#####@   +=++++++++++",
"............  $$-********###$>++@@@@++++++++++++++++++++++++++++",
"...#@..@@@......@@@@#@@ +++++++@@.@@@.@@@++@++++@+++++++@@@+++++",
"...#@.@@####..#.###@ ++++@@@@@.@@@@@@@@@..@.+++@@+@@###@@..##@+@",
"@ ..@..@@.@@..... +++@@++@@###.@@@@@@######.@@++@+#####@@@@...++",
"@@@  #######+++++++++@@#+####.@####@#########@@+@+##++@@@@@@@@.+",
"@@@@@@     ++@+@@+++++##+@##.#####@###########.+#+++@#@@######@@",
"@#@@@@@@@@@.+@+@+++++++++@#####################@@+++#.########@@",
"###%#.$#%##_ ^^%*#   _*%% #.. '&#*1: .._^2#^+ .    .. . #  '##  ",
" ## @+. #3## '&%*^ ..45&% >#+.'& ^6#@@ _7#&5#+++@@@@@++.*% '&#$ ",
" :# .   _#*&+'&..= -###&#.    :} ........  _=##=#############@##",
"  %#%@#* #+ + #5########=@@...###@@###@@~..4#88*..]^#  $#### @##",
".....%#& . '=$#########=.##@@# >9&&&&%%%#@@#####@   +++++++>++++",
".....*=/.../=########=#4.###$&&##===&&&&++++++++++++++++++++++++",
"...#@..@@@.###**###3##3$&&###&&~@.@@@.@@@++@++++@+++++++@@@+++++",
"...#@.@@####-.##########&=~@@@.@@@@@@@@@..@.+++@@+@@###@@..##@+@",
"@ ..@..@@#~=######=&>@@++@@###.@@@@@@######.@@++@+#####@@@@...++",
"@@@  ########=&++++++@@#+####.@####@#########@@+@+##++@@@@@@@@.+",
"@@@@@@    $++@+@@+++++##+@##.#####@###########.+#+++@#@@######@@",
"@#@@@@@@@@@.+@+@+++++++++@#####################@@+++#.########@@",
"#*  '=*=##3   #^^   ##$:#  ..  %#====#. $###+ #%%  .### .  ##   ",
":#& ,=&=#*_   $    ....+  +0a-   ## @@  @  >++>+@@@@@>>..   ==  ",
"  #$.    #. +  ..@ ..@+ .. ###   ........      @#############|##",
"     @#. #+ + ..@ .  + .@@@......@@###@@@..........          @##",
".....    .  .  .+#@## ...##@@# ++++++   @@@#####@   ++++++++++++",
"............    .........### +++@@@@++++++++++++++++++++++++++++",
"...#@..@@@......@@@@#@@ +++++++@@.@@@.@@@++@++++@+++++++@@@+++++",
"...#@.@@####..#.###@ ++++@@@@@.@@@@@@@@@..@.+++@@+@@###@@..##@+@",
"@ ..@..@@.@@..... +++@@++@@###.@@@@@@######.@@++@+#####@@@@...++",
"@@@  #######+++++++++@@#+####.@####@#########@@+@+##++@@@@@@@@.+",
"@@@@@@     ++@+@@+++++##+@##.#####@###########.+#+++@#@@######@@",
"@#@@@@@@@@@.+@+@+++++++++@#####################@@+++#.########@@"};
