/* XPM */
static char *tile0001720725828[] = {
/* columns rows colors chars-per-pixel */
"80 64 2 1 ",
"  c #0000FF",
". c #F1FBFF",
/* pixels */
"                                                                                ",
"                                                                                ",
"                                                                                ",
"                                                                                ",
"                                                                                ",
"                                                                                ",
"                                                                                ",
"                                                                                ",
"                                                                                ",
"                                                                                ",
"                                                                                ",
"                                                                                ",
"                                                                                ",
"                                                                                ",
"                                                                                ",
"                                     .                                          ",
"                              .      ..                                         ",
"                              ..     ..                                         ",
"                              ...    ...                                        ",
"                             ....    ...                                        ",
"                             ...........                                        ",
"                            .............                                       ",
"                           ..............                                       ",
"                           ..............                                       ",
"                           ..............                                       ",
"                           ................                                     ",
"                            ................                                    ",
"                            ................                                    ",
"                            ...............                                     ",
"                             ............                                       ",
"                             .............                                      ",
"                             .............                                      ",
"                             ..............                                     ",
"                            ...............                                     ",
"                            ................                                    ",
"                            ................                                    ",
"                            ................                                    ",
"                            ...............                                     ",
"                             ..............                                     ",
"                             ..............                                     ",
"                             ..............                                     ",
"                             ..............                                     ",
"                              ............                                      ",
"                              ............                                      ",
"                              ............                                      ",
"                              .............                                     ",
"                               ............                                     ",
"                               ............                                     ",
"                               .............                                    ",
"                              ..............                                    ",
"                              ...............                                   ",
"                              ................                                  ",
"                                                                                ",
"                                                                                ",
"                                                                                ",
"                                                                                ",
"                                                                                ",
"                                                                                ",
"                                                                                ",
"                                                                                ",
"                                                                                ",
"                                                                                ",
"                                                                                ",
"                                                                                "
};
