/* XPM */
static char *tile0021720725829[] = {
/* columns rows colors chars-per-pixel */
"80 64 9 1 ",
"  c #0000FF",
". c #060606",
"X c gray7",
"o c #181818",
"O c #1E1E1E",
"+ c #2A2A2A",
"@ c #2F2F2F",
"# c #474646",
"$ c #F1FBFF",
/* pixels */
"                                                                                ",
"                                                                                ",
"                                                                                ",
"                                                                                ",
"                                                                                ",
"                                                                                ",
"                                                                                ",
"                                                                                ",
"                                                                                ",
"                                                                                ",
"                                                                                ",
"                                                                                ",
"                                                                                ",
"                                                                                ",
"                                  @      +                                      ",
"                                  @      ++                                     ",
"                                 @@@     ++                                     ",
"                                 @#@    +++                                     ",
"                                @##@    +++                                     ",
"                                @##@@@@@@@@                                     ",
"                               @###@@@@@@@@@                                    ",
"                              @@@#@@@@@@@@@@                                    ",
"                              @@@@@@@$@@@$@@                                    ",
"                              @@@@@@@@$@@@$@                                    ",
"                              @@@@@@@@$@@@$@                                    ",
"                               @@@@@@@@@@@@@@@                                  ",
"                               @@@@@@@@@@@@@@OO                                 ",
"                               $@@@@@@@@@@OOOOO                                 ",
"                               $$@@@@@@@@@@@@@                                  ",
"                               $OOOO++++++OO                                    ",
"                               OOOOOO++++OOOO                                   ",
"                               OOOOOOO@@OOOOO                                   ",
"                              OOOOOoOOXXXOOOO                                   ",
"                              OOOOOoOO@X@XOOOO                                  ",
"                              OOOOOoOOX@XXOOOO                                  ",
"                              OOOOOoOOX$XXOOOO                                  ",
"                              OOOOOoOO$XXXOOOO                                  ",
"                              OOOOOoOOX$XXOOOO                                  ",
"                               OOOOoOOXXXXOOO                                   ",
"                               o@@@OOOXXXXOOO                                   ",
"                               O@@@@OOXXXXOO@                                   ",
"                               OO@@@OOXXXXOO@                                   ",
"                               $O@@@OOXXXXOO@                                   ",
"                               $OOOOOOXXXXOO                                    ",
"                               $OOOOOOXXXXOO                                    ",
"                               $OOOOOXXXXXOO                                    ",
"                                OOOOOXXXXXOO                                    ",
"                                OOOOOXXXXXOO                                    ",
"                                OOOOOXXXXXOOO                                   ",
"                               OOOOOOXXXXXOOO                                   ",
"                              OOOOOOO.XX..XOO                                   ",
"                              OOOOOOO.XX..XOOO                                  ",
"                                                                                ",
"                                                                                ",
"                                                                                ",
"                                                                                ",
"                                                                                ",
"                                                                                ",
"                                                                                ",
"                                                                                ",
"                                                                                ",
"                                                                                ",
"                                                                                ",
"                                                                                "
};
