/* XPM */
static char * HalfHealthBarWhite_xpm[] = {
"160 48 6 1",
" 	c None",
".	c #181425",
"+	c #FFFFFF",
"@	c #3F2832",
"#	c #3E8948",
"$	c #265C42",
"................................................................................................................................................................",
"................................................................................................................................................................",
"................................................................................................................................................................",
"................................................................................................................................................................",
"....++++++++++++++++++++++++++++++++++++++++++++++++++++++++++++++++++++++++++++++++++++++++++++++++++++++++++++++++++++++++++++++++++++++++++++++++++++++++....",
"....++++++++++++++++++++++++++++++++++++++++++++++++++++++++++++++++++++++++++++++++++++++++++++++++++++++++++++++++++++++++++++++++++++++++++++++++++++++++....",
"....++++++++++++++++++++++++++++++++++++++++++++++++++++++++++++++++++++++++++++++++++++++++++++++++++++++++++++++++++++++++++++++++++++++++++++++++++++++++....",
"....++++++++++++++++++++++++++++++++++++++++++++++++++++++++++++++++++++++++++++++++++++++++++++++++++++++++++++++++++++++++++++++++++++++++++++++++++++++++....",
"....++++++++++++++++++++++++++++++++++++++++++++++++++++++++++++++++++++++++++++++++++++++++++++++++++++++++++++++++++++++++++++++++++++++++++++++++++++++++....",
"....++++++++++++++++++++++++++++++++++++++++++++++++++++++++++++++++++++++++++++++++++++++++++++++++++++++++++++++++++++++++++++++++++++++++++++++++++++++++....",
"....++++++++++++++++++++++++++++++++++++++++++++++++++++++++++++++++++++++++++++++++++++++++++++++++++++++++++++++++++++++++++++++++++++++++++++++++++++++++....",
"....++++++++++++++++++++++++++++++++++++++++++++++++++++++++++++++++++++++++++++++++++++++++++++++++++++++++++++++++++++++++++++++++++++++++++++++++++++++++....",
"....++++++++@@@@................................................................................................................................++++++++++++....",
"....++++++++@@@@................................................................................................................................++++++++++++....",
"....++++++++@@@@................................................................................................................................++++++++++++....",
"....++++++++@@@@................................................................................................................................++++++++++++....",
"....++++++++....################################################################                                                                ....++++++++....",
"....++++++++....################################################################                                                                ....++++++++....",
"....++++++++....################################################################                                                                ....++++++++....",
"....++++++++....################################################################                                                                ....++++++++....",
"....++++++++....################################################################                                                                ....++++++++....",
"....++++++++....################################################################                                                                ....++++++++....",
"....++++++++....################################################################                                                                ....++++++++....",
"....++++++++....################################################################                                                                ....++++++++....",
"....++++++++....$$$$$$$$$$$$$$$$$$$$$$$$$$$$$$$$$$$$$$$$$$$$$$$$$$$$$$$$$$$$$$$$                                                                ....++++++++....",
"....++++++++....$$$$$$$$$$$$$$$$$$$$$$$$$$$$$$$$$$$$$$$$$$$$$$$$$$$$$$$$$$$$$$$$                                                                ....++++++++....",
"....++++++++....$$$$$$$$$$$$$$$$$$$$$$$$$$$$$$$$$$$$$$$$$$$$$$$$$$$$$$$$$$$$$$$$                                                                ....++++++++....",
"....++++++++....$$$$$$$$$$$$$$$$$$$$$$$$$$$$$$$$$$$$$$$$$$$$$$$$$$$$$$$$$$$$$$$$                                                                ....++++++++....",
"....++++++++....$$$$$$$$$$$$$$$$$$$$$$$$$$$$$$$$$$$$$$$$$$$$$$$$$$$$$$$$$$$$$$$$                                                                ....++++++++....",
"....++++++++....$$$$$$$$$$$$$$$$$$$$$$$$$$$$$$$$$$$$$$$$$$$$$$$$$$$$$$$$$$$$$$$$                                                                ....++++++++....",
"....++++++++....$$$$$$$$$$$$$$$$$$$$$$$$$$$$$$$$$$$$$$$$$$$$$$$$$$$$$$$$$$$$$$$$                                                                ....++++++++....",
"....++++++++....$$$$$$$$$$$$$$$$$$$$$$$$$$$$$$$$$$$$$$$$$$$$$$$$$$$$$$$$$$$$$$$$                                                                ....++++++++....",
"....++++++++++++................................................................................................................................................",
"....++++++++++++................................................................................................................................................",
"....++++++++++++................................................................................................................................................",
"....++++++++++++................................................................................................................................................",
"....++++++++++++....++++++++++++++++++++++++++++++++++++++++++++++++++++++++++++++++++++++++++++++++++++++++++++++++++++++++++++++++++++++++++++....++++++++....",
"....++++++++++++....++++++++++++++++++++++++++++++++++++++++++++++++++++++++++++++++++++++++++++++++++++++++++++++++++++++++++++++++++++++++++++....++++++++....",
"....++++++++++++....++++++++++++++++++++++++++++++++++++++++++++++++++++++++++++++++++++++++++++++++++++++++++++++++++++++++++++++++++++++++++++....++++++++....",
"....++++++++++++....++++++++++++++++++++++++++++++++++++++++++++++++++++++++++++++++++++++++++++++++++++++++++++++++++++++++++++++++++++++++++++....++++++++....",
"....++++++++++++....++++++++++++++++++++++++++++++++++++++++++++++++++++++++++++++++++++++++++++++++++++++++++++++++++++++++++++++++++++++++++++....++++++++....",
"....++++++++++++....++++++++++++++++++++++++++++++++++++++++++++++++++++++++++++++++++++++++++++++++++++++++++++++++++++++++++++++++++++++++++++....++++++++....",
"....++++++++++++....++++++++++++++++++++++++++++++++++++++++++++++++++++++++++++++++++++++++++++++++++++++++++++++++++++++++++++++++++++++++++++....++++++++....",
"....++++++++++++....++++++++++++++++++++++++++++++++++++++++++++++++++++++++++++++++++++++++++++++++++++++++++++++++++++++++++++++++++++++++++++....++++++++....",
"................................................................................................................................................................",
"................................................................................................................................................................",
"................................................................................................................................................................",
"................................................................................................................................................................"};
