/* XPM */
static char *tile0021720864343[] = {
/* columns rows colors chars-per-pixel */
"120 80 10 1 ",
"  c #0000FF",
". c #1A0E13",
"X c #362917",
"o c #3A3836",
"O c #481A13",
"+ c #69552A",
"@ c #833C22",
"# c #9F803F",
"$ c #868273",
"% c #C7C7B0",
/* pixels */
"                                                                                                                        ",
"                                                                                                                        ",
"                                                                                                                        ",
"                                                                                                                        ",
"                                                                                                                        ",
"                                                                                                                        ",
"                                                                                                                        ",
"                                                                                                                        ",
"                                                                                                                        ",
"                                                                                                                        ",
"                                                                                                                        ",
"                                                                                                                        ",
"                                                                                                                        ",
"                                                                                                                        ",
"                                                                                                                        ",
"                                                                                                                        ",
"                                                                                                                        ",
"                                                                                                                        ",
"                                                                                                                        ",
"                                                                                                                        ",
"                                                                                                                        ",
"                                                                                                                        ",
"                                                                                                                        ",
"                                                                                                                        ",
"                                                                                                                        ",
"                                                                                                                        ",
"                                                                                                                        ",
"                                                                                                                        ",
"                                                                                                                        ",
"                                                                                                                        ",
"                                                                                                                        ",
"                                                                                                                        ",
"                                                                                                                        ",
"                                                                                                                        ",
"                                                                                                                        ",
"                                                                                                                        ",
"                                                                                                                        ",
"                                                                                                                        ",
"                                                                                                                        ",
"                                                                                                                        ",
"                                                                                                                        ",
"                                                                                                                        ",
"                                                      ....                                                              ",
"                                                     .$$oo.                                                             ",
"                                                    .$%%$oo.                                                            ",
"                                                    .$$$$..o.                                                           ",
"                                                    .oo$$%$..                                                           ",
"                                                    .o%%%$o$.                                                           ",
"                                                    .o%$$$oo.                                                           ",
"                                                   .@.o$$oo.                                                            ",
"                                                  .@@@.ooo..                                                            ",
"                                                 .@@@@@...OO.                                                           ",
"                                                .$$$@@@%$$%OO.                                                          ",
"                                               .$$$$o$$$%%oo$.                                                          ",
"                                              .%%$$$.$$$$$oo$$.                                                         ",
"                                              ..$%%.o%$$$$o$X$.                                                         ",
"                                             .#+....oo%%%%$$.X.                                                         ",
"                                             .###+..ooo$$$oo.X.                                                         ",
"                                             .+##+...oooooo..Xo.                                                        ",
"                                            .$$++...++oooo..XXo.                                                        ",
"                                            .$$+. ..+++%$$%+.oo.                                                        ",
"                                            .$$$. .$$++%%%%+.oo..                                                       ",
"                                            .$$$..%$$%$....$.oo..                                                       ",
"                                            .$$o..%%%$$oo..$$..X.                                                       ",
"                                            .oo++.$$$$ooo..oo.X+.                                                       ",
"                                            .###+%$$%.oo....$o++.                                                       ",
"                                            .+##.%%%.oo.....$$XX.                                                       ",
"                                             .++....oo.......$X.                                                        ",
"                                              .. .ooo..........                                                         ",
"                                                 .ooo.. ......                                                          ",
"                                                .$%%o.. ..o$$o.                                                         ",
"                                                .$%%$o. .o$$$o.                                                         ",
"                                                .o$$o.  .oooo.                                                          ",
"                                                .ooo..  ......                                                          ",
"                                                .oo...  .....                                                           ",
"                                                .oo..   .....                                                           ",
"                                                .$$..   ...o.                                                           ",
"                                               ....$.   .oo.o..                                                         ",
"                                              .$%%o..   ...$$oo.                                                        ",
"                                              .$%%$o.   ..o$$$o.                                                        "
};
