/* XPM */
static char * arrow_item_hud_xpm[] = {
"5 15 7 1",
" 	c #0000FF",
".	c #BDCCD3",
"+	c #9AB7C7",
"@	c #8F563B",
"#	c #FFEAE4",
"$	c #663931",
"%	c #FFDCD2",
"  .  ",
"  .  ",
" ... ",
" ..+ ",
"  +  ",
"  @  ",
"  @  ",
"  @  ",
"  @  ",
"  @  ",
" #$% ",
"%#$# ",
"##$#%",
"#% ##",
"%   #"};
