/* XPM */
static char * button_2_xpm[] = {
"30 30 10 1",
" 	c #0000FF",
".	c #000000",
"+	c #BF6F4A",
"@	c #E69C69",
"#	c #8A4836",
"$	c #5D2C28",
"%	c #1E6F50",
"&	c #33984B",
"*	c #5AC54F",
"=	c #FFFFFF",
"  ..........................  ",
" .+++@.################.@+++. ",
".+###@.$$$$$$$$$$$$$$$$.@###+.",
".+##@....................@##+.",
".+#@.%&&&&&&&&&&&&&&&&&&%.@#+.",
".@@.%&&****************&&%.@@.",
"....%&*&&&&&&&&&&&&&&&&*&%....",
".#$.%&*&&&&&&&&&&&&&&&&*&%.$#.",
".#$.%&*&&&&&&&&&&&&&&&&*&%.$#.",
".#$.%&*&&&&&&&&&&&&&&&&*&%.$#.",
".#$.%&*&&&&&&&&&&&&...&*&%.$#.",
".#$.%&*&&&&&&&&&&&.===.*&%.$#.",
".#$.%&*&&&&&&&&&&.====.*&%.$#.",
".#$.%&*&...&&&&&.=====.*&%.$#.",
".#$.%&*.===.&&&.=====.&*&%.$#.",
".#$.%&*.====.&.=====.&&*&%.$#.",
".#$.%&*.=====.=====.&&&*&%.$#.",
".#$.%&*&.=========.&&&&*&%.$#.",
".#$.%&*&&.=======.&&&&&*&%.$#.",
".#$.%&*&&&.=====.&&&&&&*&%.$#.",
".#$.%&*&&&&.===.&&&&&&&*&%.$#.",
".#$.%&*&&&&&...&&&&&&&&*&%.$#.",
".#$.%&*&&&&&&&&&&&&&&&&*&%.$#.",
"....%&&****************&&%....",
".@@.%&&&&&&&&&&&&&&&&&&&&%.@@.",
".+#@.%&&&&&&&&&&&&&&&&&&%.@#+.",
".+##@....................@##+.",
".+###@.$$$$$$$$$$$$$$$$.@###+.",
" .+++@.################.@+++. ",
"  ..........................  "};
