/* XPM */
static char *result[] = {
/* columns rows colors chars-per-pixel */
"64 64 27 1 ",
"  c #060404",
". c #0A0706",
"X c #0B0907",
"o c #0E0B09",
"O c #130E0D",
"+ c #180F0E",
"@ c #14110E",
"# c #19110F",
"$ c #161310",
"% c #1A1512",
"& c #1C1915",
"* c #1E1B18",
"= c #211614",
"- c #211B16",
"; c #231E19",
": c #2B1E1C",
"> c #23201D",
", c #2E211E",
"< c #30211F",
"1 c #322B1F",
"2 c #2E2A25",
"3 c #312220",
"4 c #362E22",
"5 c #3C3326",
"6 c #3D3329",
"7 c #454135",
"8 c #555145",
/* pixels */
"***&%$$@@@@@o@$$$$$$$O@@$$$OO@o...  o ..  o .X..o oooOOOOOOOOOOO",
";;&&%%$&o$$o*&&&222222&&&&&22226622&*&&*&%2222&&*&*OOO$&*&O=&%$@",
";&%%$$$@o@oo&&&&222222&&&&&22226622***&&&&2222*&&*&.oOO$$$O+$%%@",
"&%$$$$@@ooo*22&22222226626222222222226626622222222226oOO$$o+%%%o",
"$$$O$oOoo22222&22222222422222222222222222222222222222..Xoo@@oo**",
"&%%$o$$o622222*622222224222222222222222222222222622222*.###%$@%%",
"$$$$O$o&222222*6222226562222222666662222666222446222222.oo+O$O$$",
"$$OOoo&222263>&2333333<<233333>>**3<<<<233,333<<233362265&XO$o$$",
"@@OOoo62266333&31<<<<<<<1<<,<<,,>>><33333333<<<<3<<<<22225.o.ooo",
"@$$$&622233&33&3,,<<<1<<<1<,<<<<33<<33333333,,<13<<<&<24226&o$@$",
"$@Oo%72333333*&3-><<<<,<<<,>><,1333333333333,,->3>><33<7727%oOo$",
"@@Oo%72333333>&3>,<<<<><<<,>,<,,3333333333331;;-<>>333<7727%ooo$",
"oooo%77333333**3:->->>-:<<<,>>>->>33333:;;;;>;>><%>,<<<<377% .oo",
"@@oX%;33;;;;%6  XOO+o+#+#--- ---++$+O++++;:= %#O.>5>>>><33;%. $$",
"@OoX%>333333%6 o+##=#=======X=======$=======.=#+X>5-<<,;;3*%X oO",
"OOo&%;;;3;;;%7.O#=--%#=:=-:-&=:==:=:%%;==--=%==#+,7>>33>;;;&& o$",
"OoX&&2<3<<<<=7XO@%%11144oOo-&o&-&-&&###oooo&&X%@o>7-<;<3333%%.XO",
"@OX&@*;3<<<<%7X+#&&55555OoO--O-;-&;;###oOOO&&O&%#-7><<<3<>;$%.oo",
"@oo&7777777777O+;::::,::5O55,,,=>,,,,,555O55:::%#>7777777777%Xoo",
"@oo&666665556;$o=:::,<<<<O<<<<,3#<<,,,<,,O<<,::=o->556656666&Xoo",
"OOo&666655566;#o&&:,<,<<<@<<<<<<%>,<,<<,,+3<,,;;@-;555556665#XOX",
"Ooo%*;>*>-;;;;XO@@;*;;;;>,>##O@&%%>>>>>>=;;%%OO+@-;;>>-,*;;>% XX",
"$@OO%%;;>>;>%O#115555+,66663&<<<55556#<6665<#,::1,-%>;;-;;%%O.o#",
"$ooO%$<;>->;#+==-:,,3@33331<#<<<1<<<3#33<33<#,::;-#-->;133%%+ o@",
"@@oO%%333333%+%=:::3,;<<<<<<@><<<<<<<>,<<<<<O;,::=%;333333%%@ OO",
"oooO%3;88;>3#OOO@#;;;>>;>>>@@,>##->,>>-,>>>O@-;#$O$<38888;3%O XX",
"@@o$%%*66;;3%-%=::66533;><<<365;<<665<<>><33,55&:=:<37677;%%+oo@",
"@OoO%3;66;;3;++:::,,3333><<<3<<><<13<<1,*333<,,;:==337677>,%Ooo+",
"Ooo@%%*66*;3;$o=::<3<333+<<<33<@<<1<<,<<+333<<<o:==3<7677;%%OOo%",
"@oX@%%>66;>3; .oOO=;;;%%#@##+#@@#o:>>,%%%#++OOOOOo$3<7677;%%OXoO",
"@oo@%%>66;;3;-,--,,3;333<556O666<<<<><1<3666O665:==<<7677;$&OO*&",
"@oo$%%*66;*3;$=;::,,;333<<13O333<<<<><<<333<O,<<::=3<7666;%%O.&&",
"@@o+#>-55>><%#=:,,<<>><<<<<1><<<<<<<>,,<3333;,:::==><6666-;%Oo&&",
"@oXO#>>55>><%o#%455555=#@O#,>@>>>>>>#%#OO++;;O;*&&#><6656;;%OO$&",
"@ooO%>>55-><%#@%:,,<<<565+55,<<>,<1<<1555#55,,,;-=-;<6656;;&O+$&",
"#ooO%%,,><<<##=@::<<<<<<<+<<<<<<#<<<3<<1<#1<33,:@:-#<>>,-3%%O+%$",
"@@o@%<<><<<<%#=O%-,<<<<<<O<<<<<<#><13<<<<#<<<,<:#%=>,<<<333%O$%$",
"ooX@%<<><<<<#.O@##->;>>>>>>####&#=>>,>>>>>>%%O+$@+#><<<<333&Oo$$",
"@#o@%><>331<##=145556#<6665<#<1<56565@<56663%<<:44,><<<<33;%Oo%;",
"@oo@#><,333<#+=:,,,,<#31<<1<=<<<<1<<<#<<3333%<,::=&><<1<33;%OO%-",
"@ooO%%><3333=#---,,<<-,<,<<<@;,<<<<<<><,1,,,O;,,:;=;33333;%%$o%=",
"@oX@%,><3333>Ooo@#->>>->>>>OO>>=-#>,>>>>:>>++;*$$O$%33333;3%OoO%",
"@@@@%<><1<<<;-#::,455<<>;,33<56><<556<<>:<,,<55;:=,%33333;3%OO$*",
"@oo@%<><<<<<>+@-:,<<<<1,>333<<<>31<<<<<3><1<<<:&:-&%33333;3%$O%=",
"@OO+%<<<333>#+.::,,,<<<<+33333<+33<333<<o<<<<<,O:==%;<33333%OOO;",
"$@XO%<<1333># .%&>->>+>#O+>>>>>#>>>#+>+@>>>,>+O+Oo.;>333333%OO$*",
"$OOO%&<333<<&+=-::5,>><<333<><333333>><<1<<<;,,::==;333333%%OoO%",
"$+O+%%33333<#+==::,,><<<333<@<3<3333;<<<<<<<O,:::==;333333%%O OO",
"$+OO%%333333&%,=::,<;<<<3556O5551,<<,<<<3665O564:=+;333333%%O %O",
" O.O%3;78;;3O6.XoO--;;%%&+@####@++>>>>#=%+@+OOOX.&6338888>3%O   ",
"+++O%3-56;;3O6.=-:<<<<<<@3<3<<<+<<<<,,1<@3<<,::O=*63<7677;<%+o O",
"++O+%3;56;;;O6O=:::<<<<<>333<<<><<<<<,,,>3<<<<:&=&6;*7677;3%O..+",
"#-#+%%;66;;3O7O=-:555,<-><<<365><<555<<>;<,<<64&==7337677;%%O.o+",
"Xo.O%%;66;;3&7XX+#=-,>>:->;+#>>%=%>>>>>>;>>OO-&+O*7337677;%%O  .",
"#+OO%3>66;;3&7$=-:,,,><<<<<4O><<<<<13><<<<,<O=<-=*7;37677;3%O O+",
"#++O%3>66;;<%7+=-::,,O<1<<<<%<<<<<<<<#3<<<<<$<::=*7*37677;3$O O+",
"-=%O%<*66;;3%7$,14555O,5555<#<<<66555+,5666<%,:=>&7>37666;<%$ o=",
".ooO%<>66;;<%7XoOO->->>>>>,&&@##=-,>>>->;;>%#OO+O&7>36666;<&O . ",
"O$+O%3>66;;<%7$O%-,,,<<<<#33<<1<%><1<11<<O<3,,:=o*7336666;3$+.O ",
"$++OOO$$+%&%O7$X-::,,<<1<@<<<<,,%<<<<<<<<$<3,::;o&7O%&%%$%+++.O.",
"++O;>>>>>*>>;7+$:,,,13335O55,,<>><1<<<666$66,::%$*7**>>>>>;;;oXO",
"+O.66666666667O$%&&55565@@@,>O,->-,-=#%#OOO-;O&&$*76666666666 .o",
"OOX77788888888O##->56566+@@;-O;>->>>%%%#O$O;*O*&O&88888888777.oO",
"+$O42>22222224$-::>,>,3<,<<<,1,,,,<<>><<33<,;:::=*22222222;24.O+"
};
