/* XPM */
static char * fire_weapon_slot_xpm[] = {
"35 35 31 1",
" 	c #0000FF",
".	c #F5C949",
"+	c #F4C94E",
"@	c #E48334",
"#	c #E48234",
"$	c #F8E97B",
"%	c #F7E77B",
"&	c #F3C348",
"*	c #F4B743",
"=	c #F2A637",
"-	c #F0A137",
";	c #F4AA38",
">	c #F1AC3E",
",	c #F2BA49",
"'	c #F4B53F",
")	c #F6D868",
"!	c #EFBA59",
"~	c #F6D261",
"{	c #F5C756",
"]	c #F5D86C",
"^	c #F6CE62",
"/	c #EEA139",
"(	c #F4B33D",
"_	c #E99636",
":	c #F6D25C",
"<	c #E17F33",
"[	c #CA6230",
"}	c #D97832",
"|	c #E38534",
"1	c #F3D570",
"2	c #EDAB41",
"                .+.                ",
" @#        @@   $%$   @@        #@ ",
" #&*=      -=  ;>%>;  =-      =*&# ",
"  *,>@     *';;*)))*;;'*     @>,*  ",
"  =>,!=@  =~+{]^)+)^]{+~=  @=!,>=  ",
"   @!^,/;;()))))+,+)))))(;;/,^!@   ",
"    =,)+,,+)%)++,_,++)%)+,,+),=    ",
"    @/+%%%%:++,/<[</,++:%%%%+/@    ",
"     ;,%%+++,_}[[[[[}_,+++%%,;     ",
"     ;,%++(_}[[[[[[[[[}_(++%,;     ",
"    =(+%+(|}[[[[[[[[[[[}|(+%+(=    ",
" @]]~)):+_}[[}__[}[__}[[}_+:))~]]@ ",
" @1{+)%+,}[[},,_}2}_,,}[[},+%)+{1@ ",
"   ;{)),_[[},)+_2)2_+),}[[_,)){;   ",
"   ;]),_}[[_,+,,)%),,+,_[[}_,)];   ",
"  ;*^)/|[[[___,:%%%:,___[[[|/)^*;  ",
".$>)),/|[[[[}2)%%%%%)2}[[[[|/,))>$.",
"+%%),_}[[[[}_^%%%%%%%)2}[[[[}_,)%%+",
".$>)),/|[[[[}2)%%%%%)2}[[[[|/,))>$.",
"  ;*^)/|[[[___,:%%%:,___[[[|/)^*;  ",
"   ;]),_}[[_,+,,)%),,+,_[[}_,)];   ",
"   ;{)),_[[},)+_2^2_+),}[[_,)){;   ",
" @1{+)%+,}[[},,_}_}_,,}[[},+%)+{1@ ",
" @]]~)):+_}[[}__[}[__}[[}_+:))~]]@ ",
"    =(+%+(|}[[[[[[[[[[[}|(+%+(=    ",
"     ;,%++(_}[[[[[[[[[}_(++%,;     ",
"     ;,%%+++,_}[[[[[}_,+++%%,;     ",
"    @/+%%%%:++,/<[</,++:%%%%+/@    ",
"    =,)+,,+)%)++,_,++)%)+,,+),=    ",
"   @!^,/;;()))))+,+)))))(;;/,^!@   ",
"  =>,!=@  =~+{]^)+)^]{+~=  @=!,>=  ",
"  *,>@     *';;*)))*;;'*     @>,*  ",
" #&*=      -=  ;>%>;  =-      =*&# ",
" @#        @@   $%$   @@        #@ ",
"                .+.                "};
