/* XPM */
static char *result[] = {
/* columns rows colors chars-per-pixel */
"64 64 5 1 ",
"  c #140E0E",
". c #1A1512",
"X c #231F19",
"o c #2B2821",
"O c #3F3628",
/* pixels */
"              ..        ..    .... .......    ... .... ...    ..",
".   ....... ........ ...... ......  ...X... ..... ...  X... ....",
".X   ...XX  .....XX  ...XX  ....XX.  ...XX  .....     ..XX  ....",
"XX     ...OO..X...     ...OO   ...     ...OO..X...     ...OO..X.",
".oo.  .ooOOOo....oo.  .ooOOOo  . oo.  .ooOOOo....oo.  .ooOOOo...",
"XooOOO  ooooOoo.Xoo     ooooOoo.XooOOO  ooooOoo.XooOOO  ooooOoo.",
".Xo OO  .XXooo...Xoo    .XXooo...XooOO  .XXooo...XooOO  .XXooo..",
"  XX oo  ....     XX...  .. ...   XXooo  ....     XXooo  ....   ",
"OO  o    oOO. .OOO  .X   oO   ..... oX   oOO. .OOO  oX   oOO. .O",
"ooO.  XX  oOO.ooooO. XXO  oOO    ...  OO  oOO.ooooO.  OO  oOO.oo",
"ooo oXX   ooo  oooo XXXXo ooo.    ..oO    ooo.ooooo oO    ooo.oo",
"o. XXXo       .oo. XXXXX...XX..  . ..  X...XX..oo. XX  X...XX..o",
".OO.XX..      ...OO.XX..oo.   .. OO.....oo.   ...OO.XX..oo.   ..",
"ooOO...o    OOo.ooOO...ooo  OOo. oOO...ooo  OOo.o  O...ooo  OOo.",
".oooX.XXX.Xooooo.oooX.XXX.Xooooo  ooX.XXX.Xooooo. ooX.XXX.Xooooo",
"..oXX..   .XXoo...oXX..   .XXoo.  oXX..   .XXoo. .oXX..   .XXoo.",
"oo....OOoo    ..oo....OOoo    .. o ...OOoo    .. o....  oo    ..",
"ooo.oOOoooo .OOoooo.oOOoooo .OOo oo.oOOoooo .OOo oo.o  oooo .OOo",
"oX.  oooX   oooooX.  oooXX  oooooX.  oooXX  ooo oX...oooXX  oooo",
"..     .XX  ..Xo .     ...OO..Xo..     .XOOo.. o.. .......OO..Xo",
".oo.  .oo..  ..       oooOOOo....oo.  .oooOO.. .... ..o..OOOo...",
"XooOOO .XXX.    X    oooOXoo oo.XooOOO..ooo.. o.X.. .ooo..ooOoo.",
".XooOO . XXXX  ..X   oXXXXXXXX.  XooOO...o.. o...X.. oooo.XXoo..",
"  XXooo  .XX      X  .XXXX...... .. ...... O o    XX .XXXXX..   ",
"OO  oX  ..XXXX.      ... oOO.....   .X....  o .OOO... .XXoOO. .O",
"ooO.   ....XX.ooooO.  OO  oOO.....  ..OO..  o.ooooO.. OO  oO .oo",
"ooo   ..  .X..ooooo oOooo ooo...  .. Oooo.  XXXoooo oO    oo  oo",
"o.     X.......oo. XXooX...XX... ..XXooX.. XXX.oo. XX  X...XX  o",
".OO XX..oo.......OO.XX..o  ....  OO.XX  ooXX........XX..oo.     ",
"ooOO...ooo..OOo.ooOO...ooo     .ooOO   oo . OO..oo.....ooo      ",
".oooX.XXX.Xooooo.oooX.XXX.X. ....oooX XXX X. ....oooX.....X   oo",
"..oXX..   .XXoo...oXX..   . X.....oXX     .X .....oXX..   .  oo.",
"oo....OOoo    ..  ....OOoo .....oo    OOoo... ..oo....OOoo    ..",
"ooo.oOOoooo        .oOOoo o..OOoooo  OOoooo.. Ooooo.oOOoo   .OOo",
"oX.  oooXX       X.  ooo X..oooooX.  oooXX..oo ooX...ooo X  oo o",
"..     ...OO..X ..      XXOO..Xo..     ...OO.. o.......  .OO.  o",
".oo.  .ooOOOo...     XXXoOOOo...                  o.... oOOOo ..",
"XooOOO..ooooO   X  XXX          XooXXO  ooooOo .Xoo... .ooooO o.",
".XooOO...XXooo.  XooXX  .XXooo...XooOXX .XXooo...Xoo. ...XXo o..",
"  XXooo....    ....Xooo  ....     XXooXX X        XXo  .....    ",
"OO  oX.  X      XX XoX   oOO. .OOO  oX XXXXO  .     oX   oOO. .O",
"ooO.         ..  XXX XXO  oOO.ooooO.  OOXXXXO....  .  OO..oOO.oo",
"ooo ..   .......   .oOXXo ooo.ooooo ooooo    .... . oOooo.  o.oo",
"o. XX..X...XX......XXooXXX XX..oo. XXooX.. XX... . XXooX      .o",
".OO.XX..oo.   ...OO.XX..ooXXX ......XX..oo.   ...O      oo    ..",
"..oXX..   .XXoo...oXX..   .XXoo...oXX..   .XXoo...oXX..   .XXoo.",
".oooX.XXX.Xooooo.oooX.XXX.Xooooo.oooX.XXX.Xooooo.oooX.XXX.Xooooo",
"ooOO...ooo  OOo.ooOO...ooo  OXX.oo.....ooo  OOo.ooOO...ooo  OOo.",
".OO.XX..oo.   ...OO.XX..ooXXX ......XX..oo.   ...O      oo    ..",
"o. XX..X...XX......XXooXXX XX..oo. XXooX.. XX... . XXooX      .o",
"ooo ..   .......   .oOXXo ooo.ooooo ooooo    .... . oOooo.  o.oo",
"ooO.         ..  XXX XXO  oOO.ooooO.  OOXXXXO....  .  OO..oOO.oo",
"OO  oX.  X      XX XoX   oOO. .OOO  oX XXXXO  .     oX   oOO. .O",
"  XXooo....    ....Xooo  ....     XXooXX X        XXo  .....    ",
".XooOO...XXooo.  XooXX  .XXooo...XooOXX .XXooo...Xoo. ...XXo o..",
"XooOOO..ooooO   X  XXX          XooXXO  ooooOo .Xoo... .ooooO o.",
".oo.  .ooOOOo...     XXXoOOOo...                  o.... oOOOo ..",
"..     ...OO..X ..      XXOO..Xo..     ...OO.. o.......  .OO.  o",
"oX.  oooXX       X.  ooo X..oooooX.  oooXX..oo ooX...ooo X  oo o",
"ooo.oOOoooo        .oOOoo o..OOoooo  OOoooo.. Ooooo.oOOoo   .OOo",
"oo....OOoo    ..  ....OOoo .....oo    OOoo... ..oo....OOoo    ..",
"..oXX..   .XXoo...oXX..   . X.....oXX     .X .....oXX..   .  oo.",
".oooX.XXX.Xooooo.oooX.XXX.X. ....oooX XXX X. ....oooX.....X   oo",
"ooOO...ooo..OOo.ooOO...ooo     .ooOO   oo . OO..oo.....ooo      "
};
