/* XPM */
static char * weapon_slot_xpm[] = {
"44 44 6 1",
" 	c #0000FF",
".	c #000000",
"+	c #FEBF4C",
"@	c #CA8611",
"#	c #382F35",
"$	c #4C4449",
"      ................................      ",
"      ................................      ",
"    ..++@@++@@++++@@@@@@@@++++@@++@@++..    ",
"    ..++@@++@@++++@@@@@@@@++++@@++@@++..    ",
"  ..++@@............................@@++..  ",
"  ..++@@............................@@++..  ",
"..++@@..############################..@@++..",
"..++@@..############################..@@++..",
"..@@..##$$$$$$$$$$$$$$$$$$$$$$$$$$$$##..@@..",
"..@@..##$$$$$$$$$$$$$$$$$$$$$$$$$$$$##..@@..",
"..++..$$$$$$$$$$$$$$$$$$$$$$$$$$$$$$$$..++..",
"..++..$$$$$$$$$$$$$$$$$$$$$$$$$$$$$$$$..++..",
"..@@..$$$$$$$$$$$$$$$$$$$$$$$$$$$$$$$$..@@..",
"..@@..$$$$$$$$$$$$$$$$$$$$$$$$$$$$$$$$..@@..",
"..++..$$$$$$$$$$$$$$$$$$$$$$$$$$$$$$$$..++..",
"..++..$$$$$$$$$$$$$$$$$$$$$$$$$$$$$$$$..++..",
"..++..$$$$$$$$$$$$$$$$$$$$$$$$$$$$$$$$..++..",
"..++..$$$$$$$$$$$$$$$$$$$$$$$$$$$$$$$$..++..",
"..@@..$$$$$$$$$$$$$$$$$$$$$$$$$$$$$$$$..@@..",
"..@@..$$$$$$$$$$$$$$$$$$$$$$$$$$$$$$$$..@@..",
"..@@..$$$$$$$$$$$$$$$$$$$$$$$$$$$$$$$$..@@..",
"..@@..$$$$$$$$$$$$$$$$$$$$$$$$$$$$$$$$..@@..",
"..@@..$$$$$$$$$$$$$$$$$$$$$$$$$$$$$$$$..@@..",
"..@@..$$$$$$$$$$$$$$$$$$$$$$$$$$$$$$$$..@@..",
"..@@..$$$$$$$$$$$$$$$$$$$$$$$$$$$$$$$$..@@..",
"..@@..$$$$$$$$$$$$$$$$$$$$$$$$$$$$$$$$..@@..",
"..++..$$$$$$$$$$$$$$$$$$$$$$$$$$$$$$$$..++..",
"..++..$$$$$$$$$$$$$$$$$$$$$$$$$$$$$$$$..++..",
"..++..$$$$$$$$$$$$$$$$$$$$$$$$$$$$$$$$..++..",
"..++..$$$$$$$$$$$$$$$$$$$$$$$$$$$$$$$$..++..",
"..@@..$$$$$$$$$$$$$$$$$$$$$$$$$$$$$$$$..@@..",
"..@@..$$$$$$$$$$$$$$$$$$$$$$$$$$$$$$$$..@@..",
"..++..$$$$$$$$$$$$$$$$$$$$$$$$$$$$$$$$..++..",
"..++..$$$$$$$$$$$$$$$$$$$$$$$$$$$$$$$$..++..",
"..@@..$$$$$$$$$$$$$$$$$$$$$$$$$$$$$$$$..@@..",
"..@@..$$$$$$$$$$$$$$$$$$$$$$$$$$$$$$$$..@@..",
"..++@@..$$$$$$$$$$$$$$$$$$$$$$$$$$$$..@@++..",
"..++@@..$$$$$$$$$$$$$$$$$$$$$$$$$$$$..@@++..",
"  ..++@@............................@@++..  ",
"  ..++@@............................@@++..  ",
"    ..++@@++@@++++@@@@@@@@++++@@++@@++..    ",
"    ..++@@++@@++++@@@@@@@@++++@@++@@++..    ",
"      ................................      ",
"      ................................      "};
