/* XPM */
static char *tile0091720539041[] = {
/* columns rows colors chars-per-pixel */
"64 64 6 1 ",
"  c #0000FF",
". c #0D051B",
"X c #2C1A49",
"o c #B14E4E",
"O c #CEE9ED",
"+ c white",
/* pixels */
"                                                                ",
"                                                                ",
"                                                                ",
"                                                                ",
"                                                                ",
"                                                                ",
"                                                                ",
"                                                                ",
"                                                                ",
"                                                                ",
"                                                                ",
"                                                                ",
"                                                                ",
"                                                                ",
"                                                                ",
"                                                                ",
"                                                                ",
"                                                                ",
"                                                                ",
"                                                                ",
"                                                                ",
"                                                                ",
"                                                                ",
"             ..    ..                                           ",
"            .OO. ..+.                                           ",
"           .OOO..+++.                                           ",
"          .OO+.+++++.                                           ",
"         .++++.++++++.                                          ",
"         .++O+++oooooo.+.         o oo                          ",
"        .o+O+++ooooooooooooooooooooo                            ",
"      ..o++O++ooooooooooooooooooo                               ",
"     .OO++++++ooooooooooooooo                                   ",
"    .O.XX++++++ooooooo........                                  ",
"   ..OO++++++++++++++.OOOOOOOOO.......                          ",
"  .+O.O+++++++++++++.+OOOO++++++OOOO..........                  ",
"  .+.X...++..+++++++.+.++.+++++++++O++++++++......              ",
"   .. X.O.+...++.++++.....+.++X+++++++++++....                  ",
"       X.O.+...+...+++XXXX..+XX.+++++++++.                      ",
"        X.........XXXX.XXXXXXX.++.+++++..                       ",
"         X.........+.++XXXXXX.+..XX.++....                      ",
"         .O.......++++XXXXXXXX.X+X.++.X+..   ........           ",
"        .+.O.....++++.XXXXXXXX+XX.++.XXXXX...XXXXXXXX.          ",
"        .++.+.+.++++.XXXXXXXXX+X.++.XXXXXXXXXXXXXXXXXX...       ",
"         .++++++++..XXXXXXXXXX+.++.+XXXXXXXXXXXXXXXXXXXXX.      ",
"          .++++...  ........XXX...++XXXXXXXXXXXXXXXXXXXXXX.     ",
"           ....             .....XXXXXXXXXXXX.XXXXXXXXXXXXX.    ",
"                                 ..XXXXXXXXXX..XXXXXXXXXXXXX.   ",
"                                  ...XXXXXXX.  ..XXXXXXXXXXXX.  ",
"                                     ..XXXXX.    .........XXXX. ",
"                                      .XXXXXX.            ..XX. ",
"                                       .XXXXXX.             ....",
"                                        .XXXXXX.               .",
"                                         .XXXXX+..              ",
"                                          ....++++.             ",
"                                              ..+++.            ",
"                                                .+++.           ",
"                                                 ..++.          ",
"                                                  ...           ",
"                                                                ",
"                                                                ",
"                                                                ",
"                                                                ",
"                                                                ",
"                                                                "
};
