/* XPM */
static char *tile0101720539041[] = {
/* columns rows colors chars-per-pixel */
"64 64 6 1 ",
"  c #0000FF",
". c #0D051B",
"X c #2C1A49",
"o c #B14E4E",
"O c #CEE9ED",
"+ c white",
/* pixels */
"                                                                ",
"                                                                ",
"                                                                ",
"                                                                ",
"                                                                ",
"                                                                ",
"                                                                ",
"                                                                ",
"                                                                ",
"                                                                ",
"                                                                ",
"                                                                ",
"                                                                ",
"                                                                ",
"                                                                ",
"                                                                ",
"                                                                ",
"                                                                ",
"                                                                ",
"                                                                ",
"                                                                ",
"                                                                ",
"                                                                ",
"                                                                ",
"                                                                ",
"                                                                ",
"                                                                ",
"                                                                ",
"                                                                ",
"                                                                ",
"                                                                ",
"                                                                ",
"                                                                ",
"                                                          .     ",
"                                                         ..     ",
"                                                        .X.     ",
"             ..    ..             .                     .XX     ",
"            .OO. ..+.          . .O..                  .XX.     ",
"           .OOO..+++.  + ++ ...O.+..+.                .XXX.     ",
"          .OO+.+++++++++++ .+....+++X+.           ....XXXX.     ",
"         .++++.++++++++++  ++.+++XX++X+.. .     ..XXXXXXXX      ",
"         .++O+++o+++++++.  +++X+++XX+X+++.+   ..XXXXXXXXX.      ",
"        .o+O+++o+++++++. .+++X++X+XXX+XXX++...XXXXXXXXXXX.      ",
"      ..o++O++o++++o++...+++XX++X+XXX+XXXXX+.XXXXXXXXXXX..      ",
"     .OO+++++++++oo++++..+++X+++XX+XX+XXXXXXXXXXXXXXXXX.        ",
"    .O.XX+++.+++.o+++++X+++XX+++XX+XX+XXXXXXXXXXXXXXX....       ",
"    .OO++++.+++...++++X++++X++X+XX+XX+XXXXXXXX........+++.      ",
"     .O+++.+++++.+++++++++XX++X+X+XX+XXXX.XXXXXXXXXXX+++.       ",
"      ...+.+.++.++.+..+++XX++++X+XX+XXXXX.XXXXXXXXXX+++.        ",
"       .O.+...+.+.++X.++XXX++XX+XX+XXXXX..XXXXXXXXX....         ",
"        .O.+...+...XX.++...++XXXXXXXXXX. .XXXXXXXX.             ",
"         ..........X.++.XX.+..XXXXXXX..   .XXXX...              ",
"         ...........+..XX.X+.........      ....                 ",
"         .O.......++.+XX.O+......                               ",
"        .+.O.....++++.X.++.                                     ",
"        .++.+.+.++++. .++.                                      ",
"         .++++++++.. .++.                                       ",
"          .++++...   ...                                        ",
"           ....                                                 ",
"                                                                ",
"                                                                ",
"                                                                ",
"                                                                ",
"                                                                "
};
