/* XPM */
static char *tile0111720539041[] = {
/* columns rows colors chars-per-pixel */
"64 64 8 1 ",
"  c #0000FF",
". c #0D051B",
"X c #13042B",
"o c #2C1A49",
"O c #B14E4E",
"+ c #53BACA",
"@ c #CEE9ED",
"# c white",
/* pixels */
"                                                                ",
"                                                                ",
"                                                                ",
"                                                                ",
"                                                                ",
"                                                                ",
"                                                                ",
"                                                                ",
"                                                                ",
"                                                                ",
"                                                                ",
"                                                                ",
"                                                                ",
"                                                                ",
"                                                                ",
"                                                                ",
"                                                                ",
"                                                                ",
"                                                                ",
"                                                                ",
"                                                                ",
"                                                                ",
"                                                                ",
"                                                                ",
"                                                                ",
"                                                                ",
"                                                                ",
"                                                                ",
"                                                                ",
"                                                                ",
"                                                                ",
"                                                                ",
"                                                                ",
"                                                                ",
"                                                                ",
"                                                                ",
"                                                                ",
"                                                                ",
"                                                                ",
"                                                                ",
"                                                                ",
"                                  .                             ",
"                                  @..                           ",
"               ..    ..        . ...#.                          ",
"              .@@. ..#.     ...@.###o#.                         ",
"             .@@@..###.    .#....#o##o#.. .          .... ..    ",
"            .@@#.#####.    .#.###ooo#o###.#     .....oooo.oo.   ",
"           .####.######. ...o#oo##ooo#ooo##.....oooooooooooo.   ",
"           .##@#####O##..#.#oo#oo#ooo#ooooo.ooooooooooooooo.    ",
"          .O#@#####OO####.ooooo#oo#oo#oooooo.ooooooooooooo.     ",
"        ..O##@##OOOOO###X.ooooo#oo#oo#ooooooo.ooooo.......      ",
"       .@@#####OOOOOO###oX.oooo#oo#oo#o.ooooo.ooo..             ",
"      .@.oo####OOOOO###ooXooooo#oo#o#oo.oooooo.o.               ",
"      .@@#######OOOO##ooooXoooo#o#o#ooo.oooooo..                ",
"       .@############oooooo.oo#ooo#ooooo.ooooo.                 ",
"        ...##.o#######.ooooo.oo#ooooooo. .ooooo                 ",
"         .@.#..o##o####.ooooo.ooooooo.. .ooooo.                 ",
"          .@.#...#XXX###.oooo.oooo...   .###o..                 ",
"           ..... .XXX....oooo.ooo.     ..#@#o.                  ",
"                 .XXX.  .oooo....      .#@##.                   ",
"                .XXX.   .oooo.                                  ",
"               ..@@..  .#@#oo.                                  ",
"              .@+@@@. .#@#@#.                                   ",
"             .@+@@@@. .#@###.                                   "
};
