/* XPM */
static char *tile0271720539145[] = {
/* columns rows colors chars-per-pixel */
"64 64 6 1 ",
"  c #0000FF",
". c #0D051B",
"X c #2C1A49",
"o c #53BACA",
"O c #CEE9ED",
"+ c white",
/* pixels */
"                                                                ",
"                                                                ",
"                                                                ",
"                                                                ",
"                                                                ",
"                                                                ",
"                                                                ",
"                                                                ",
"                                                                ",
"                                                                ",
"                                                                ",
"                                                                ",
"                                                                ",
"                                                                ",
"                                                                ",
"                                                                ",
"                                                                ",
"                                                                ",
"                                                                ",
"                                                                ",
"                                                                ",
"                                                                ",
"                                                                ",
"                                                                ",
"                                                                ",
"                                                                ",
"                                                                ",
"                                                                ",
"                                                                ",
"                                                                ",
"                                                                ",
"                                                                ",
"                                                                ",
"                                                                ",
"                                                                ",
"                                                                ",
"                                                                ",
"                                                                ",
"                                                                ",
"                                                                ",
"                                                                ",
"                                                                ",
"                                                                ",
"                                                                ",
"                                                                ",
"                                                                ",
"                                                                ",
"                                                                ",
"                                                                ",
"           ..    ..                                             ",
"          .OO. ..+.                                             ",
"         .OOO..+++.                                             ",
"        .OO+.+++++.                                             ",
"       .++++.++++++. ..   .                                     ",
"       .++O++++++++..+.  .+.   .  .                             ",
"      .++O+++++++++++.   ++....O..O.. .                         ",
"    ..+++O++++++++++.      +++...+..+.+.. .                     ",
"   .OO++++++++++++++.       + ++++++ ++++.+..                   ",
"  .O.XX++++++++++++.+.       +  +  ++    ++++..                 ",
"  .OO+++++++++++++++.        +   +  +                           ",
"   .O++++++++++++++++...      +  +  +                           ",
"    ...++..++++++++.+++.      +  +  +       .++                 ",
"     .O.+...++.++++....+O+O+. +  + .+oOO.   .+O+.               ",
"      .O.+...+...+++.O.+O+++. + + .+oOOO.  .+O+++.              "
};
