/* XPM */
static char *tile0241720539144[] = {
/* columns rows colors chars-per-pixel */
"64 64 8 1 ",
"  c #0000FF",
". c #0D051B",
"X c #13042B",
"o c #2C1A49",
"O c #B14E4E",
"+ c #53BACA",
"@ c #CEE9ED",
"# c white",
/* pixels */
"                                                                ",
"                                                                ",
"                                                                ",
"                                                                ",
"                                                                ",
"                                                                ",
"                                                                ",
"                                                                ",
"                                                                ",
"                                                                ",
"                                                                ",
"                                                                ",
"                                                                ",
"                                                                ",
"                                                                ",
"                                                                ",
"                                                                ",
"                                                                ",
"                                                                ",
"                                                                ",
"                            oo                                  ",
"                           oooo                                 ",
"                                                                ",
"                                                                ",
"                                                                ",
"                       oo                                       ",
"                                                                ",
"                                                                ",
"                                     oo  o                      ",
"                                    o                           ",
"                 o   o          o    o          o       o       ",
"                     oo                                  o      ",
"                 oo   OO ooo                 o          o       ",
"                      O Ooo     o           oo                  ",
"                     O   o     oo                               ",
"               oo o     o                              o        ",
"               o oo                      o       ooo  ooo       ",
"                   O        oo         ooo       oo    o        ",
"                            o           o     oo                ",
"                              o              ooo                ",
"           ..    ..   oo     ooo              o     oo          ",
"          .@@. ..#.  ooo    ooo                    oooo         ",
"         .@@@..###.                                 oo          ",
"        .@@#.#####.       .                                     ",
"       .####.######. ..  .#.   .  .     o    ooo                ",
"       .##@########..#.. ##....@..@.. . ooo  oo     o           ",
"      .##@###########.   oo###...#..#.#..o.         ooo         ",
"    ..###@##########..     o#o######o####.#..       oo          ",
"   .@@###############..     o# o#o ##  oo####..                 ",
"  .@.oo##############      o #o o# o#o   oo oo  .          ..   ",
"  .@@###############o         # o#  #    o  o   o.   oo  .  .   ",
"   .@################    X    #o # o#  o     .o  o.         o.  ",
"    ...##. ########o###       #oo# o#     oooo.oo  o.      o.   ",
"     .@.#.. ## ####  o    Xo o#o#oo#     ooo o.ooo o     o .    ",
"      .@.#..o#  o###     oo. #o#oo     o.o   o.oo       o.      ",
"       .....   XXX  ..    o.#oo    oo o..o    ... o  o  .       ",
"                          oo.    o o ..X.oo o . . .o o  .       ",
"                           o.o oo . .XX X.o  o.    ..           ",
"                       .    o...   .XX  X .o oo.                ",
"                  .X      o         .  X. .oooo.                ",
"                  .XX   . o o.      . X.   .ooo.                ",
"                 ..@@...# #oo.     .X@X.    .###.               ",
"                .@+@@@.#@#@#.      .@+@@.   .#@#.               ",
"               .@+@@@@.#@###.     .@+@@@.  .#@###.              "
};
