/* XPM */
static char *tile0251720539145[] = {
/* columns rows colors chars-per-pixel */
"64 64 6 1 ",
"  c #0000FF",
". c #0D051B",
"X c #2C1A49",
"o c #53BACA",
"O c #CEE9ED",
"+ c white",
/* pixels */
"                                                                ",
"                                                                ",
"                                                                ",
"                                                                ",
"                                                                ",
"                                                                ",
"                                                                ",
"                                                                ",
"                                                                ",
"                                                                ",
"                                                                ",
"                                                                ",
"                                                                ",
"                                                                ",
"                                                                ",
"                                                                ",
"                                                                ",
"                                                                ",
"                            XX                                  ",
"                           XXXX                                 ",
"                           X                                    ",
"                                                                ",
"                                                                ",
"                       XX                                       ",
"                        X                                       ",
"                                     X                          ",
"                                    XXX  X                      ",
"                                 X  XXX X        XX             ",
"                 X   X          XX   X          XXX     X       ",
"                XXXX XX          X                       X      ",
"                 XX  X   XXX                 X          X       ",
"                        XXX     XXXX        XX                  ",
"               XX      XXX     XXXX        XX                   ",
"               XXXX     X      XXX                     X        ",
"               XXXX                     XX       XXX  XXX       ",
"                                       XXX       XX    X        ",
"                                        X     XX                ",
"                                             XXX                ",
"                                              X     XX          ",
"                                                   XXXX         ",
"                                                    XX          ",
"                                                                ",
"                                                                ",
"           ..    ..                                             ",
"          .OO. ..+.                                             ",
"         .OOO..+++.                                             ",
"        .OO+.+++++.                                             ",
"       .++++.++++++. ..                                         ",
"       .++O++++++++..+.   .                                     ",
"      .++O+++++++++++.   .+.   .  .                             ",
"    ..+++O++++++++++..   ++....O..O.. .                         ",
"   .OO+++++++++++++++..    +++...+..+.+.. .                     ",
"  .O.XX++++++++++++++.      + ++++++ ++++.+..                   ",
"  .OO+++++++++++++++.        +  +  ++    ++++..                 ",
"   .O++++++++++++++++...     +   +  +                           ",
"    ...++..++++++++.+++.      +  +  +                           ",
"     .O.+...++.++++....       +  +  +                           ",
"      .O.+...+...+++.         +  +  +                           ",
"       ..... .   ....         + +  +                            ",
"                             + +  +                             ",
"                            +                                   ",
"                 .  O                       .++                 ",
"                .OoOOO.+O+O+.      .OoOO.   .+O+.               ",
"               .OoOOOO.+O+++.     .OoOOO.  .+O+++.              "
};
