/* XPM */
static char *tile0011719917433[] = {
/* columns rows colors chars-per-pixel */
"136 23 55 1 ",
"  c #0000FF",
". c #7B420A",
"X c #7C7D1F",
"o c #92480A",
"O c #9D4C0A",
"+ c #9F4F0C",
"@ c #8E520E",
"# c #95510D",
"$ c #A4500B",
"% c #A6550D",
"& c #856714",
"* c #856B16",
"= c #9F6916",
"- c #8E771B",
"; c #93781B",
": c #96781B",
"> c #9A791B",
", c #9C7A1B",
"< c #A46113",
"1 c #A56314",
"2 c #A06816",
"3 c #A26C18",
"4 c #A57019",
"5 c #A07C1B",
"6 c #A27C1F",
"7 c #A37F20",
"8 c #778825",
"9 c #8B932A",
"0 c #89972D",
"q c #8E9B2E",
"w c #91942A",
"e c #99942A",
"r c #959D2F",
"t c #9A9E2F",
"y c #9E9F2F",
"u c #A38523",
"i c #A38624",
"p c #A38925",
"a c #A39429",
"s c #82AB2C",
"d c #91AB2E",
"f c #93AE36",
"g c #9BAD35",
"h c #91B237",
"j c #9CB534",
"k c #95B438",
"l c #9BB438",
"z c #A2A330",
"x c #A2A532",
"c c #A0B438",
"v c #A0BB3B",
"b c #A0BF3D",
"n c #9FC03D",
"m c #9FC53F",
"M c #9FC640",
/* pixels */
"                                                                                                                                        ",
"                                                                                                                                        ",
"                                                                                                                                        ",
"                                                                                                                                        ",
"                                                                                                                                        ",
"                                                                                                                                        ",
"                   o+++++O   O++++Oo   #+++++++O   #OOO#.   O+OOO          O+OO# O+++++++   +++o   @+++++Oo  +++++++O                   ",
"                    $%%%%%$  #%%%%%%#   $%%%%%%$  O%%%%+   +%%%%+         $%%%%+ +%%%%%%%$  +%%     O%%%%%$o %%%%%%%$                   ",
"                    21#=#21# #1====1<   <1====#< #<<##2#  @1<#@2#        #1<@#=# ===<1==#<  211@    #12=#=12 <#==1#==                   ",
"                    34-  =4= #4=   44   =4       =4=      #4=            =4=        44=    =444=    =4=  &43    =4&                     ",
"      >66665        56,6,56: ;6,66,75   ,756>-   *66,5-   *65>5-         :66>5-     66>    :656>    ;6>65,7>    :6*         >66665      ",
"      ippppp        ppppppp  ;pppppp-   ipppp;    ;ppppu   >pppp,         ipppp,    pp,    ip;pp    :pppppp-    :p-         ippppp      ",
"      weeeee        aaeeew   ;aaeaa9    eaeeew     weeaae   weeaaw         weeaaw   aae    aa9eaw   waeeaeX     wa-         weeeew      ",
"                    zxr      wxr txw    txX  X        rxt      wxt            rxr   xxr   9xxxxxt   rx9 yx9     wx9                     ",
"                    gcr      qcd qcg    gc8   00  dg0 gcg  gd  gcg        gd  gcd   ccg   dcgggcg   dcq rcg     dcq                     ",
"                    vnf      dnf  jnd   vnnnnnnd fnnnnnbd dnnnnnbq       knnnnnv    bnl   knf  bb   hnd  vbq    fns                     ",
"                   smMk      nMnk nMnd sMMMMMMMh  hnmMnk   hvmmnf         knmmnd   snMn  hmMk dmMv 0nMn  nMns  hmMk                     ",
"                                                                                                                                        ",
"                                                                                                                                        ",
"                                                                                                                                        ",
"                                                                                                                                        ",
"                                                                                                                                        ",
"                                                                                                                                        "
};
