/* XPM */
static char *tile0191719917436[] = {
/* columns rows colors chars-per-pixel */
"136 23 55 1 ",
"  c #0000FF",
". c #864B0C",
"X c #91460A",
"o c #9B4C0B",
"O c #875D12",
"+ c #A7510B",
"@ c #B1580D",
"# c #B15D0F",
"$ c #8E6B16",
"% c #906D16",
"& c #916F16",
"* c #8D7B1C",
"= c #907318",
"- c #AF6413",
"; c #AF6814",
": c #AE6F18",
"> c #A97D1F",
", c #B0761A",
"< c #A77F20",
"1 c #A87E20",
"2 c #7E8F26",
"3 c #858521",
"4 c #818B24",
"5 c #919C2E",
"6 c #9C9D2D",
"7 c #8E9F30",
"8 c #A78020",
"9 c #AB8120",
"0 c #AD8220",
"q c #AE8622",
"w c #AE8D25",
"e c #AE9027",
"r c #AE9228",
"t c #A99E2D",
"y c #AD9F2D",
"u c #91A231",
"i c #96A432",
"p c #9EA431",
"a c #9BBB3A",
"s c #9FB939",
"d c #9CBE3A",
"f c #A7A530",
"g c #ABAB32",
"h c #ABAD33",
"j c #ACB236",
"k c #A5B738",
"l c #A1C03C",
"z c #A4C33D",
"x c #ABC23D",
"c c #A8C43D",
"v c #ABC83F",
"b c #ABCA40",
"n c #ABCC41",
"m c #AAD143",
"M c #AAD344",
/* pixels */
"                                                                                                                                        ",
"                                                                                                                                        ",
"                                                                                                                                        ",
"                                                                                                                                        ",
"                                                                                                                                        ",
"                                                                                                                                        ",
"                   o++++++   ++++++o   o++++++++   ++++o.   +++++          +++++ ++++++++   +++o   X++++++o  ++++++++                   ",
"                    #@@@@@@  +@@@@@@+   @@@@@@@@  +@@@@+   +@@@@+         @@@@@+ +@@@@@@@@  +@@     +@@@@@@o @@@@@@@@                   ",
"                    ;;&O$;;+ o;+OO+;;   ;;&OOOo; +;;oo;+  o;;oo;+        +;;$o;o ++O;;+O+;  -;;o    +;+OO+;- ;oO-;oO+                   ",
"                    >,&  >,> &,1   ,,   >,       >,>      &,:            :,>        ,,>    >,,,1    1,:  &,,    <,&                     ",
"      8qqqq8        <q8q89q< &q8qq8q8   8q9q8=   =qq8q=   =q989=         <q989=     0q<    <q9q8    <q8q9<q<    <q=         8qqqq8      ",
"      wrrrrr        rrrrrre  8rrrrrr*   errrr8    8rrrrw   8rrrr8         wrrrrw    rr8    wr*rr    8rrrrrr*    <r*         errrr8      ",
"      6ttttt        tytt66   6yttyt3    tyttt6     666tyt   566ty6         666yy5   yy6    ty3ty6   6yttyt3     6y3         6tttt5      ",
"                    hjp      6jp fji    gj3  4        pjp      6jf            pjp   jjp   5jjjjjp   pj5 hj5     pj5                     ",
"                    kxp      ixp ixk    kx2   uu  ssu kxk  ks  kxk        ks  kxi   xxk   sxkkkxk   sxi pxk     pxu                     ",
"                    bns      and  zna   cnnnnnna snnnnnns annnnnni       dnnnnnv    bnl   zna  nb   dna  cni    ana                     ",
"                   amMz      bMnd zMna aMMMMMMMd  azmMza   azmMba         dzmmzi   inMn  amMd aMMz 7nMn  nMni  dmMz                     ",
"                                                                                                                                        ",
"                                                                                                                                        ",
"                                                                                                                                        ",
"                                                                                                                                        ",
"                                                                                                                                        ",
"                                                                                                                                        "
};
