/* XPM */
static char *tile0151719917435[] = {
/* columns rows colors chars-per-pixel */
"136 23 37 1 ",
"  c #0000FF",
". c #592C06",
"X c #573E0D",
"o c #622F06",
"O c #643308",
"+ c #643408",
"@ c #63390A",
"# c #643B0B",
"$ c #5E420E",
"% c #5D4812",
"& c #595416",
"* c #5F5417",
"= c #575B1B",
"- c #5F5A19",
"; c #63430F",
": c #62440F",
"> c #624912",
", c #634C13",
"< c #635015",
"1 c #625517",
"2 c #625818",
"3 c #625D1A",
"4 c #55671F",
"5 c #5A631D",
"6 c #5D621D",
"7 c #59641E",
"8 c #61621D",
"9 c #61641E",
"0 c #5B6720",
"q c #5F6820",
"w c #5F6E22",
"e c #616B21",
"r c #606D22",
"t c #607023",
"y c #607124",
"u c #607425",
"i c #607827",
/* pixels */
"                                                                                                                                        ",
"                                                                                                                                        ",
"                                                                                                                                        ",
"                                                                                                                                        ",
"                                                                                                                                        ",
"                                                                                                                                        ",
"                   .oooooo   ooooooo   ooooooooo   ooooo    ooooo          ooooo .ooooooo   ooo.    oooooo   oooooooo                   ",
"                    +OOOOOO  OOOOOOOO   OOOOOOOO  OOOOOO   OOOOOO         oOOOOo oOOOOOOOo  OOO     OOOOOOo  OOOOOOOO                   ",
"                    @#$$$@#@ ##@$$@##   ##@$$$@@  #@@@@@   #@@@@@        @#@@@@@ $@$@#@$@@  @##     ##@$$@#@ #@$@#@$@                   ",
"                    :;X  :;$ ;;;   :;   ;;       :;:      ;;:            :;:        ;;$     ;;;:    ;;$   ;:    :;                      ",
"      %,,,,%        >,>,>,,> ,,,,,>,>   ,,>,,,    ,>,>%    ,,,>%         %,,>>      >,%    >,>,>    >,>,,>,>    >,          %,,,,%      ",
"      <11111        *11111*  <111111*   11111<    *11111   *1111*         *1111*    11<    <1*1*    111111*&    11          <1111*      ",
"      &----&        -3--**   23--3-&    -3---3     &*--3-   *-*-3-         &---3-   33-    -3--3-   -3--3-      33          &*-**&      ",
"                    69=      999 696    69            =98      696            696   996   =999996   =96 89      99=                     ",
"                    qr5      err 7re    qr     0  q0  erq  0q  qrq        q0  er0   rr0   0rq0qrq   7rq 0rq     er7                     ",
"                    yu0      yuu  tuw   wuuuuuuy wuuuuuu0 wuuuuuy4       wuuuuut    yuw   wuw  yy   0uw  tu     uu4                     ",
"                   yiiw      uiu4 uiu4 wiiiiiiiu  wuuiuw   wuuiu4         wuuiu4   4uiu  wuiy 4iiy  uiu  uiu4  4uiu                     ",
"                                                                                                                                        ",
"                                                                                                                                        ",
"                                                                                                                                        ",
"                                                                                                                                        ",
"                                                                                                                                        ",
"                                                                                                                                        "
};
