/* XPM */
static char *tile0021720723887[] = {
/* columns rows colors chars-per-pixel */
"64 64 11 1 ",
"  c #0000FF",
". c black",
"X c #0C0C0C",
"o c #0E0E0E",
"O c #161616",
"+ c #1E1E1E",
"@ c #301616",
"# c #351F1F",
"$ c gray23",
"% c #421919",
"& c #FF4747",
/* pixels */
"                                                                ",
"                                                                ",
"                                                                ",
"                                                                ",
"                                                                ",
"                                                                ",
"                                                                ",
"                                                                ",
"                                                                ",
"                                                                ",
"                                                                ",
"                                                                ",
"                                                                ",
"                                                                ",
"                                                                ",
"                                                                ",
"                                                                ",
"                                                                ",
"                            OOOOOOOo                            ",
"                            OOOOOOOo                            ",
"                            OOOOOOOo                            ",
"                            OOOOOOOo                            ",
"                           OOOOOOOOOo                           ",
"                          OOOOOOOOOOOo                          ",
"                            oXX%&%%&                            ",
"                          & Ooo@#$$$$                           ",
"                          & Ooooo$$$$$                          ",
"                          &Ooooooooo  $                         ",
"                        &&Ooooooooooo                           ",
"                        &&OoooooooooX                           ",
"                        &&OooooooooooX                          ",
"                        &&Oooooooooooo                          ",
"                        &OoooooooooooX                          ",
"                        &Oooooooo+oooX                          ",
"                        &Oooooooo++ooX                          ",
"                        &Oooooooo++ooo                          ",
"                        ooooooooo++ooX                          ",
"                        oooooooooo++oX                          ",
"                        oooooooooo++ooo                         ",
"                        oooooooooo++ooo                         ",
"                        oooooooooo++ooo                         ",
"                       ooooooooooo++oo o                        ",
"                       ooooooooooo++oooo                        ",
"                      o oooOooooo+++ooOooo                      ",
"                      oooooOooo++++++oOo o                      ",
"                      ooooOoo.o+++++++oOo                       ",
"                      o oo oo.o ++ +o oo                        ",
"                           o .. +  ..                           ",
"                                                                ",
"                                                                ",
"                                                                ",
"                                                                ",
"                                                                ",
"                                                                ",
"                                                                ",
"                                                                ",
"                                                                ",
"                                                                ",
"                                                                ",
"                                                                ",
"                                                                ",
"                                                                ",
"                                                                ",
"                                                                "
};
